<mxfile host="Electron" modified="2023-09-04T12:44:15.066Z" agent="Mozilla/5.0 (Windows NT 10.0; Win64; x64) AppleWebKit/537.36 (KHTML, like Gecko) draw.io/21.6.5 Chrome/114.0.5735.243 Electron/25.3.1 Safari/537.36" etag="TZsn0TLt7iqPu_AJROzt" version="21.6.5" type="device" pages="2">
  <diagram name="Page-1" id="0783ab3e-0a74-02c8-0abd-f7b4e66b4bec">
    <mxGraphModel dx="1098" dy="820" grid="1" gridSize="10" guides="1" tooltips="1" connect="1" arrows="1" fold="1" page="1" pageScale="1" pageWidth="850" pageHeight="1100" background="none" math="0" shadow="0">
      <root>
        <mxCell id="0" />
        <mxCell id="1" parent="0" />
        <mxCell id="1c1d494c118603dd-1" value="Pool" style="swimlane;html=1;childLayout=stackLayout;startSize=20;rounded=0;shadow=0;comic=0;labelBackgroundColor=none;strokeWidth=1;fontFamily=Verdana;fontSize=12;align=center;" parent="1" vertex="1">
          <mxGeometry x="350" y="55" width="1140" height="1320" as="geometry" />
        </mxCell>
        <mxCell id="nV9DcU600kD149Q3BseJ-19" style="edgeStyle=orthogonalEdgeStyle;rounded=0;orthogonalLoop=1;jettySize=auto;html=1;exitX=1;exitY=0.25;exitDx=0;exitDy=0;entryX=0;entryY=0.25;entryDx=0;entryDy=0;" parent="1c1d494c118603dd-1" source="nV9DcU600kD149Q3BseJ-17" target="nV9DcU600kD149Q3BseJ-3" edge="1">
          <mxGeometry relative="1" as="geometry" />
        </mxCell>
        <mxCell id="nV9DcU600kD149Q3BseJ-20" style="edgeStyle=orthogonalEdgeStyle;rounded=0;orthogonalLoop=1;jettySize=auto;html=1;exitX=0;exitY=0.75;exitDx=0;exitDy=0;entryX=1;entryY=0.75;entryDx=0;entryDy=0;" parent="1c1d494c118603dd-1" source="nV9DcU600kD149Q3BseJ-3" target="nV9DcU600kD149Q3BseJ-17" edge="1">
          <mxGeometry relative="1" as="geometry" />
        </mxCell>
        <mxCell id="MTaTlPAsH2ekXYVE0kks-4" style="edgeStyle=orthogonalEdgeStyle;rounded=0;orthogonalLoop=1;jettySize=auto;html=1;exitX=1;exitY=0.25;exitDx=0;exitDy=0;entryX=0;entryY=0.25;entryDx=0;entryDy=0;" parent="1c1d494c118603dd-1" source="MTaTlPAsH2ekXYVE0kks-1" target="MTaTlPAsH2ekXYVE0kks-2" edge="1">
          <mxGeometry relative="1" as="geometry" />
        </mxCell>
        <mxCell id="MTaTlPAsH2ekXYVE0kks-5" style="edgeStyle=orthogonalEdgeStyle;rounded=0;orthogonalLoop=1;jettySize=auto;html=1;exitX=0;exitY=0.75;exitDx=0;exitDy=0;entryX=1;entryY=0.75;entryDx=0;entryDy=0;" parent="1c1d494c118603dd-1" source="MTaTlPAsH2ekXYVE0kks-2" target="MTaTlPAsH2ekXYVE0kks-1" edge="1">
          <mxGeometry relative="1" as="geometry" />
        </mxCell>
        <mxCell id="Q7vWkB4qhorTp54sprEH-14" style="edgeStyle=orthogonalEdgeStyle;rounded=0;orthogonalLoop=1;jettySize=auto;html=1;exitX=1;exitY=0.25;exitDx=0;exitDy=0;entryX=0;entryY=0.25;entryDx=0;entryDy=0;" parent="1c1d494c118603dd-1" source="Q7vWkB4qhorTp54sprEH-1" target="Q7vWkB4qhorTp54sprEH-11" edge="1">
          <mxGeometry relative="1" as="geometry" />
        </mxCell>
        <mxCell id="Q7vWkB4qhorTp54sprEH-16" style="edgeStyle=orthogonalEdgeStyle;rounded=0;orthogonalLoop=1;jettySize=auto;html=1;exitX=0;exitY=0.75;exitDx=0;exitDy=0;entryX=1;entryY=0.75;entryDx=0;entryDy=0;" parent="1c1d494c118603dd-1" source="Q7vWkB4qhorTp54sprEH-11" target="Q7vWkB4qhorTp54sprEH-1" edge="1">
          <mxGeometry relative="1" as="geometry" />
        </mxCell>
        <mxCell id="Q7vWkB4qhorTp54sprEH-20" style="edgeStyle=orthogonalEdgeStyle;rounded=0;orthogonalLoop=1;jettySize=auto;html=1;exitX=1;exitY=0.25;exitDx=0;exitDy=0;entryX=0;entryY=0.25;entryDx=0;entryDy=0;" parent="1c1d494c118603dd-1" source="Q7vWkB4qhorTp54sprEH-17" target="Q7vWkB4qhorTp54sprEH-18" edge="1">
          <mxGeometry relative="1" as="geometry" />
        </mxCell>
        <mxCell id="Q7vWkB4qhorTp54sprEH-21" style="edgeStyle=orthogonalEdgeStyle;rounded=0;orthogonalLoop=1;jettySize=auto;html=1;exitX=0;exitY=0.75;exitDx=0;exitDy=0;entryX=1;entryY=0.75;entryDx=0;entryDy=0;" parent="1c1d494c118603dd-1" source="Q7vWkB4qhorTp54sprEH-18" target="Q7vWkB4qhorTp54sprEH-17" edge="1">
          <mxGeometry relative="1" as="geometry" />
        </mxCell>
        <mxCell id="1c1d494c118603dd-2" value="android" style="swimlane;html=1;startSize=20;" parent="1c1d494c118603dd-1" vertex="1">
          <mxGeometry y="20" width="380" height="1300" as="geometry" />
        </mxCell>
        <mxCell id="nV9DcU600kD149Q3BseJ-22" style="edgeStyle=orthogonalEdgeStyle;rounded=0;orthogonalLoop=1;jettySize=auto;html=1;exitX=0.5;exitY=1;exitDx=0;exitDy=0;entryX=0.5;entryY=0;entryDx=0;entryDy=0;" parent="1c1d494c118603dd-2" source="nV9DcU600kD149Q3BseJ-16" target="nV9DcU600kD149Q3BseJ-21" edge="1">
          <mxGeometry relative="1" as="geometry" />
        </mxCell>
        <mxCell id="nV9DcU600kD149Q3BseJ-16" value="" style="ellipse;whiteSpace=wrap;html=1;rounded=0;shadow=0;comic=0;labelBackgroundColor=none;strokeWidth=1;fillColor=#000000;fontFamily=Verdana;fontSize=12;align=center;" parent="1c1d494c118603dd-2" vertex="1">
          <mxGeometry x="80" y="30" width="40" height="40" as="geometry" />
        </mxCell>
        <mxCell id="nV9DcU600kD149Q3BseJ-24" value="" style="edgeStyle=orthogonalEdgeStyle;rounded=0;orthogonalLoop=1;jettySize=auto;html=1;" parent="1c1d494c118603dd-2" source="nV9DcU600kD149Q3BseJ-21" target="nV9DcU600kD149Q3BseJ-23" edge="1">
          <mxGeometry relative="1" as="geometry" />
        </mxCell>
        <mxCell id="nV9DcU600kD149Q3BseJ-21" value="init&amp;nbsp;" style="rounded=1;whiteSpace=wrap;html=1;shadow=0;comic=0;labelBackgroundColor=none;strokeWidth=1;fontFamily=Verdana;fontSize=12;align=center;arcSize=50;" parent="1c1d494c118603dd-2" vertex="1">
          <mxGeometry x="50" y="115" width="100" height="30" as="geometry" />
        </mxCell>
        <mxCell id="nV9DcU600kD149Q3BseJ-33" style="edgeStyle=orthogonalEdgeStyle;rounded=0;orthogonalLoop=1;jettySize=auto;html=1;exitX=0.25;exitY=1;exitDx=0;exitDy=0;entryX=0;entryY=0.5;entryDx=0;entryDy=0;" parent="1c1d494c118603dd-2" source="nV9DcU600kD149Q3BseJ-23" target="nV9DcU600kD149Q3BseJ-29" edge="1">
          <mxGeometry relative="1" as="geometry" />
        </mxCell>
        <mxCell id="nV9DcU600kD149Q3BseJ-34" style="edgeStyle=orthogonalEdgeStyle;rounded=0;orthogonalLoop=1;jettySize=auto;html=1;exitX=0.25;exitY=1;exitDx=0;exitDy=0;entryX=0;entryY=0.5;entryDx=0;entryDy=0;" parent="1c1d494c118603dd-2" source="nV9DcU600kD149Q3BseJ-23" target="nV9DcU600kD149Q3BseJ-30" edge="1">
          <mxGeometry relative="1" as="geometry" />
        </mxCell>
        <mxCell id="nV9DcU600kD149Q3BseJ-35" style="edgeStyle=orthogonalEdgeStyle;rounded=0;orthogonalLoop=1;jettySize=auto;html=1;exitX=0.25;exitY=1;exitDx=0;exitDy=0;entryX=0;entryY=0.5;entryDx=0;entryDy=0;" parent="1c1d494c118603dd-2" source="nV9DcU600kD149Q3BseJ-23" target="nV9DcU600kD149Q3BseJ-31" edge="1">
          <mxGeometry relative="1" as="geometry" />
        </mxCell>
        <mxCell id="nV9DcU600kD149Q3BseJ-36" style="edgeStyle=orthogonalEdgeStyle;rounded=0;orthogonalLoop=1;jettySize=auto;html=1;exitX=0.25;exitY=1;exitDx=0;exitDy=0;entryX=0;entryY=0.5;entryDx=0;entryDy=0;" parent="1c1d494c118603dd-2" source="nV9DcU600kD149Q3BseJ-23" target="nV9DcU600kD149Q3BseJ-32" edge="1">
          <mxGeometry relative="1" as="geometry" />
        </mxCell>
        <mxCell id="nV9DcU600kD149Q3BseJ-41" style="edgeStyle=orthogonalEdgeStyle;rounded=0;orthogonalLoop=1;jettySize=auto;html=1;exitX=0.25;exitY=1;exitDx=0;exitDy=0;entryX=0.5;entryY=0;entryDx=0;entryDy=0;" parent="1c1d494c118603dd-2" source="nV9DcU600kD149Q3BseJ-23" target="nV9DcU600kD149Q3BseJ-39" edge="1">
          <mxGeometry relative="1" as="geometry" />
        </mxCell>
        <mxCell id="nV9DcU600kD149Q3BseJ-42" style="edgeStyle=orthogonalEdgeStyle;rounded=0;orthogonalLoop=1;jettySize=auto;html=1;exitX=0.25;exitY=1;exitDx=0;exitDy=0;entryX=0;entryY=0.5;entryDx=0;entryDy=0;" parent="1c1d494c118603dd-2" source="nV9DcU600kD149Q3BseJ-23" target="nV9DcU600kD149Q3BseJ-37" edge="1">
          <mxGeometry relative="1" as="geometry" />
        </mxCell>
        <mxCell id="nV9DcU600kD149Q3BseJ-43" style="edgeStyle=orthogonalEdgeStyle;rounded=0;orthogonalLoop=1;jettySize=auto;html=1;exitX=0.25;exitY=1;exitDx=0;exitDy=0;entryX=0;entryY=0.5;entryDx=0;entryDy=0;" parent="1c1d494c118603dd-2" source="nV9DcU600kD149Q3BseJ-23" target="nV9DcU600kD149Q3BseJ-38" edge="1">
          <mxGeometry relative="1" as="geometry" />
        </mxCell>
        <mxCell id="nV9DcU600kD149Q3BseJ-47" style="edgeStyle=orthogonalEdgeStyle;rounded=0;orthogonalLoop=1;jettySize=auto;html=1;exitX=0.25;exitY=1;exitDx=0;exitDy=0;entryX=0;entryY=0.5;entryDx=0;entryDy=0;" parent="1c1d494c118603dd-2" source="nV9DcU600kD149Q3BseJ-23" target="nV9DcU600kD149Q3BseJ-46" edge="1">
          <mxGeometry relative="1" as="geometry" />
        </mxCell>
        <mxCell id="MTaTlPAsH2ekXYVE0kks-15" style="edgeStyle=orthogonalEdgeStyle;rounded=0;orthogonalLoop=1;jettySize=auto;html=1;exitX=0.25;exitY=1;exitDx=0;exitDy=0;entryX=0;entryY=0.5;entryDx=0;entryDy=0;" parent="1c1d494c118603dd-2" source="nV9DcU600kD149Q3BseJ-23" target="MTaTlPAsH2ekXYVE0kks-14" edge="1">
          <mxGeometry relative="1" as="geometry" />
        </mxCell>
        <mxCell id="MTaTlPAsH2ekXYVE0kks-75" style="edgeStyle=orthogonalEdgeStyle;rounded=0;orthogonalLoop=1;jettySize=auto;html=1;exitX=0.25;exitY=1;exitDx=0;exitDy=0;entryX=0;entryY=0.5;entryDx=0;entryDy=0;" parent="1c1d494c118603dd-2" source="nV9DcU600kD149Q3BseJ-23" target="MTaTlPAsH2ekXYVE0kks-74" edge="1">
          <mxGeometry relative="1" as="geometry" />
        </mxCell>
        <mxCell id="nV9DcU600kD149Q3BseJ-23" value="scan, connect BLE" style="rounded=1;whiteSpace=wrap;html=1;shadow=0;comic=0;labelBackgroundColor=none;strokeWidth=1;fontFamily=Verdana;fontSize=12;align=center;arcSize=50;" parent="1c1d494c118603dd-2" vertex="1">
          <mxGeometry x="50" y="200" width="100" height="40" as="geometry" />
        </mxCell>
        <mxCell id="nV9DcU600kD149Q3BseJ-29" value="get basic status" style="rounded=1;whiteSpace=wrap;html=1;shadow=0;comic=0;labelBackgroundColor=none;strokeWidth=1;fontFamily=Verdana;fontSize=12;align=center;arcSize=50;" parent="1c1d494c118603dd-2" vertex="1">
          <mxGeometry x="120" y="290" width="110" height="40" as="geometry" />
        </mxCell>
        <mxCell id="nV9DcU600kD149Q3BseJ-30" value="send drive command" style="rounded=1;whiteSpace=wrap;html=1;shadow=0;comic=0;labelBackgroundColor=none;strokeWidth=1;fontFamily=Verdana;fontSize=12;align=center;arcSize=50;" parent="1c1d494c118603dd-2" vertex="1">
          <mxGeometry x="120" y="385" width="100" height="40" as="geometry" />
        </mxCell>
        <mxCell id="nV9DcU600kD149Q3BseJ-31" value="send recharge command" style="rounded=1;whiteSpace=wrap;html=1;shadow=0;comic=0;labelBackgroundColor=none;strokeWidth=1;fontFamily=Verdana;fontSize=12;align=center;arcSize=50;" parent="1c1d494c118603dd-2" vertex="1">
          <mxGeometry x="120" y="465" width="100" height="40" as="geometry" />
        </mxCell>
        <mxCell id="nV9DcU600kD149Q3BseJ-32" value="send full reload command" style="rounded=1;whiteSpace=wrap;html=1;shadow=0;comic=0;labelBackgroundColor=none;strokeWidth=1;fontFamily=Verdana;fontSize=12;align=center;arcSize=50;" parent="1c1d494c118603dd-2" vertex="1">
          <mxGeometry x="120" y="550" width="110" height="40" as="geometry" />
        </mxCell>
        <mxCell id="Q7vWkB4qhorTp54sprEH-12" style="edgeStyle=orthogonalEdgeStyle;rounded=0;orthogonalLoop=1;jettySize=auto;html=1;exitX=1;exitY=0.5;exitDx=0;exitDy=0;entryX=0;entryY=0.5;entryDx=0;entryDy=0;" parent="1c1d494c118603dd-2" source="nV9DcU600kD149Q3BseJ-37" target="Q7vWkB4qhorTp54sprEH-1" edge="1">
          <mxGeometry relative="1" as="geometry" />
        </mxCell>
        <mxCell id="nV9DcU600kD149Q3BseJ-37" value="on stop" style="rounded=1;whiteSpace=wrap;html=1;shadow=0;comic=0;labelBackgroundColor=none;strokeWidth=1;fontFamily=Verdana;fontSize=12;align=center;arcSize=50;" parent="1c1d494c118603dd-2" vertex="1">
          <mxGeometry x="110" y="965" width="100" height="30" as="geometry" />
        </mxCell>
        <mxCell id="Q7vWkB4qhorTp54sprEH-19" style="edgeStyle=orthogonalEdgeStyle;rounded=0;orthogonalLoop=1;jettySize=auto;html=1;exitX=1;exitY=0.5;exitDx=0;exitDy=0;entryX=0;entryY=0.5;entryDx=0;entryDy=0;" parent="1c1d494c118603dd-2" source="nV9DcU600kD149Q3BseJ-38" target="Q7vWkB4qhorTp54sprEH-17" edge="1">
          <mxGeometry relative="1" as="geometry" />
        </mxCell>
        <mxCell id="nV9DcU600kD149Q3BseJ-38" value="on restart" style="rounded=1;whiteSpace=wrap;html=1;shadow=0;comic=0;labelBackgroundColor=none;strokeWidth=1;fontFamily=Verdana;fontSize=12;align=center;arcSize=50;" parent="1c1d494c118603dd-2" vertex="1">
          <mxGeometry x="110" y="1035" width="100" height="30" as="geometry" />
        </mxCell>
        <mxCell id="nV9DcU600kD149Q3BseJ-45" style="edgeStyle=orthogonalEdgeStyle;rounded=0;orthogonalLoop=1;jettySize=auto;html=1;exitX=0.5;exitY=1;exitDx=0;exitDy=0;entryX=0.5;entryY=0;entryDx=0;entryDy=0;" parent="1c1d494c118603dd-2" source="nV9DcU600kD149Q3BseJ-39" target="nV9DcU600kD149Q3BseJ-44" edge="1">
          <mxGeometry relative="1" as="geometry" />
        </mxCell>
        <mxCell id="MTaTlPAsH2ekXYVE0kks-3" style="edgeStyle=orthogonalEdgeStyle;rounded=0;orthogonalLoop=1;jettySize=auto;html=1;exitX=1;exitY=0.5;exitDx=0;exitDy=0;entryX=0;entryY=0.5;entryDx=0;entryDy=0;" parent="1c1d494c118603dd-2" source="nV9DcU600kD149Q3BseJ-39" target="MTaTlPAsH2ekXYVE0kks-1" edge="1">
          <mxGeometry relative="1" as="geometry" />
        </mxCell>
        <mxCell id="nV9DcU600kD149Q3BseJ-39" value="on finish" style="rounded=1;whiteSpace=wrap;html=1;shadow=0;comic=0;labelBackgroundColor=none;strokeWidth=1;fontFamily=Verdana;fontSize=12;align=center;arcSize=50;" parent="1c1d494c118603dd-2" vertex="1">
          <mxGeometry x="30" y="1105" width="90" height="30" as="geometry" />
        </mxCell>
        <mxCell id="nV9DcU600kD149Q3BseJ-44" value="" style="shape=mxgraph.bpmn.shape;html=1;verticalLabelPosition=bottom;labelBackgroundColor=#ffffff;verticalAlign=top;perimeter=ellipsePerimeter;outline=end;symbol=terminate;rounded=0;shadow=0;comic=0;strokeWidth=1;fontFamily=Verdana;fontSize=12;align=center;" parent="1c1d494c118603dd-2" vertex="1">
          <mxGeometry x="55" y="1175" width="40" height="40" as="geometry" />
        </mxCell>
        <mxCell id="nV9DcU600kD149Q3BseJ-46" value="send rotate&lt;br&gt;&amp;nbsp;step motor command" style="rounded=1;whiteSpace=wrap;html=1;shadow=0;comic=0;labelBackgroundColor=none;strokeWidth=1;fontFamily=Verdana;fontSize=12;align=center;arcSize=50;" parent="1c1d494c118603dd-2" vertex="1">
          <mxGeometry x="120" y="775" width="150" height="40" as="geometry" />
        </mxCell>
        <mxCell id="Q7vWkB4qhorTp54sprEH-1" value="disconnect BLE" style="rounded=1;whiteSpace=wrap;html=1;shadow=0;comic=0;labelBackgroundColor=none;strokeWidth=1;fontFamily=Verdana;fontSize=12;align=center;arcSize=50;" parent="1c1d494c118603dd-2" vertex="1">
          <mxGeometry x="230" y="965" width="110" height="30" as="geometry" />
        </mxCell>
        <mxCell id="Q7vWkB4qhorTp54sprEH-17" value="connect BLE" style="rounded=1;whiteSpace=wrap;html=1;shadow=0;comic=0;labelBackgroundColor=none;strokeWidth=1;fontFamily=Verdana;fontSize=12;align=center;arcSize=50;" parent="1c1d494c118603dd-2" vertex="1">
          <mxGeometry x="230" y="1035" width="110" height="30" as="geometry" />
        </mxCell>
        <mxCell id="MTaTlPAsH2ekXYVE0kks-1" value="disconnect BLE" style="rounded=1;whiteSpace=wrap;html=1;shadow=0;comic=0;labelBackgroundColor=none;strokeWidth=1;fontFamily=Verdana;fontSize=12;align=center;arcSize=50;" parent="1c1d494c118603dd-2" vertex="1">
          <mxGeometry x="230" y="1105" width="110" height="30" as="geometry" />
        </mxCell>
        <mxCell id="MTaTlPAsH2ekXYVE0kks-54" style="edgeStyle=orthogonalEdgeStyle;rounded=0;orthogonalLoop=1;jettySize=auto;html=1;exitX=0.5;exitY=1;exitDx=0;exitDy=0;entryX=0;entryY=0.5;entryDx=0;entryDy=0;" parent="1c1d494c118603dd-2" source="MTaTlPAsH2ekXYVE0kks-14" target="MTaTlPAsH2ekXYVE0kks-53" edge="1">
          <mxGeometry relative="1" as="geometry" />
        </mxCell>
        <mxCell id="MTaTlPAsH2ekXYVE0kks-14" value="send fire&amp;nbsp;&lt;br&gt;command" style="rounded=1;whiteSpace=wrap;html=1;shadow=0;comic=0;labelBackgroundColor=none;strokeWidth=1;fontFamily=Verdana;fontSize=12;align=center;arcSize=50;" parent="1c1d494c118603dd-2" vertex="1">
          <mxGeometry x="120" y="655" width="110" height="35" as="geometry" />
        </mxCell>
        <mxCell id="MTaTlPAsH2ekXYVE0kks-53" value="disable fire&amp;nbsp;&lt;br&gt;command" style="rounded=1;whiteSpace=wrap;html=1;shadow=0;comic=0;labelBackgroundColor=none;strokeWidth=1;fontFamily=Verdana;fontSize=12;align=center;arcSize=50;" parent="1c1d494c118603dd-2" vertex="1">
          <mxGeometry x="240" y="715" width="110" height="35" as="geometry" />
        </mxCell>
        <mxCell id="MTaTlPAsH2ekXYVE0kks-74" value="send rotate&lt;br&gt;&amp;nbsp;barrel servo command" style="rounded=1;whiteSpace=wrap;html=1;shadow=0;comic=0;labelBackgroundColor=none;strokeWidth=1;fontFamily=Verdana;fontSize=12;align=center;arcSize=50;" parent="1c1d494c118603dd-2" vertex="1">
          <mxGeometry x="120" y="845" width="150" height="40" as="geometry" />
        </mxCell>
        <mxCell id="nV9DcU600kD149Q3BseJ-27" style="edgeStyle=orthogonalEdgeStyle;rounded=0;orthogonalLoop=1;jettySize=auto;html=1;exitX=1;exitY=0.25;exitDx=0;exitDy=0;entryX=0;entryY=0.25;entryDx=0;entryDy=0;" parent="1c1d494c118603dd-1" source="nV9DcU600kD149Q3BseJ-23" target="nV9DcU600kD149Q3BseJ-25" edge="1">
          <mxGeometry relative="1" as="geometry" />
        </mxCell>
        <mxCell id="nV9DcU600kD149Q3BseJ-28" style="edgeStyle=orthogonalEdgeStyle;rounded=0;orthogonalLoop=1;jettySize=auto;html=1;exitX=0;exitY=0.75;exitDx=0;exitDy=0;entryX=1;entryY=0.75;entryDx=0;entryDy=0;" parent="1c1d494c118603dd-1" source="nV9DcU600kD149Q3BseJ-25" target="nV9DcU600kD149Q3BseJ-23" edge="1">
          <mxGeometry relative="1" as="geometry" />
        </mxCell>
        <mxCell id="Q7vWkB4qhorTp54sprEH-24" style="edgeStyle=orthogonalEdgeStyle;rounded=0;orthogonalLoop=1;jettySize=auto;html=1;exitX=1;exitY=0.25;exitDx=0;exitDy=0;entryX=0;entryY=0.25;entryDx=0;entryDy=0;" parent="1c1d494c118603dd-1" source="nV9DcU600kD149Q3BseJ-29" target="Q7vWkB4qhorTp54sprEH-22" edge="1">
          <mxGeometry relative="1" as="geometry" />
        </mxCell>
        <mxCell id="Q7vWkB4qhorTp54sprEH-25" style="edgeStyle=orthogonalEdgeStyle;rounded=0;orthogonalLoop=1;jettySize=auto;html=1;exitX=1;exitY=0.25;exitDx=0;exitDy=0;entryX=0;entryY=0.25;entryDx=0;entryDy=0;" parent="1c1d494c118603dd-1" source="Q7vWkB4qhorTp54sprEH-22" target="Q7vWkB4qhorTp54sprEH-23" edge="1">
          <mxGeometry relative="1" as="geometry" />
        </mxCell>
        <mxCell id="Q7vWkB4qhorTp54sprEH-26" style="edgeStyle=orthogonalEdgeStyle;rounded=0;orthogonalLoop=1;jettySize=auto;html=1;exitX=0;exitY=0.75;exitDx=0;exitDy=0;entryX=1;entryY=0.75;entryDx=0;entryDy=0;" parent="1c1d494c118603dd-1" source="Q7vWkB4qhorTp54sprEH-23" target="Q7vWkB4qhorTp54sprEH-22" edge="1">
          <mxGeometry relative="1" as="geometry" />
        </mxCell>
        <mxCell id="Q7vWkB4qhorTp54sprEH-27" style="edgeStyle=orthogonalEdgeStyle;rounded=0;orthogonalLoop=1;jettySize=auto;html=1;exitX=0;exitY=0.75;exitDx=0;exitDy=0;entryX=1;entryY=0.75;entryDx=0;entryDy=0;" parent="1c1d494c118603dd-1" source="Q7vWkB4qhorTp54sprEH-22" target="nV9DcU600kD149Q3BseJ-29" edge="1">
          <mxGeometry relative="1" as="geometry" />
        </mxCell>
        <mxCell id="MTaTlPAsH2ekXYVE0kks-9" style="edgeStyle=orthogonalEdgeStyle;rounded=0;orthogonalLoop=1;jettySize=auto;html=1;exitX=1;exitY=0.5;exitDx=0;exitDy=0;entryX=0;entryY=0.5;entryDx=0;entryDy=0;" parent="1c1d494c118603dd-1" source="nV9DcU600kD149Q3BseJ-30" target="MTaTlPAsH2ekXYVE0kks-6" edge="1">
          <mxGeometry relative="1" as="geometry" />
        </mxCell>
        <mxCell id="MTaTlPAsH2ekXYVE0kks-10" style="edgeStyle=orthogonalEdgeStyle;rounded=0;orthogonalLoop=1;jettySize=auto;html=1;exitX=1;exitY=0.5;exitDx=0;exitDy=0;entryX=0;entryY=0.5;entryDx=0;entryDy=0;" parent="1c1d494c118603dd-1" source="MTaTlPAsH2ekXYVE0kks-6" target="MTaTlPAsH2ekXYVE0kks-7" edge="1">
          <mxGeometry relative="1" as="geometry" />
        </mxCell>
        <mxCell id="MTaTlPAsH2ekXYVE0kks-18" style="edgeStyle=orthogonalEdgeStyle;rounded=0;orthogonalLoop=1;jettySize=auto;html=1;exitX=1;exitY=0.5;exitDx=0;exitDy=0;entryX=0;entryY=0.5;entryDx=0;entryDy=0;" parent="1c1d494c118603dd-1" source="nV9DcU600kD149Q3BseJ-31" target="MTaTlPAsH2ekXYVE0kks-17" edge="1">
          <mxGeometry relative="1" as="geometry" />
        </mxCell>
        <mxCell id="MTaTlPAsH2ekXYVE0kks-20" style="edgeStyle=orthogonalEdgeStyle;rounded=0;orthogonalLoop=1;jettySize=auto;html=1;exitX=1;exitY=0.5;exitDx=0;exitDy=0;entryX=0;entryY=0.5;entryDx=0;entryDy=0;" parent="1c1d494c118603dd-1" source="MTaTlPAsH2ekXYVE0kks-17" target="MTaTlPAsH2ekXYVE0kks-19" edge="1">
          <mxGeometry relative="1" as="geometry" />
        </mxCell>
        <mxCell id="MTaTlPAsH2ekXYVE0kks-42" style="edgeStyle=orthogonalEdgeStyle;rounded=0;orthogonalLoop=1;jettySize=auto;html=1;exitX=1;exitY=0.5;exitDx=0;exitDy=0;entryX=0;entryY=0.5;entryDx=0;entryDy=0;" parent="1c1d494c118603dd-1" source="nV9DcU600kD149Q3BseJ-32" target="MTaTlPAsH2ekXYVE0kks-29" edge="1">
          <mxGeometry relative="1" as="geometry" />
        </mxCell>
        <mxCell id="MTaTlPAsH2ekXYVE0kks-44" style="edgeStyle=orthogonalEdgeStyle;rounded=0;orthogonalLoop=1;jettySize=auto;html=1;exitX=1;exitY=0.5;exitDx=0;exitDy=0;entryX=0;entryY=0.5;entryDx=0;entryDy=0;" parent="1c1d494c118603dd-1" source="MTaTlPAsH2ekXYVE0kks-29" target="MTaTlPAsH2ekXYVE0kks-43" edge="1">
          <mxGeometry relative="1" as="geometry" />
        </mxCell>
        <mxCell id="MTaTlPAsH2ekXYVE0kks-52" style="edgeStyle=orthogonalEdgeStyle;rounded=0;orthogonalLoop=1;jettySize=auto;html=1;exitX=1;exitY=0.5;exitDx=0;exitDy=0;entryX=0;entryY=0.5;entryDx=0;entryDy=0;" parent="1c1d494c118603dd-1" source="MTaTlPAsH2ekXYVE0kks-14" target="MTaTlPAsH2ekXYVE0kks-51" edge="1">
          <mxGeometry relative="1" as="geometry" />
        </mxCell>
        <mxCell id="MTaTlPAsH2ekXYVE0kks-56" style="edgeStyle=orthogonalEdgeStyle;rounded=0;orthogonalLoop=1;jettySize=auto;html=1;exitX=1;exitY=0.5;exitDx=0;exitDy=0;entryX=0;entryY=0.5;entryDx=0;entryDy=0;" parent="1c1d494c118603dd-1" source="MTaTlPAsH2ekXYVE0kks-51" target="MTaTlPAsH2ekXYVE0kks-55" edge="1">
          <mxGeometry relative="1" as="geometry">
            <Array as="points">
              <mxPoint x="650" y="693" />
              <mxPoint x="650" y="930" />
            </Array>
          </mxGeometry>
        </mxCell>
        <mxCell id="MTaTlPAsH2ekXYVE0kks-66" style="edgeStyle=orthogonalEdgeStyle;rounded=0;orthogonalLoop=1;jettySize=auto;html=1;exitX=1;exitY=0.5;exitDx=0;exitDy=0;entryX=0;entryY=0.5;entryDx=0;entryDy=0;" parent="1c1d494c118603dd-1" source="nV9DcU600kD149Q3BseJ-46" target="MTaTlPAsH2ekXYVE0kks-65" edge="1">
          <mxGeometry relative="1" as="geometry" />
        </mxCell>
        <mxCell id="1c1d494c118603dd-3" value="receiver" style="swimlane;html=1;startSize=20;" parent="1c1d494c118603dd-1" vertex="1">
          <mxGeometry x="380" y="20" width="300" height="1300" as="geometry" />
        </mxCell>
        <mxCell id="nV9DcU600kD149Q3BseJ-15" style="edgeStyle=orthogonalEdgeStyle;rounded=0;orthogonalLoop=1;jettySize=auto;html=1;entryX=0.5;entryY=0;entryDx=0;entryDy=0;" parent="1c1d494c118603dd-3" source="nV9DcU600kD149Q3BseJ-13" target="nV9DcU600kD149Q3BseJ-14" edge="1">
          <mxGeometry relative="1" as="geometry" />
        </mxCell>
        <mxCell id="nV9DcU600kD149Q3BseJ-13" value="" style="ellipse;whiteSpace=wrap;html=1;rounded=0;shadow=0;comic=0;labelBackgroundColor=none;strokeWidth=1;fillColor=#000000;fontFamily=Verdana;fontSize=12;align=center;" parent="1c1d494c118603dd-3" vertex="1">
          <mxGeometry x="115" y="30" width="40" height="40" as="geometry" />
        </mxCell>
        <mxCell id="nV9DcU600kD149Q3BseJ-18" style="edgeStyle=orthogonalEdgeStyle;rounded=0;orthogonalLoop=1;jettySize=auto;html=1;exitX=0.5;exitY=1;exitDx=0;exitDy=0;entryX=0.5;entryY=0;entryDx=0;entryDy=0;" parent="1c1d494c118603dd-3" source="nV9DcU600kD149Q3BseJ-14" target="nV9DcU600kD149Q3BseJ-17" edge="1">
          <mxGeometry relative="1" as="geometry" />
        </mxCell>
        <mxCell id="nV9DcU600kD149Q3BseJ-26" style="edgeStyle=orthogonalEdgeStyle;rounded=0;orthogonalLoop=1;jettySize=auto;html=1;exitX=0.5;exitY=1;exitDx=0;exitDy=0;entryX=0.5;entryY=0;entryDx=0;entryDy=0;" parent="1c1d494c118603dd-3" source="nV9DcU600kD149Q3BseJ-14" target="nV9DcU600kD149Q3BseJ-25" edge="1">
          <mxGeometry relative="1" as="geometry" />
        </mxCell>
        <mxCell id="nV9DcU600kD149Q3BseJ-14" value="init pinMode, comm" style="rounded=1;whiteSpace=wrap;html=1;shadow=0;comic=0;labelBackgroundColor=none;strokeWidth=1;fontFamily=Verdana;fontSize=12;align=center;arcSize=50;" parent="1c1d494c118603dd-3" vertex="1">
          <mxGeometry x="85" y="100" width="100" height="40" as="geometry" />
        </mxCell>
        <mxCell id="nV9DcU600kD149Q3BseJ-17" value="connect nrf" style="rounded=1;whiteSpace=wrap;html=1;shadow=0;comic=0;labelBackgroundColor=none;strokeWidth=1;fontFamily=Verdana;fontSize=12;align=center;arcSize=50;" parent="1c1d494c118603dd-3" vertex="1">
          <mxGeometry x="160" y="200" width="100" height="40" as="geometry" />
        </mxCell>
        <mxCell id="nV9DcU600kD149Q3BseJ-25" value="advertise, connect BLE" style="rounded=1;whiteSpace=wrap;html=1;shadow=0;comic=0;labelBackgroundColor=none;strokeWidth=1;fontFamily=Verdana;fontSize=12;align=center;arcSize=50;" parent="1c1d494c118603dd-3" vertex="1">
          <mxGeometry x="20" y="200" width="100" height="40" as="geometry" />
        </mxCell>
        <mxCell id="Q7vWkB4qhorTp54sprEH-11" value="disconnect BLE" style="rounded=1;whiteSpace=wrap;html=1;shadow=0;comic=0;labelBackgroundColor=none;strokeWidth=1;fontFamily=Verdana;fontSize=12;align=center;arcSize=50;" parent="1c1d494c118603dd-3" vertex="1">
          <mxGeometry x="50" y="965" width="110" height="30" as="geometry" />
        </mxCell>
        <mxCell id="Q7vWkB4qhorTp54sprEH-18" value="connect BLE" style="rounded=1;whiteSpace=wrap;html=1;shadow=0;comic=0;labelBackgroundColor=none;strokeWidth=1;fontFamily=Verdana;fontSize=12;align=center;arcSize=50;" parent="1c1d494c118603dd-3" vertex="1">
          <mxGeometry x="50" y="1035" width="110" height="30" as="geometry" />
        </mxCell>
        <mxCell id="Q7vWkB4qhorTp54sprEH-22" value="get basic status" style="rounded=1;whiteSpace=wrap;html=1;shadow=0;comic=0;labelBackgroundColor=none;strokeWidth=1;fontFamily=Verdana;fontSize=12;align=center;arcSize=50;" parent="1c1d494c118603dd-3" vertex="1">
          <mxGeometry x="90" y="290" width="110" height="40" as="geometry" />
        </mxCell>
        <mxCell id="MTaTlPAsH2ekXYVE0kks-2" value="disconnect BLE" style="rounded=1;whiteSpace=wrap;html=1;shadow=0;comic=0;labelBackgroundColor=none;strokeWidth=1;fontFamily=Verdana;fontSize=12;align=center;arcSize=50;" parent="1c1d494c118603dd-3" vertex="1">
          <mxGeometry x="51" y="1105" width="110" height="30" as="geometry" />
        </mxCell>
        <mxCell id="MTaTlPAsH2ekXYVE0kks-6" value="send drive command" style="rounded=1;whiteSpace=wrap;html=1;shadow=0;comic=0;labelBackgroundColor=none;strokeWidth=1;fontFamily=Verdana;fontSize=12;align=center;arcSize=50;" parent="1c1d494c118603dd-3" vertex="1">
          <mxGeometry x="95" y="385" width="100" height="40" as="geometry" />
        </mxCell>
        <mxCell id="MTaTlPAsH2ekXYVE0kks-16" value="" style="shape=mxgraph.bpmn.shape;html=1;verticalLabelPosition=bottom;labelBackgroundColor=#ffffff;verticalAlign=top;perimeter=ellipsePerimeter;outline=end;symbol=terminate;rounded=0;shadow=0;comic=0;strokeWidth=1;fontFamily=Verdana;fontSize=12;align=center;" parent="1c1d494c118603dd-3" vertex="1">
          <mxGeometry x="80" y="1165" width="40" height="40" as="geometry" />
        </mxCell>
        <mxCell id="MTaTlPAsH2ekXYVE0kks-17" value="send recharge command" style="rounded=1;whiteSpace=wrap;html=1;shadow=0;comic=0;labelBackgroundColor=none;strokeWidth=1;fontFamily=Verdana;fontSize=12;align=center;arcSize=50;" parent="1c1d494c118603dd-3" vertex="1">
          <mxGeometry x="95" y="465" width="100" height="40" as="geometry" />
        </mxCell>
        <mxCell id="MTaTlPAsH2ekXYVE0kks-29" value="send full reload command" style="rounded=1;whiteSpace=wrap;html=1;shadow=0;comic=0;labelBackgroundColor=none;strokeWidth=1;fontFamily=Verdana;fontSize=12;align=center;arcSize=50;" parent="1c1d494c118603dd-3" vertex="1">
          <mxGeometry x="90" y="550" width="110" height="40" as="geometry" />
        </mxCell>
        <mxCell id="MTaTlPAsH2ekXYVE0kks-51" value="send fire&amp;nbsp;&lt;br&gt;command" style="rounded=1;whiteSpace=wrap;html=1;shadow=0;comic=0;labelBackgroundColor=none;strokeWidth=1;fontFamily=Verdana;fontSize=12;align=center;arcSize=50;" parent="1c1d494c118603dd-3" vertex="1">
          <mxGeometry x="87.5" y="655" width="110" height="35" as="geometry" />
        </mxCell>
        <mxCell id="MTaTlPAsH2ekXYVE0kks-65" value="send rotate&lt;br&gt;&amp;nbsp;step motor command" style="rounded=1;whiteSpace=wrap;html=1;shadow=0;comic=0;labelBackgroundColor=none;strokeWidth=1;fontFamily=Verdana;fontSize=12;align=center;arcSize=50;" parent="1c1d494c118603dd-3" vertex="1">
          <mxGeometry x="67.5" y="775" width="150" height="40" as="geometry" />
        </mxCell>
        <mxCell id="MTaTlPAsH2ekXYVE0kks-76" value="send rotate&lt;br&gt;&amp;nbsp;barrel servo command" style="rounded=1;whiteSpace=wrap;html=1;shadow=0;comic=0;labelBackgroundColor=none;strokeWidth=1;fontFamily=Verdana;fontSize=12;align=center;arcSize=50;" parent="1c1d494c118603dd-3" vertex="1">
          <mxGeometry x="67.5" y="845" width="150" height="40" as="geometry" />
        </mxCell>
        <mxCell id="MTaTlPAsH2ekXYVE0kks-69" style="edgeStyle=orthogonalEdgeStyle;rounded=0;orthogonalLoop=1;jettySize=auto;html=1;exitX=1;exitY=0.5;exitDx=0;exitDy=0;entryX=0;entryY=0.5;entryDx=0;entryDy=0;" parent="1c1d494c118603dd-1" source="MTaTlPAsH2ekXYVE0kks-65" target="MTaTlPAsH2ekXYVE0kks-67" edge="1">
          <mxGeometry relative="1" as="geometry">
            <Array as="points">
              <mxPoint x="670" y="815" />
              <mxPoint x="670" y="793" />
            </Array>
          </mxGeometry>
        </mxCell>
        <mxCell id="MTaTlPAsH2ekXYVE0kks-77" style="edgeStyle=orthogonalEdgeStyle;rounded=0;orthogonalLoop=1;jettySize=auto;html=1;exitX=1;exitY=0.5;exitDx=0;exitDy=0;entryX=0;entryY=0.5;entryDx=0;entryDy=0;" parent="1c1d494c118603dd-1" source="MTaTlPAsH2ekXYVE0kks-74" target="MTaTlPAsH2ekXYVE0kks-76" edge="1">
          <mxGeometry relative="1" as="geometry" />
        </mxCell>
        <mxCell id="MTaTlPAsH2ekXYVE0kks-79" style="edgeStyle=orthogonalEdgeStyle;rounded=0;orthogonalLoop=1;jettySize=auto;html=1;exitX=1;exitY=0.5;exitDx=0;exitDy=0;entryX=0;entryY=0.5;entryDx=0;entryDy=0;" parent="1c1d494c118603dd-1" source="MTaTlPAsH2ekXYVE0kks-76" target="MTaTlPAsH2ekXYVE0kks-78" edge="1">
          <mxGeometry relative="1" as="geometry">
            <Array as="points">
              <mxPoint x="620" y="885" />
              <mxPoint x="620" y="1005" />
            </Array>
          </mxGeometry>
        </mxCell>
        <mxCell id="1c1d494c118603dd-4" value="main car" style="swimlane;html=1;startSize=20;" parent="1c1d494c118603dd-1" vertex="1">
          <mxGeometry x="680" y="20" width="460" height="1300" as="geometry" />
        </mxCell>
        <mxCell id="1c1d494c118603dd-27" style="edgeStyle=orthogonalEdgeStyle;rounded=0;html=1;labelBackgroundColor=none;startArrow=none;startFill=0;startSize=5;endArrow=classicThin;endFill=1;endSize=5;jettySize=auto;orthogonalLoop=1;strokeWidth=1;fontFamily=Verdana;fontSize=12;entryX=0.5;entryY=0;entryDx=0;entryDy=0;" parent="1c1d494c118603dd-4" source="60571a20871a0731-4" target="nV9DcU600kD149Q3BseJ-5" edge="1">
          <mxGeometry relative="1" as="geometry" />
        </mxCell>
        <mxCell id="60571a20871a0731-4" value="" style="ellipse;whiteSpace=wrap;html=1;rounded=0;shadow=0;comic=0;labelBackgroundColor=none;strokeWidth=1;fillColor=#000000;fontFamily=Verdana;fontSize=12;align=center;" parent="1c1d494c118603dd-4" vertex="1">
          <mxGeometry x="210" y="30" width="40" height="40" as="geometry" />
        </mxCell>
        <mxCell id="60571a20871a0731-5" value="" style="shape=mxgraph.bpmn.shape;html=1;verticalLabelPosition=bottom;labelBackgroundColor=#ffffff;verticalAlign=top;perimeter=ellipsePerimeter;outline=end;symbol=terminate;rounded=0;shadow=0;comic=0;strokeWidth=1;fontFamily=Verdana;fontSize=12;align=center;" parent="1c1d494c118603dd-4" vertex="1">
          <mxGeometry x="70" y="1145" width="40" height="40" as="geometry" />
        </mxCell>
        <mxCell id="nV9DcU600kD149Q3BseJ-3" value="connect nrf" style="rounded=1;whiteSpace=wrap;html=1;shadow=0;comic=0;labelBackgroundColor=none;strokeWidth=1;fontFamily=Verdana;fontSize=12;align=center;arcSize=50;" parent="1c1d494c118603dd-4" vertex="1">
          <mxGeometry x="80" y="200" width="100" height="40" as="geometry" />
        </mxCell>
        <mxCell id="nV9DcU600kD149Q3BseJ-12" style="edgeStyle=orthogonalEdgeStyle;rounded=0;orthogonalLoop=1;jettySize=auto;html=1;exitX=0.5;exitY=1;exitDx=0;exitDy=0;entryX=0.5;entryY=0;entryDx=0;entryDy=0;" parent="1c1d494c118603dd-4" source="nV9DcU600kD149Q3BseJ-5" target="nV9DcU600kD149Q3BseJ-3" edge="1">
          <mxGeometry relative="1" as="geometry" />
        </mxCell>
        <mxCell id="MTaTlPAsH2ekXYVE0kks-13" style="edgeStyle=orthogonalEdgeStyle;rounded=0;orthogonalLoop=1;jettySize=auto;html=1;exitX=0.5;exitY=1;exitDx=0;exitDy=0;entryX=0.5;entryY=0;entryDx=0;entryDy=0;" parent="1c1d494c118603dd-4" source="nV9DcU600kD149Q3BseJ-5" target="MTaTlPAsH2ekXYVE0kks-12" edge="1">
          <mxGeometry relative="1" as="geometry" />
        </mxCell>
        <mxCell id="nV9DcU600kD149Q3BseJ-5" value="init pinMode, comm" style="rounded=1;whiteSpace=wrap;html=1;shadow=0;comic=0;labelBackgroundColor=none;strokeWidth=1;fontFamily=Verdana;fontSize=12;align=center;arcSize=50;" parent="1c1d494c118603dd-4" vertex="1">
          <mxGeometry x="165" y="105" width="130" height="40" as="geometry" />
        </mxCell>
        <mxCell id="Q7vWkB4qhorTp54sprEH-23" value="send basic status" style="rounded=1;whiteSpace=wrap;html=1;shadow=0;comic=0;labelBackgroundColor=none;strokeWidth=1;fontFamily=Verdana;fontSize=12;align=center;arcSize=50;" parent="1c1d494c118603dd-4" vertex="1">
          <mxGeometry x="50" y="290" width="100" height="40" as="geometry" />
        </mxCell>
        <mxCell id="MTaTlPAsH2ekXYVE0kks-11" style="edgeStyle=orthogonalEdgeStyle;rounded=0;orthogonalLoop=1;jettySize=auto;html=1;exitX=1;exitY=0.5;exitDx=0;exitDy=0;entryX=0;entryY=0.5;entryDx=0;entryDy=0;" parent="1c1d494c118603dd-4" source="MTaTlPAsH2ekXYVE0kks-7" target="MTaTlPAsH2ekXYVE0kks-8" edge="1">
          <mxGeometry relative="1" as="geometry" />
        </mxCell>
        <mxCell id="MTaTlPAsH2ekXYVE0kks-7" value="get drive command" style="rounded=1;whiteSpace=wrap;html=1;shadow=0;comic=0;labelBackgroundColor=none;strokeWidth=1;fontFamily=Verdana;fontSize=12;align=center;arcSize=50;" parent="1c1d494c118603dd-4" vertex="1">
          <mxGeometry x="50" y="385" width="100" height="40" as="geometry" />
        </mxCell>
        <mxCell id="MTaTlPAsH2ekXYVE0kks-8" value="conduct drive command" style="rounded=1;whiteSpace=wrap;html=1;shadow=0;comic=0;labelBackgroundColor=none;strokeWidth=1;fontFamily=Verdana;fontSize=12;align=center;arcSize=50;" parent="1c1d494c118603dd-4" vertex="1">
          <mxGeometry x="210" y="385" width="100" height="40" as="geometry" />
        </mxCell>
        <mxCell id="MTaTlPAsH2ekXYVE0kks-26" style="edgeStyle=orthogonalEdgeStyle;rounded=0;orthogonalLoop=1;jettySize=auto;html=1;exitX=0.5;exitY=1;exitDx=0;exitDy=0;entryX=0.5;entryY=0;entryDx=0;entryDy=0;" parent="1c1d494c118603dd-4" source="MTaTlPAsH2ekXYVE0kks-12" target="MTaTlPAsH2ekXYVE0kks-25" edge="1">
          <mxGeometry relative="1" as="geometry" />
        </mxCell>
        <mxCell id="MTaTlPAsH2ekXYVE0kks-12" value="reload&lt;br&gt;(no rotate step motor)" style="rounded=1;whiteSpace=wrap;html=1;shadow=0;comic=0;labelBackgroundColor=none;strokeWidth=1;fontFamily=Verdana;fontSize=12;align=center;arcSize=50;" parent="1c1d494c118603dd-4" vertex="1">
          <mxGeometry x="180" y="250" width="160" height="40" as="geometry" />
        </mxCell>
        <mxCell id="MTaTlPAsH2ekXYVE0kks-22" style="edgeStyle=orthogonalEdgeStyle;rounded=0;orthogonalLoop=1;jettySize=auto;html=1;exitX=1;exitY=0.5;exitDx=0;exitDy=0;entryX=0;entryY=0.5;entryDx=0;entryDy=0;" parent="1c1d494c118603dd-4" source="MTaTlPAsH2ekXYVE0kks-19" target="MTaTlPAsH2ekXYVE0kks-21" edge="1">
          <mxGeometry relative="1" as="geometry" />
        </mxCell>
        <mxCell id="MTaTlPAsH2ekXYVE0kks-19" value="get recharge command" style="rounded=1;whiteSpace=wrap;html=1;shadow=0;comic=0;labelBackgroundColor=none;strokeWidth=1;fontFamily=Verdana;fontSize=12;align=center;arcSize=50;" parent="1c1d494c118603dd-4" vertex="1">
          <mxGeometry x="50" y="465" width="100" height="40" as="geometry" />
        </mxCell>
        <mxCell id="MTaTlPAsH2ekXYVE0kks-28" style="edgeStyle=orthogonalEdgeStyle;rounded=0;orthogonalLoop=1;jettySize=auto;html=1;exitX=0.5;exitY=1;exitDx=0;exitDy=0;entryX=0.5;entryY=0;entryDx=0;entryDy=0;" parent="1c1d494c118603dd-4" source="MTaTlPAsH2ekXYVE0kks-21" target="MTaTlPAsH2ekXYVE0kks-27" edge="1">
          <mxGeometry relative="1" as="geometry" />
        </mxCell>
        <mxCell id="MTaTlPAsH2ekXYVE0kks-21" value="recharge" style="rounded=1;whiteSpace=wrap;html=1;shadow=0;comic=0;labelBackgroundColor=none;strokeWidth=1;fontFamily=Verdana;fontSize=12;align=center;arcSize=50;" parent="1c1d494c118603dd-4" vertex="1">
          <mxGeometry x="215" y="468.75" width="90" height="32.5" as="geometry" />
        </mxCell>
        <mxCell id="MTaTlPAsH2ekXYVE0kks-25" value="set isReload = true" style="rounded=1;whiteSpace=wrap;html=1;shadow=0;comic=0;labelBackgroundColor=none;strokeWidth=1;fontFamily=Verdana;fontSize=12;align=center;arcSize=50;" parent="1c1d494c118603dd-4" vertex="1">
          <mxGeometry x="196.25" y="330" width="127.5" height="35" as="geometry" />
        </mxCell>
        <mxCell id="MTaTlPAsH2ekXYVE0kks-27" value="set isRecharge = true" style="rounded=1;whiteSpace=wrap;html=1;shadow=0;comic=0;labelBackgroundColor=none;strokeWidth=1;fontFamily=Verdana;fontSize=12;align=center;arcSize=50;" parent="1c1d494c118603dd-4" vertex="1">
          <mxGeometry x="188.13" y="527.5" width="143.75" height="35" as="geometry" />
        </mxCell>
        <mxCell id="MTaTlPAsH2ekXYVE0kks-34" style="edgeStyle=orthogonalEdgeStyle;rounded=0;orthogonalLoop=1;jettySize=auto;html=1;exitX=0.5;exitY=1;exitDx=0;exitDy=0;entryX=0.5;entryY=0;entryDx=0;entryDy=0;" parent="1c1d494c118603dd-4" source="MTaTlPAsH2ekXYVE0kks-31" target="MTaTlPAsH2ekXYVE0kks-33" edge="1">
          <mxGeometry relative="1" as="geometry" />
        </mxCell>
        <mxCell id="MTaTlPAsH2ekXYVE0kks-71" style="edgeStyle=orthogonalEdgeStyle;rounded=0;orthogonalLoop=1;jettySize=auto;html=1;exitX=1;exitY=0.5;exitDx=0;exitDy=0;entryX=0.5;entryY=0;entryDx=0;entryDy=0;" parent="1c1d494c118603dd-4" source="MTaTlPAsH2ekXYVE0kks-31" target="MTaTlPAsH2ekXYVE0kks-70" edge="1">
          <mxGeometry relative="1" as="geometry" />
        </mxCell>
        <mxCell id="MTaTlPAsH2ekXYVE0kks-31" value="loop" style="shape=process;whiteSpace=wrap;html=1;backgroundOutline=1;" parent="1c1d494c118603dd-4" vertex="1">
          <mxGeometry x="221.88" y="710" width="90" height="35" as="geometry" />
        </mxCell>
        <mxCell id="MTaTlPAsH2ekXYVE0kks-36" style="edgeStyle=orthogonalEdgeStyle;rounded=0;orthogonalLoop=1;jettySize=auto;html=1;exitX=0;exitY=0.5;exitDx=0;exitDy=0;entryX=1;entryY=0.5;entryDx=0;entryDy=0;" parent="1c1d494c118603dd-4" source="MTaTlPAsH2ekXYVE0kks-33" target="MTaTlPAsH2ekXYVE0kks-35" edge="1">
          <mxGeometry relative="1" as="geometry" />
        </mxCell>
        <mxCell id="MTaTlPAsH2ekXYVE0kks-33" value="isReload &amp;amp;&amp;amp; isRecharge" style="rhombus;whiteSpace=wrap;html=1;" parent="1c1d494c118603dd-4" vertex="1">
          <mxGeometry x="201.88" y="785" width="130" height="75" as="geometry" />
        </mxCell>
        <mxCell id="MTaTlPAsH2ekXYVE0kks-35" value="enable fire" style="rounded=1;whiteSpace=wrap;html=1;shadow=0;comic=0;labelBackgroundColor=none;strokeWidth=1;fontFamily=Verdana;fontSize=12;align=center;arcSize=50;" parent="1c1d494c118603dd-4" vertex="1">
          <mxGeometry x="50" y="806.25" width="105" height="32.5" as="geometry" />
        </mxCell>
        <mxCell id="MTaTlPAsH2ekXYVE0kks-47" style="edgeStyle=orthogonalEdgeStyle;rounded=0;orthogonalLoop=1;jettySize=auto;html=1;exitX=0.5;exitY=1;exitDx=0;exitDy=0;entryX=0;entryY=0.5;entryDx=0;entryDy=0;" parent="1c1d494c118603dd-4" source="MTaTlPAsH2ekXYVE0kks-43" target="MTaTlPAsH2ekXYVE0kks-45" edge="1">
          <mxGeometry relative="1" as="geometry" />
        </mxCell>
        <mxCell id="MTaTlPAsH2ekXYVE0kks-50" style="edgeStyle=orthogonalEdgeStyle;rounded=0;orthogonalLoop=1;jettySize=auto;html=1;exitX=0.5;exitY=1;exitDx=0;exitDy=0;entryX=0.5;entryY=0;entryDx=0;entryDy=0;" parent="1c1d494c118603dd-4" source="MTaTlPAsH2ekXYVE0kks-43" target="MTaTlPAsH2ekXYVE0kks-49" edge="1">
          <mxGeometry relative="1" as="geometry" />
        </mxCell>
        <mxCell id="MTaTlPAsH2ekXYVE0kks-43" value="get full reload command" style="rounded=1;whiteSpace=wrap;html=1;shadow=0;comic=0;labelBackgroundColor=none;strokeWidth=1;fontFamily=Verdana;fontSize=12;align=center;arcSize=50;" parent="1c1d494c118603dd-4" vertex="1">
          <mxGeometry x="47.5" y="550" width="110" height="40" as="geometry" />
        </mxCell>
        <mxCell id="ptp6P-C34r61iFnQYceI-1" style="edgeStyle=orthogonalEdgeStyle;rounded=0;orthogonalLoop=1;jettySize=auto;html=1;exitX=1;exitY=0.5;exitDx=0;exitDy=0;entryX=0;entryY=0.5;entryDx=0;entryDy=0;" parent="1c1d494c118603dd-4" source="MTaTlPAsH2ekXYVE0kks-45" target="MTaTlPAsH2ekXYVE0kks-46" edge="1">
          <mxGeometry relative="1" as="geometry" />
        </mxCell>
        <mxCell id="MTaTlPAsH2ekXYVE0kks-45" value="rotate step motor" style="rounded=1;whiteSpace=wrap;html=1;shadow=0;comic=0;labelBackgroundColor=none;strokeWidth=1;fontFamily=Verdana;fontSize=12;align=center;arcSize=50;" parent="1c1d494c118603dd-4" vertex="1">
          <mxGeometry x="215" y="605" width="90" height="32.5" as="geometry" />
        </mxCell>
        <mxCell id="MTaTlPAsH2ekXYVE0kks-46" value="reload" style="rounded=1;whiteSpace=wrap;html=1;shadow=0;comic=0;labelBackgroundColor=none;strokeWidth=1;fontFamily=Verdana;fontSize=12;align=center;arcSize=50;" parent="1c1d494c118603dd-4" vertex="1">
          <mxGeometry x="345" y="608.75" width="90" height="25" as="geometry" />
        </mxCell>
        <mxCell id="MTaTlPAsH2ekXYVE0kks-49" value="set isReload = true" style="rounded=1;whiteSpace=wrap;html=1;shadow=0;comic=0;labelBackgroundColor=none;strokeWidth=1;fontFamily=Verdana;fontSize=12;align=center;arcSize=50;" parent="1c1d494c118603dd-4" vertex="1">
          <mxGeometry x="38.75" y="695" width="127.5" height="35" as="geometry" />
        </mxCell>
        <mxCell id="MTaTlPAsH2ekXYVE0kks-59" style="edgeStyle=orthogonalEdgeStyle;rounded=0;orthogonalLoop=1;jettySize=auto;html=1;exitX=1;exitY=0.5;exitDx=0;exitDy=0;" parent="1c1d494c118603dd-4" source="MTaTlPAsH2ekXYVE0kks-55" target="DWMROH0w0FjrD2oMUWbq-1" edge="1">
          <mxGeometry relative="1" as="geometry" />
        </mxCell>
        <mxCell id="MTaTlPAsH2ekXYVE0kks-55" value="get fire&amp;nbsp;&lt;br&gt;command" style="rounded=1;whiteSpace=wrap;html=1;shadow=0;comic=0;labelBackgroundColor=none;strokeWidth=1;fontFamily=Verdana;fontSize=12;align=center;arcSize=50;" parent="1c1d494c118603dd-4" vertex="1">
          <mxGeometry x="47.5" y="892.5" width="110" height="35" as="geometry" />
        </mxCell>
        <mxCell id="MTaTlPAsH2ekXYVE0kks-61" value="" style="edgeStyle=orthogonalEdgeStyle;rounded=0;orthogonalLoop=1;jettySize=auto;html=1;" parent="1c1d494c118603dd-4" source="MTaTlPAsH2ekXYVE0kks-58" target="MTaTlPAsH2ekXYVE0kks-60" edge="1">
          <mxGeometry relative="1" as="geometry" />
        </mxCell>
        <mxCell id="MTaTlPAsH2ekXYVE0kks-58" value="stop drive, recharge command" style="rounded=1;whiteSpace=wrap;html=1;shadow=0;comic=0;labelBackgroundColor=none;strokeWidth=1;fontFamily=Verdana;fontSize=12;align=center;arcSize=50;" parent="1c1d494c118603dd-4" vertex="1">
          <mxGeometry x="210" y="985" width="140" height="35" as="geometry" />
        </mxCell>
        <mxCell id="MTaTlPAsH2ekXYVE0kks-63" value="" style="edgeStyle=orthogonalEdgeStyle;rounded=0;orthogonalLoop=1;jettySize=auto;html=1;" parent="1c1d494c118603dd-4" source="MTaTlPAsH2ekXYVE0kks-60" target="MTaTlPAsH2ekXYVE0kks-62" edge="1">
          <mxGeometry relative="1" as="geometry" />
        </mxCell>
        <mxCell id="MTaTlPAsH2ekXYVE0kks-60" value="fire" style="rounded=1;whiteSpace=wrap;html=1;shadow=0;comic=0;labelBackgroundColor=none;strokeWidth=1;fontFamily=Verdana;fontSize=12;align=center;arcSize=50;" parent="1c1d494c118603dd-4" vertex="1">
          <mxGeometry x="240.94" y="1055" width="78.12" height="35" as="geometry" />
        </mxCell>
        <mxCell id="MTaTlPAsH2ekXYVE0kks-62" value="set isRecharge, isReload = false" style="rounded=1;whiteSpace=wrap;html=1;shadow=0;comic=0;labelBackgroundColor=none;strokeWidth=1;fontFamily=Verdana;fontSize=12;align=center;arcSize=50;" parent="1c1d494c118603dd-4" vertex="1">
          <mxGeometry x="210" y="1125" width="140" height="45" as="geometry" />
        </mxCell>
        <mxCell id="MTaTlPAsH2ekXYVE0kks-67" value="rotate step motor" style="rounded=1;whiteSpace=wrap;html=1;shadow=0;comic=0;labelBackgroundColor=none;strokeWidth=1;fontFamily=Verdana;fontSize=12;align=center;arcSize=50;" parent="1c1d494c118603dd-4" vertex="1">
          <mxGeometry x="36.25" y="755" width="130" height="35" as="geometry" />
        </mxCell>
        <mxCell id="MTaTlPAsH2ekXYVE0kks-73" value="" style="edgeStyle=orthogonalEdgeStyle;rounded=0;orthogonalLoop=1;jettySize=auto;html=1;" parent="1c1d494c118603dd-4" source="MTaTlPAsH2ekXYVE0kks-70" target="MTaTlPAsH2ekXYVE0kks-72" edge="1">
          <mxGeometry relative="1" as="geometry" />
        </mxCell>
        <mxCell id="MTaTlPAsH2ekXYVE0kks-70" value="nrf disconnect" style="rounded=1;whiteSpace=wrap;html=1;shadow=0;comic=0;labelBackgroundColor=none;strokeWidth=1;fontFamily=Verdana;fontSize=12;align=center;arcSize=50;" parent="1c1d494c118603dd-4" vertex="1">
          <mxGeometry x="340" y="771.25" width="110" height="35" as="geometry" />
        </mxCell>
        <mxCell id="MTaTlPAsH2ekXYVE0kks-72" value="stop drive command" style="rounded=1;whiteSpace=wrap;html=1;shadow=0;comic=0;labelBackgroundColor=none;strokeWidth=1;fontFamily=Verdana;fontSize=12;align=center;arcSize=50;" parent="1c1d494c118603dd-4" vertex="1">
          <mxGeometry x="345" y="845" width="100" height="35" as="geometry" />
        </mxCell>
        <mxCell id="MTaTlPAsH2ekXYVE0kks-78" value="rotate&amp;nbsp;barrel servo" style="rounded=1;whiteSpace=wrap;html=1;shadow=0;comic=0;labelBackgroundColor=none;strokeWidth=1;fontFamily=Verdana;fontSize=12;align=center;arcSize=50;" parent="1c1d494c118603dd-4" vertex="1">
          <mxGeometry x="47.5" y="965" width="135" height="40" as="geometry" />
        </mxCell>
        <mxCell id="DWMROH0w0FjrD2oMUWbq-2" style="edgeStyle=orthogonalEdgeStyle;rounded=0;orthogonalLoop=1;jettySize=auto;html=1;exitX=0.5;exitY=1;exitDx=0;exitDy=0;entryX=0.5;entryY=0;entryDx=0;entryDy=0;" parent="1c1d494c118603dd-4" source="DWMROH0w0FjrD2oMUWbq-1" target="MTaTlPAsH2ekXYVE0kks-58" edge="1">
          <mxGeometry relative="1" as="geometry" />
        </mxCell>
        <mxCell id="DWMROH0w0FjrD2oMUWbq-1" value="fire is enable" style="rhombus;whiteSpace=wrap;html=1;" parent="1c1d494c118603dd-4" vertex="1">
          <mxGeometry x="215" y="875" width="130" height="70" as="geometry" />
        </mxCell>
      </root>
    </mxGraphModel>
  </diagram>
  <diagram id="dZIzmDfB0VqhtiLU7Prb" name="comm chart">
    <mxGraphModel dx="757" dy="566" grid="1" gridSize="10" guides="1" tooltips="1" connect="1" arrows="1" fold="1" page="1" pageScale="1" pageWidth="827" pageHeight="1169" background="none" math="0" shadow="0">
      <root>
        <mxCell id="0" />
        <mxCell id="1" parent="0" />
        <mxCell id="FPCLYELC2QN7BIS0ovdc-1" value="" style="verticalLabelPosition=bottom;html=1;verticalAlign=top;align=center;strokeColor=none;fillColor=#00BEF2;shape=mxgraph.azure.laptop;pointerEvents=1;" vertex="1" parent="1">
          <mxGeometry x="160" y="210" width="50" height="30" as="geometry" />
        </mxCell>
        <mxCell id="FPCLYELC2QN7BIS0ovdc-8" style="edgeStyle=orthogonalEdgeStyle;rounded=0;orthogonalLoop=1;jettySize=auto;html=1;exitX=0.5;exitY=0;exitDx=0;exitDy=0;exitPerimeter=0;entryX=0;entryY=0.5;entryDx=0;entryDy=0;" edge="1" parent="1" source="FPCLYELC2QN7BIS0ovdc-3" target="FPCLYELC2QN7BIS0ovdc-7">
          <mxGeometry relative="1" as="geometry" />
        </mxCell>
        <mxCell id="FPCLYELC2QN7BIS0ovdc-3" value="" style="verticalLabelPosition=bottom;html=1;verticalAlign=top;align=center;strokeColor=none;fillColor=#00BEF2;shape=mxgraph.azure.mobile;pointerEvents=1;" vertex="1" parent="1">
          <mxGeometry x="167.5" y="350" width="35" height="50" as="geometry" />
        </mxCell>
        <mxCell id="FPCLYELC2QN7BIS0ovdc-6" value="" style="shape=image;verticalLabelPosition=bottom;labelBackgroundColor=none;verticalAlign=top;aspect=fixed;imageAspect=0;image=data:image/png,iVBORw0KGgoAAAANSUhEUgAAAoAAAAHgCAYAAAA10dzkAAAACXBIWXMAAA7EAAAOxAGVKw4bAAAgAElEQVR4nOy9fXAjZ37f+X0eNEEAxFAghxpxqBnOSDsj6iayJEuyrFVkebxDr/fsPdsXv8ROzs75rpy73Esld77cVerqcpXKOU4qtZe7XDmp+OJL+eyNz3ZsrxN7vV6T6/FmLW/WWr2M5YlWGlEUh8PhcGZIEMQAYOPB89wfTzfYaDZeGmiQ3Q9+vyoUQIDoD4AGGl88z/f7/BgGqMXFyxxABoDlvV4pgDHYOztF++tff0sOg+GUvb29Y7/xxtvEMIyhFHKMgTvvJQDRv6+IQQxPRXm8ygHgATcTgxjEIEZsGEFf4j3Vc889w5VChjFYSh1+cBsbm/b16+8O9OCee+6ZjmKDGEYzOHD4S5oYxEgCI0hgEoMYxCBGXBhAsLLsWpcuLfDp6ak0Y1oIuA+OMf1r/fbt2wM/OJcBHAhMj9CM5AW4dOnJI2UE3EyMFsbBPve94QFE/74iBjEA2Bsb0R+vGPMfS4hBDGIQIx4Mt0KPAF669CSfm5tNK4W0e50j/KAUxM7Ojn39+jcGFhunT2uGZ9uu0BTb2zuRCJq5udk0oJ/HUTB8RYzQjMHfV8QgxrAZ3h/ExCAGMYgRJ4a3QgnA559/lk9NFdKAFma+EoyhNqj/y2W44s8t9wUABmc899wzrsJu+VI4CoZTxPBU0D73/PKRw3pfEYMYUTEQ/PmQiPDzQQxiEIMYgzDccvyFvQtAj/l/qKZHpdqbHpMUYiBG74xO+7xYHP77ihjE6JcBA4zgxCAGMcxnOBwLWkwC6FEAOoGPtJOea3mAjEVnelSq1aTtmZJNYoiBGL0zjDH/E2P0GEk2ghODGMQwnwEcjPopBc6YFoFdQyCO+d9iDBwA9wc+ojQ9MnZg0o5a/FHgI74MkwMGxDCbkWQjODGIQQzzGUBT/LkCUyoFLC1dlV1HAOfmZrnz4Jq/pocV+HC37xFoDoMCH6PHSJ75nxijx0iqEZwYxCDGyDA4DmZDJAAuhJBAlylgZ764ZakXp4YW+IjapE2Bj/gzkmz+J8boMZBwIzgxiEGMkWFwHOg8d3uyXC4D6CAAHfHnnyKW0IZEkSCTthFBiVFgJMn8T4zRY8AAIzgxiEGMkWEEiUusrKxiZWW1/QigZ76Ye35NS8YgNjY2xbACH04lMcRAjHgxjAkYECNejCQbwYlBDGKMDCPtYTRH/gBIV/wBAQrUEX+WK/5cYabF3+2BxV+nwAeLrIsIBT6SxEii+Z8Yo8dIshGcGMQgxsgwLA9DOgwJQC4tXW3ZfssX8tmzZ7xmQXjO5fb2jjiawEf0xkoKfMSdkTzzPzFGj5FwIzgxiEEM8xmWj+Eu+XJI/AE+AbiwcCFouxKASIJJmwIfo8cwLWBAjHgxYIYRnBjEIMZoMVqmfZeWroqg+3VKAUsAIkg1hi0KfBBjWAxTAgbEiBcD5hjBiUEMYowuQ7QTf4Dz5eyoR+/1bYcMwxYFPogxZIYxAQNixIthgBGcGMQgxmgyJACxsbHZcftBihGISPyZGPigUEkcGOYFDIgRL4YBRnBiEIMYo8lwxF/30G7zS9qjHiMSf2YGPihUkgRG8gIGxIgXI+FGcGIQgxijyZAIEdptCkB3A1GIP9MDHxQqOR6GaQEDYsSLAfOM4MQgBjFGi4EwjMOTKQOWa9JmrHVO2rkcpenRiBADMXpnHMX7ihijx4D5RnBiEIMYxDhUHXsBhy0KfBBjyAxjAgbEiBfDUCM4MYhBDGK0rXYhkNBFgY/+GAE3E6OFYV7AgBjxYhhqBCcGMYhBjI4VyQiga0ikwEd4hq+IEZqRvIABMeLFMNAITgxiEIMYXWtgAeg1JFLgoz+GU8TwlGkBA2LEl+EpU4zgxCAGMYjRtQYSgN3M/9Thgxj9MpQhHSWIkRxGHE3axCAGMYgxLEbfAtANfDB24JXzPrgEBgyIES+GMQEDYoweI0lGcGIQgxijxwD6DIF4Ax9A65x0dIGPBQp8jBzDvIABMeLPiLNJmxjEIAYxoma4FXoE0B/4AJrCL9LAh9tFxLNtCnyMPCN5AQNijB4jaUZwYhCDGKPD8FYoARgU+PCUGKZJmwIf5jJMDhgQYzQYSLARnBjEIMZoMNxy/IW9C0CP+X+opsdOJu0khRiI0TvjuM3/xCBGvwwYYAQnBjGIYT7D4VjQYhJAjwLQCXykmW7J1PIAGYvO9KgCuog4v9yTGGIgRu8MY8z/xBg9RpKN4MQgBjHMZwAHo35KgTOmRWDXEIhj/rcYAwfA/YGPKE2PLKCLCCjwYTzD5IABMcxmJNkITgxiEMN8BtAUf67AlEoBS0tXZdcRwLm5We48uOav6WEFPtztewSaw6DAx+gxkmf+J8boMZJqBCcGMYgxMgyOg9kQCYALISTQZQrYmS9uWerFqaEFPqI2aVPgI/6MJJv/iTF6DCTcCE4MYhBjZBgcBzrP3Z4sl8sAOghAR/z5p4gltCFRJMikbURQYhQYSTL/E2P0GDDACE4MYhBjZBhB4hIrK6tYWVltPwLomS/mnl/TkjGIjY1NMazAh1NJDDEQI14MYwIGxIgXI8lGcGIQgxgjw0h7GM2RPwDSFX9AgAJ1xJ/lij9XmGnxd3tg8dcp8MEi6yJCgY8kMZJo/ifG6DGSbAQnBjGIMTIMy8OQDkMCkEtLV1u23/KFfPbsGa9ZEJ5zub29I44m8BG9sZICH3FnJM/8T4zRYyTcCE4MYhDDfIblY7hLvhwSf4BPAC4sXAjargQgkmDSpsDH6DFMCxgQI14MmGEEJwYxiDFajJZp36WlqyLofp1SwBKACFKNYYsCH8QYFsOUgAEx4sWAOUZwYhCDGKPLEO3EH+B8OTvq0Xt92yHDsEWBD2IMmWFMwIAY8WIYYAQnBjGIMZoMCUBsbGx23H6QYgQiEn8mBj4oVBIHhnkBA2LEi2GAEZwYxCDGaDIc8dc9tNv8kvaox4jEn5mBDwqVJIGRvIABMeLFSLgRnBjEIMZoMiRChHabAtDdQBTiz/TAB4VKjodhWsCAGPFiwDwjODGIQYzRYiAM4/BkyoDlmrQZa52Tdi5HaXo0IsRAjN4ZR/G+IsboMWC+EZwYxCAGMQ5Vx17AYYsCH8QYMsOYgAEx4sUw1AhODGIQgxhtq10IJHRR4KM/RsDNxGhhmBcwIEa8GIYawYlBDGIQo2NFMgLoGhIp8BGe4StihGYkL2BAjHgxDDSCE4MYxCBG1xpYAHoNiRT46I/hFDE8ZVrAgBjxZXjKFCM4MYhBDGJ0rYEEYDfzP3X4IEa/DGVIRwliJIcRR5M2MYhBDGIMi9G3AHQDH4wdeOW8Dy6BAQNixIthTMCAGKPHSJIRnBjEIMboMYA+QyDewAfQOicdXeBjgQIfI8cwL2BAjPgz4mzSJgYxiEGMqBluhR4B9Ac+gKbwizTw4XYR8WybAh8jz0hewIAYo8dImhGcGMQgxugwvBVKAAYFPjwlhmnSpsCHuQyTAwbEGA0GEmwEJwYxiDEaDLccf2HvAtBj/h+q6bGTSTtJIQZi9M44bvM/MYjRLwMGGMGJQQximM9wOBa0mATQowB0Ah9pplsytTxAxqIzPaqALiLOL/ckhhiI0TvDGPM/MUaPkWQjODGIQQzzGcDBqJ9S4IxpEdg1BOKY/y3GwAFwf+AjStMjC+giAgp8GM8wOWBADLMZSTaCE4MYxDCfATTFnyswpVLA0tJV2XUEcG5uljsPrvlreliBD3f7HoHmMCjwMXqM5Jn/iTF6jKQawYlBDGKMDIPjYDZEAuBCCAl0mQJ25otblnpxamiBj6hN2hT4iD8jyeZ/YoweAwk3ghODGMQYGQbHgc5ztyfL5TKADgLQEX/+KWIJbUgUCTJpGxGUGAVGksz/xBg9BgwwghODGMQYGUaQuMTKyipWVlbbjwB65ou559e0ZAxiY2NTDCvw4VQSQwzEiBfDmIABMeLFSLIRnBjEIMbIMNIeRnPkD4B0xR8QoEAd8We54s8VZlr83R5Y/HUKfLDIuohQ4CNJjCSa/4kxeowkG8GJQQxijAzD8jCkw5AA5NLS1Zbtt3whnz17xmsWhOdcbm/viKMJfERvrKTAR9wZyTP/E2P0GAk3ghODGMQwn2H5GO6SL4fEH+ATgAsLF4K2KwGIJJi0KfAxegzTAgbEiBcDZhjBiUEMYowWo2Xad2npqgi6X6cUsAQgglRj2KLABzGGxTAlYECMeDFgjhGcGMQgxugyRDvxBzhfzo569F7fdsgwbFHggxhDZhgTMCBGvBgGGMGJQQxijCZDAhAbG5sdtx+kGIGIxJ+JgQ8KlcSBYV7AgBjxYhhgBCcGMYgxmgxH/HUP7Ta/pD3qMSLxZ2bgg0IlSWAkL2BAjHgxEm4EJwYxiDGaDIkQod2mAHQ3EIX4Mz3wQaGS42GYFjAgRrwYMM8ITgxiEGO0GAjDODyZMmC5Jm3GWueknctRmh6NCDEQo3fGUbyviDF6DJhvBCcGMYhBjEPVsRdw2KLABzGGzDAmYECMeDEMNYITgxjEIEbbahcCCV0U+OiPEXAzMVoY5gUMiBEvhqFGcGIQgxjE6FiRjAC6hkQKfIRn+IoYoRnJCxgQI14MA43gxCAGMYjRtQYWgF5DIgU++mM4RQxPmRYwIEZ8GZ4yxQhODGIQgxhdayAB2M38Tx0+iNEvQxnSUYIYyWHE0aRNDGIQgxjDYvQtAN3AB2MHXjnvg0tgwIAY8WIYEzAgxugxkmQEJwYxiDF6DKDPEIg38AG0zklHF/hYoMDHyDHMCxgQI/6MOJu0iUEMYhAjaoZboUcA/YEPoCn8Ig18uF1EPNumwMfIM5IXMCDG6DGSZgQnBjGIMToMb4USgEGBD0+JYZq0KfBhLsPkgAExRoOBBBvBiUEMYowGwy3HX9i7APSY/4/E9OgVf85BO8qAQQae4dVhMGBIGOOIGIf2uXM5yiARMYgROcMNlQQdS6LshkIMYhCDGIMwAODKlcsWY5AuoycB+Pzzz3JoVcpxWAA6c9KDDUs6jLYvQFQM5Wst5c6tR82A54vHO3+vPU3EcBnokHKK+n1FDGJEzWDscKgkymMJMYhBDGJEMe27uHjZ1XucMUighxDIpUtP8qmpggWP+DtsSBx03nvBHfpsvgCtwmwzkrn1qalC2i/+GBsOwz/qwBjs27eJ4WdgiF/S/vcVMYgRNSM4PEYMYhCDGPFgAAdTvs62pVLA0tJV2XUEcG5ulkOPFDYPqI4okDs7xUhegLm50y3z3p4RQIcxeKomqFOJ6wUqFofDcIsY7Rne7Ts1tPcVMYgRNcN9/w7zmEgMYhCDGAMwmoN3zsgfF0JIoMsU8OLiZUupwKUTBIDaoHPS7UyP7gsAoDIoww0xtDGCC8YGfx7eoETQa0WMnhmR7PMezLTEIEbfjA6hEmIQgxjEiBPDUqo5k+d6/2S5XAbQQQBeuXLZCrhdQgc+RBJWufYGPoIZiQpKGM9IyurpxBhNhhqBbijEIAYxjGEE/RjGysoqVlZW248AOgdU/4OTAMTGxm0xrMCHUxT4GCGGczlx5n9ijB4j6UZwYhCDGCPDSHsY7vYkY5Cu+AMCDpqO+LOUOnRbJOKvU+ADkRkrKfCRFAYSav4nxugxkmwEJwYxiDEyDAsH3c2kew5ALi1dbdl+ywjg2bOPes2C8JzLnZ1iJOKve+AjCgYFPpLFSJ75nxijxwg4JhKDGMQgRpwYVjuGX/wBPgG4sHCxedlnSBzY82da4KNNgtWUMEZiGKYFDIgRL4YhRnBiEIMYo8WQXsby8lURdL9OKWAJQCwvH1aNYcukwEcnhilhjIQxjAgYECNeDIOM4MQgBjFGlyGXl6/a7e5rAU312HInxoKHDMOWaYGPIAYMCGMkkQGDAgbEiBfDECM4MYhBjNFkSMZ0bqPT/YMOpECb+eKwZWLgI4hhQhgjWQzzAgbEiBfDACM4MYhBjNFkSPQY2g2anotM/Jka+KBQyXEzzAsYECNeDPe9G/3xihjEIAYxhsaQCBHaPSQAo5r2NTXwMSwGEh7GoMAHMZLOMNAITgxiEGO0GAjzXWsBwKAPyFujEvigLiLHwjAiYECMeDFGwAhODGIQgxiHqmMv4LA1CoGPqBkwIIxBgQ9iJJlhsBGcGMQgBjHaVrsQSOgalcAHdRE5aoZ5AQNixIthqBGcGMQgBjE6ViQjgBT4GIzhFjGCGOYFDIgRL4b73o3+eEUMYhCDGPFlDCwAKfARnoGEhzEo8EEMkxgGGsGJQQxiEKNrDSQAu5n/KfDRyoA5YQwKfBDDOEYcTdrEIAYxiDEsRt8C8KhM2hT4GD0GDAoYECP+jDibtIlBDGIQYxgMoM8QSJBJe1imR78wYxT4MJhhXsCAGKPHSJoRnBjEIMZoMdwKPQLYzqQ9LNOjX5hR4MNkhnkBA2KMHiNKkzYxiEEMYkTJ8FYoAdjFpC2A6M3/PmFGgQ8DGSYHDIgxGowkG8GJQQxijAYDaHoLwVgIAegx/x+jEZwCH4YyjA8YEMNMhglGcGIQgxjmMwDgypXLFvSPXwA9CkDHkOh6aPwPMHKTtqtOgaYCpsCHoQwYHjAghtmMpBvBiUEMYpjPAIDFxcuu3uOMaRHYNQTimP8teMTfME2PQJAwo8CHqQwYZP4nxugxkmwEJwYxiGE+A2jOiLjblkoBS0tXZdcRwLm5WQ49Utg8oA7T9Og+yFYGBT5MZQT4ChNr/ifG6DGSagQnBjGIMTKM5uCdM/LHhRAS6DIFvLh42VIKVsCX9FACH265LwAS1kUECQ9jxICROPM/MUaPkXQjODGIQYyRYVhKNWfypMOQ5XIZQAcBeEWbBf23S2gDtUiQSZsCHwlhJMn8T4zRY5hgBCcGMYgxMoygH8NYWVnFyspq+xFA54Dqf3ASgNjYuC2GFfhwigIfI8RwLifO/E+M0WMk3QhODGIQY2QYaQ/D3Z5kDNIVf0DAQdMRf5ZSh26LRPx1CnwgMmMlBT6SwkBCzf/EGD1Gko3gxCAGMUaGYUFrOMCZ9oUewJNLS1dbtt8yAnj27KNesyA853JnpxiJ+Ose+IiCQYGPZDGSZ/4nxugxAo6JxCAGMYgRJ4bVjuEXf4BPAC4sXGxe9hkSB/b8mRb4aJNgNSWMkRiGaQEDYsSLYYgRnBjEIMZoMaSXsbx8VQTdr1MKWAIQy8uHVWPYMinw0YlhShgjYQwjAgbEiBfDICM4MYhBjNFlyOXlq3a7+1pAUz223Imx4CHDsGVa4COIAQPCGElkwKCAATHixTDECE4MYhBjNBmSMZ3b6HT/oAMp0Ga+OGyZGPgIYpgQxkgWw7yAATHixTDACE4MYhBjNBkSPYZ2g6bnIhN/pgY+KFRy3AzzAgbEiBfDfe9Gf7wiBjGIQYyhMSRChHYPCcCopn1NDXwMi4GEhzEo8EGMpDMMNIITgxjEGC0GwnzXWgAw6APy1qgEPqiLyLEwjAgYECNejBEwghODGMQgxqHq2As4bI1C4CNqBgwIY1DgI7DcVorcPU+lUukPPljJOVPkzmLrijcaku/v74tGoyFt24ZzH/8JAZcPXccYwzvvXM8wxlqeh1JK1utCSClFvV73Pg/pOW93AnT/bwlAcs7xjW+8b3GeAudMMMZlKsUEY1w8eFCp7O/vy1qtJjz3DV0U+CAGMYhBjOEyIhOA7QIfzoOMNPABHA5jaEZ0IYajYnivJ0YQ47D5v9FooFar8fv3tyFEI72zU3RHHzn0VKFffFm+67z/x7PZrFUq7aVLpb0cAEsp1RReUkoO7amAZ3vcty3/3ynnoTavY4xxxph179522t2+IwDRaEher9dlo9Fwn2KQ8IPv8qHrGAPnnGFnp+h8rhkAxxUslWw0hJRSBe0Pvwhsex1jTDLGcP/+DuecScaYBJjknEkAolar2Y7QlADqzn2F59x/cq+33euy2awolfbk3l4Z7m2MQQDMFkJUlFLlnZ1iDUDNuV8t4Dl1LL+BejjHK2IQgxjEiC8jEgFIgY/BGG4llaGURL1e542G5I1GgzcaAkoBa2vrGeffO4mldidrbm6W53K5dLG4mzm4XvF6XfC9vbK1vn5L1usirZRyVz9PQ09Fu+LOPc/iQAC617miMb2/v59eXV1Lo0U8KkspcCGEX0D6t+MVmd7n1lJ6HyhUq65WUc5IqUKjEY0DgzEGxphne8Ng6JMzUtkLwyvu3POa57J7fVPM7e/v2x99tCYY4xVo8WcDqCmFim3bu0qpCgDvqYT2QtPPEWfOzMnJyUlUq1WezWaF+/mI/nhltNmcGMQgRsIZAwtACnyEZyDhYQw/Y3+/znd2tjN7ew8y5fKDdKlU4kI0ctAiK+ecMgDyvuuynuvSvttym5tbma2texnGkHOmmTOASiulLCkVV5655n6Lcw7OGVq3paCUgpSDb9/L0CNy3hoJhiuOQzH09twR0YP90WafSwBlaCHonm8DKDrn2wDuA9hkjBW3t3dK+/t2ZWIiV7xw4fFtA43gxCAGMYjRtQ5LhBDVzfwfZeCDMd3c2PciRBYwOAoGjjGMcfPmLfnRRzetWq2WAVCAFll5HAiuSc/lEwHX5QDkGGN5znmeMeYVdjlXBOiZv8GKMQbO9WhW61uUGMSInFEDsCWl3JJSbgLYBPAhgC3n8iaAdee8a7kmbcZafdDusSTK4AoxiEEMYgzC6HsE8KhM2v4XwB0AYGYHPlwhFzRy5p4fuu6tt/70Ic/fGUBllEJOKZWu1WqWbdveKVjvNGyQry3Q68Y5C7hef0FHN9LUbpSJGMSInJGWUp2SUk4DeByt09G25+8itCjcAnDbOV+DFoZbAEpJNYITgxjEGD0G0KcADDLmH73pMXaBD1cUuVOZGQDpXC6b2dsr5/f2ypOOrywNqAwAq9GQGQCuad/rYRv3/G1Bizq/d82dNk0zhgxj3CoWd73/l3a+3NJKKW+woa9iDGCMO6MnbjUDBu2m5kIX514Ga2FEOZVJDGI4DC6lzLS940HVoKeWS9BisAjgnnO+nc1m7u/ulrZLpb1tztl2KpXazmQyxenpqTJibgQnBjGIMVoMt0ILwHar8jsPLnLTo/8FUEMIMdTrNheiYUnZ4FJKyzGzi7W1df9omSt6g1Km7mvijs7lGWO5/X0799FHN6f0dSqjlMoppUfmhBCe0bqW0b5DydpO5U5tHdSBMT+KqbNWhsuJnsE5MYgRW4b7OT0VcJu9v2+XVlfXNjjnNzhn62NjYzfz+fwGY2wLwOba2rrXo9i2OXu7SrrZnBjEIEY8GN4KJQC7rMovgOi7PfjE31ACH8Xibnp3d3eyUqnmq9VarlKpZpwpoUloQVYA8BAA73WTzqngnB/y3ulUpl625KAoYEAMYhjGSHPOZgDMSCmflhIQQqBSqYjNzTtFpdRXAPwJgNcBXIf2FPZcJpjNiUEMYhw/A2h6C/WsXpg7QYucoKnEoa783yWM4Y7CTUOLMe9pBlqcTTnnk4yxGc55gTHmCjdHvBlhaCcGMYgRb0YNWgB+HsC/hRaFa2izaLYpZnNiEIMYx8sAgCtXLluMQbqMnkYAHUOiOy15SPxF3Ykh6AXwMWYA/AUA3wJgHgejb+3WamtO13LOAhYKNsbQTgxiECPejDSAM9DHr0VoH+EagD8F8CUAN+Csa2iK2ZwYxCDG8TIAYHHxsqv3OGP6B2dXAegEJbxJ0KGaHoHWaV/9AhwKY7wM4PsAPAc98hc0Jd1SelvDDTEcZjBi9MkwJGBADGIcuiv0D9Yzzt82gEvO6ZsArAL4IJfLrj14UFmbmipsJdlsTgxiEON4GUBzdtXdtlQKWF6+KrsKwLm52UPdDZwHNxTTo+dBehiHAh8XADwJYLZXzlGEGIgRL0aCAgbEGF1GGnpGYwb6B20ZwMr+vv3W2tr6n+bzE28AKHLOt8fGrFI2m7WTYjYnBjGIEQtGc/DOGfnjQojuI4CLi5ctpWC1DJrpGkrgwy33BUD7LiLXoA+UPZVBZnNiEIMYZjPynPOnGcPTtm3j7bf/dJVz/qVMZvz3p6envvqxjz2+lgSzOTGIQYxYMCylmusPu94/WS5r+XRY2jl1RZsF3c4YXu+fvbNTFMMKfHgY3UyP/yOAHwXwbLt/iLERnBjEIAYxwjKK0KGRnwfwZehFqEOBTTG0E4MYxOjKSPumlKVSkB9+uCpXVlbbjwA64swvzCQAsbFxWwwr8OFUr/Pev4qDoMeloH+IsRGcGL0xpHPydmUQnpN7nXSvS6X4JIDz0O+vsM/jcwA2AFRw8MUqPI+jwRiT6XR63Pmidv6HNQAlbdu2lVLS8/9hiwPgjDE+Pj6eZgxjjs+MA9pfVq/XpePB9Hds4QHX+deq9J54KpXKMQYLYBagLOjPY1pKZUkp3eCXd/FxzyLjva1TGdP3VVIZeQAvAJiDfp9eA/DHAL6KHpaWMcXQTgxiEKMrI+1huNuTjKEp/oAAAeiIP++woVuRiL9OgQ+EMz2uQS+lAOiRwKfcGxgDjjvEYCDDL8b8IkwEXC8ACMaYTKVSMpXiAmCCMQiACQCiXq/XlGq5n8uQAOrwiDu0irHmdVNTBTk1VQAAvr5+67ukVDNw+hO7z6PHL+nPQo+qeAWgBCCnpgqYmiqAMWZZluXzwzIJqNra2i1RqVS89wtVU1MFPjVV4IyxjGVZTd+t+0FWCvbNm+uyUqm6d/ELv6DrWoShw0gDSKdS3JvsdwWgvHVrA9VqzSsg0zgsJsdwWFQ2BSLnLJ1KWWnOWVrp7jeWUrCUUpYWmMrb6cbtgOP9u2uwC4h94CNqhoWDJa4ed05PAfh2AP8OwLvQIZJ7/u2bYmgnBjGI0ZVhQWs4yQ6WfJEA5NLS1ZbttwjAs2cf9ZoF4TmXOzvFSMRf98BHzwwJ/Qu45DzmPHQoJGNKiCEihl+YuX9LxpjknEnOuXQEmWSMSaWUkFIKKaVfcLl9Ud2TK/7c7oN4dkcAACAASURBVAb7nusr+fyEGBsbE5xzkUqlJOfcZozZAGzG9LY2N7dKSinvtvyismudPv1I831169bGnweUCPlaSedxLznP5RDXywi6/85OseIRf31Vb4zq0Bk3bqz0wvAKtWYXnHx+Ij02NpbjnOfGxqwcgJwjADNKIa2Usu7evecKviwOOmzkPZfdzjhewZmD7sIx4z6APsMY3hu6jmLGOFSSwYEI/CSAlwC4C06/C92feDOfn5Dz82dgkKGdGMQgRnuGe1w+xPCLP8AnABcWLjYv+wyJA3v+Bgh8dCoJYAXA/+b8/ROc8/OcMx48lZIYI3iUDLdn6bZzKjl/l1OpVNWyUoIxXuOcFQFWY4yVpZTl/f39bee+NegRMe+oWE/1xBMX+PT0VMfOMRsbm5G+r6RUL0OPkCDEa1WDHjkp9sLwVb/v3aQz3B8TFe+VCwsXuzKCDkQBxXGwUPskgCcA/BiA7wcG+ny4P2i69sZO2Of8BedUhO428psA/vnCwsXK1FSh6QcCEm1oJwYxiNEbQ3oZy8tXAwdTOqWAJQCxvNzTwbpjRRD46IXx965ff/fq9vbOTwjR+EHoLw0YaAT3/vsW9FT4qnP+DWhv0Ab0VOY9BPQd9XR1Cdr/7TquhKojZOQA8HK5nLlx48MzSqlLfeyPIvQivB0ZATcPtQPOiDMk9H5xRXkFwMcj+Ay+B+AzAP5fHMwauMuwnAJwijF2MZXi8wCbd27PhWR0rSEeSwrQ66S+zBj7O2+//c5SNpv9NydPTn3lwoXHNzz/ZxeL0Rna0WafE4MYxDhWhlxevtq297gFNNVjy50YCx4yDFsRBT66MpRC7ty5+ZV8Pv/zd+/e/7Nyee9HlVIvmGEER0VKtSKlXIEWex9CdwwoQn8x+qdl3fNDqt99rYADj6fHSmjfvh3d/hg2Ax6x0WjIQqVSfbnP/VEG8GY3hq8i74BDjI4lAVQi+AzOQYs9Cb3f16B/MKXz+Yn0wsLFNIBpxpCRUmUqlerk7dubs9Vq9duFkJeklPPQPy57CsG0qyM6lmQAvLy/v//k3bv3/uKDBw/eGhtL//q5c2ff293dLSfI0E4MYhAjHEMypnMbne7fbgQwEvEXYeCjA+PJJiOXy5UZw3vj4+lSrTZV+uCD1Q2l1IvQv+z7PmAzduRhjArAtjjna5zztXR67BsPHlQ2oEf83NMmDsISPZX3tfKzgcCOK6HraBgLhxhKqUkhxLf1acwvA3irG8NTQ+mAQ4z2NTd3Gltbd+vu526AMEYeujd4HtoO0TxAzs+fcZ/HtuvBy+Wy6VQqNWnb9sr6+saZarU6A+Bh6A5Erph0T/leHsARhko4oGaklDP7+/tn9vft+VQqNcsY3qxUqtegR0PX+tm+YaZ5YhDDJIZEj6HdIAEYmfiLMPDRgTHrpAz1trPZnJ3L5daUwur776+UoHsFz2AgAXgkgQ/BOSszxjdyuez62NjYe6lU6u1Uil+r1fbfcJYc6RsW9Fq5pRRksRjYcSWmjNb3lW3bVrVanW40Gi/0sT9s6KnyG50YnhpaBxxitGdMTOT49va2EKLhXNv3Z9BN0p6CFoBNxmGTNkMmk7FPn85s7ewUV6vVqnTun4c+rjzhnJ9zzmehRwfzzikHbYNo1jGGSnKAfGJ/Xzxx69btV6CXjvlDAG9Ai8BtBNhFgsow0zwxiGESQyJEaPeQAIxq2ncIgY+Weu65Z/j09FQ7Y6VgDDXogIjAAOLvCI3gZcb4W+Pj4z/72GPn3igUHrpnWZYAUBt0n7ivFXDwWnlKMDZ4V5ejYLR7X21v7+Ru3dqYk1I+3sdmt6G/AEudGE7FMYwxEozd3ZLFGK8BDc+tfX8G3dG7G15GjyZtgQNv4jXPNtPQPzRfBfAM9PIsl6BTugBiFSo575y+F/q9/zPQCfiuC0sbbJonBjFMYCDMd60FAIM+IG8dldlcqfYBg52dHfuNN97mAP4F9IEutAA8usAH3xgbG/vc9PTUL1+6tOD9QklaGOPIAh/+2yqV6hPFYunjfW56FY7/L4FBiVFiSMaY0/5x4M/gLHQ/8S9HaNK2ob2E/59zArQoLHDOPplKpT4O4Dml8CR8KfVjDJXkoHuq/wK0+FsC8OvQ66sGhsdGwDRPDGKMDKNjL+CwdZSBD8Za572BA2Pl2tr6KQDfDf3rO9Nhc23rKEzaqVTq6smT078yPT31eqHw0EZSwxhHHfjwlQ09mvN0n5vfzOcnbiwsXDQhKGEyQ+pR/Ug+g9P5/MScu8+HZdLO5yfEwsLFIoDXGGPvSCnzlUpl5tatzbn9/f1vFUJcckatpwd5MkAkx6tp6PUEn4Jebuez0NPEWwDECJjmiUGMkWNEJgCPOvARbKzctG/fvpMrlx88CeAvo6UdWG/Fhh/4kIyxe5aVev38+fnPTkzkX8/nJ+5lMuOuGT1BYYzjCXx4yt7YuJ3e2SnOQ4/ohC7O+WYmM75iQlDCZAZjkIyxWkRBicLY2NjZYZu05+fPYGqqwAHcUwr33FAJ56lCvV5/1wmVnMGBh/BJOIvZh+FEFCpJQ/sip6F/OOcAfAuAtycnT7wzNmatwlzTPDGIMZKMSATgcQU+vHPrnoDBPLQP59V+OEMOfNic883x8fTrk5Mnfnl+fv6LXhWfvDDG0Qc+PCV3dor22tr6fLn84Bw8HSJCVCWbzW5NTk7e68RISlDCZIZSEI1GoxJRUKKglJqrVmu5bDYjPAZqYKgmbR0qmZub3dzZKa44oZI89Aj2UwC+DQcicNo5dUwWDyFUYkEHWT4FvZ7gW/W6uLq1dfePGw25Oj4+vj02ZtVSqRRghmmeGMQYWcbAAjAugQ+HwQG8Aj36F/q5HYFJu5ROj33u5MnpX3jyySdu+G5LTBjjOAMfTnnfV09Di/5+au2RRx6++/jj54Mea+KCEiYzpJTCtu3ATi1hi3Oer9frM5ubd3KPPXaudMxG8DL0cizvAfgNaNH3HIArABahu3u0ex7DPl5Ncs5frdftl27evLV9+/adz8zPn/3CyZPT69lsVhhimicGMUaWMZAA7Gb+P8LAh8v4YQA/BL08Q891RIGP106enPrpRx+de+Phh2cqvpuTFsY4tsAHDr+vvgM6bRmqGGNIpVLXU6lU0DpoSQ1KGMsAIBsNWQq4refyfs7rdZG7e/feU489du41lxETk/Y2dBhjCcDfgrY2fBLAd0H3+z11DB2J0kphtl4X//CDDz78m++//8GSlPJXoMMifcOSaJonBjFMYvQtAI/KCN4t8OFhzAH4PgDPhuUMOfCxDeD1j33ssZ8uFB5azeVyNSC5YYzjDnz49vkM9BfkqbAczhksy1rhnG91YfRVBocxjoWxtrbO4es7HLa8n3OlVEYI8TiA1+Js0gawDuBzAL4M4Axj7OlUKvUfAeoSdJrYec2OoiORgpSqIKVchJ6q/osA/m/oRdRDjc4m1TRPDGKYwgD6FIDBnRiO2vR4KGDwg9Dir+dEHRt+4GM1m828dvr07G+dOjVzbXx8XDremQSGMWIR+PAznkb/pnmZz098MD4+7hWAiQ5KGM4Q0C0O+yp/UEIplWs0Go/hyI5XfTNqADampgqbU1OFVcbYOmNss1QqXXzwoHrBtu0nlFIXpFSTEXcRcf7yh0qkNyxyHnq6/uvQC0pfhxasHSvJpnliEMMEhluhBWA7k/awTI/+FyAgYJCGPhj9GIAzCLHm35ADH2vZbOZLDz8885uPPXb+y5p3cGPywhjHH/gIeF99O7RhvefymOZLDz00uT4xkXVHLhIflDCcIdGnAAwKSgDINBryfNxN2m6dPv0I5uZOC+iFm9fu3r2XLxZ3nyiXH7xYrVa/tVKpPgk9Ij6JPpe+AkKFSizo4+4PQk9Nvwbg9wF8DXoB/hoCepEn3TRPDGIkneGtUAKwixFcANGb/33iLyhg4K5f1dYsHVRDNlALxvBLc3Ozv/XYY+ffbXN7IsIYMQt8+Osymovqdi/vPmeM3ZiaKhQnJiZEF0bPddxBCcMZEn1MAbf7nCulMlLK83E3abdjzMzMlB9+eOaNSqXy+s2bt/73SuXW9wL4Aejk7vl+OAMcE89A+68/CT0S+DehQy3lbs8jaaZ5YhAjyQyg6S0EYyEEoMf8f4xm80MBgxx0Yu4zvTKGbKAWAGqc8x/45m9++vrUVCHItJ60MEacAh9upaGF3ytt7tdSQfucc/5l6PZvxgQlDGe4I4Cyzf1aqofPeQ566RWOPoMMcTCC7+/b9s2btyR0gvg3oC0RLwH4UejRuSheq14fbgHAJ6CnhL8EvZj05wFsxuG1IgYxRpkBAFeuXLbgOd71JAAdQ6Lr0/E/wMiN4J75blcBt2O8AP2rN8Qo0NACHzUA1znn//Sbv/np6/l8vjlakdQwRswCH96aRI/iDwje56lU6m3G2LZJQYkRYdTQ/odos3r4nLvHtDPQ3S5CTS/H2Ai+DeAr0CNwvwm9nMzL0CsjBB7vh3RMfA46mPc9AJbX1zf+1cMPn7THx8dljF4rYhBjJBgAsLh42f38c8a0COwqAB3zvwWP+Bum6RFonfbVL0BgwGAW+sD2ai/PQ29raIGPCmP4ajab/TenT89+yT/yd/BaJSWMcXwMp7q9rwrQ/r+uddjQDgAQnLM3bt/eLK6vb5gUlBgFRg0HP0YDK0RnDA49XVpCCAEYcyO4DeCec9qADmW8CeAZ6NDUC/AcLyPqIhJUBegfarOc87mtrbuP7u/vf71QeOj65OSJzbGxMdnlefRcMd8fxCDGsTKA5qyLu22pFLC8fFV2FU5zc7Mc+oDRPOAO0/ToeZAeRmDA4AUAfx49tgAbYuCjBuCtbDb76w8/PPPb58+fK3pHMIEkhjGOjhHgK+z2vuLQvs+Xu3HaGNoFgGKjIW9sbGweangfpmIYlBgFRg0dumP00RnjAvRoWU+VMCN4EXo08A1oofsJ6NfvDIBTnPM854wPKQQHAJxzVuCcvVQq7V0qlx98qVar/UG9Xn99fHx8HcB6jF4rYhDDVEZz8M4Z+eNCiO4jgIuLly2lYAV8SQ8l8OGW+wKgvdncgl6D6qVeOEMOfGxyzj8zN3f6tfPn54NM6okJY8SA0UvAwF2GouN6jx32eUVK9W61Wu17SREgtkGJUWBU0Maz1+fn/GPoMTWbYCN4BXqJlusA/hWAv8Q5/wHO+Ys4NJIaWRcR//6YlFJ+/92791/d2rr3ulLqZ6WUa4NsP8H7gxjEOCqGpVTTxiXdEcByWeez2grAK9os6L9dQpu0xTGbzf8H6BGgjv1fhxz4qADYGBsbu/LMM0+VC4WHDi15gOSFMY6V0WPA4EnonqmB790e9vk2tEG974pxUGIUGGX4lhcZ8HP+LLr02wXMMYIvLl7eUgo/d/fu3V+9dev203t75R+TUv4woPiQuoh4blGQUk1LKT8JnRj+IoD/C8BXoaeswzwPU/YHMYgxLEbQD26srKxiZWW1/Qigc9D2PzgJQGxs3BbDCnw41Wne213z769AewA71hADHyUAr6dSqc8888xT5Xx+ovlYkxrGOC5GH16H8+gw+tfDPi9De6L6qoQEJUxmHBoBHPBz/rjzGNuWKUZwL6NQeKiSzWbfaTQan/nGN278YbVa/S4pGy9ATw8PVCH2xwsAfhpaAP4+gC/At3RMt+cBmLE/iEGMiBlpD8PdnmQM0hV/QIAAdMSfd9jQrUjEX6fAB7p/KcwA+F7og3bb0UvGhhr4KDPGvpLLZX/t9OnZr/lH/g6eR7LDGEfL6PlNn4YWgIG9f3swtEto8X4t9JNAooISJjPcpWAARBJimIMeAbTQZuFiE4zgfkY6nRZjY+kiYyiePfvo5urq2poQ4k0A3wLgRfTRXhEIvT+mocMi09DC80noZWNuQH9Ouz4PU/YHMYgRIcOC1nCSsYNpXwByaelqy/ZbRNTZs496zYLwnMudnWIk4q974KMtIwdt2P4xBHuJmjXkwMcbTuDj8+fOzdsU+IiC0fP7agbAY9Bf2i3Vo/m/Bj3VFNp7lLCghMmMpgDsI/ARVJPQ76scfKLDMCN4W0Y2m9moVCrr0D1934L+jLwCPcvSbgT3UPW5Pzi0+HNXdZgCsAztV9yCZ/HvOLxWxCBGzBlWO4Zf/AE+AbiwcLF52WdIHNjzN0Dgw6056ANEx/TnkAMfW6kU/0dzc7OvnTs3X2N+hDlhjLgyngIwD98XUoh9vgXdpirIr9m2EhiUMJlRASAj/pzPQY9CNQWgYUbwXhkbAP41gN8G8F8C+M+hR+U6TpEDkRx3LejRwP8ewHcD+FUAvwzg3T6eR19FDGIYxJBexvLy1cDvvE4pYAlALC8fVo1hKwIjuAXg0wD+23b/MOTAhw2gaFnWdz7zzFPbU1MFO2AW2ZgwRowZ3wHP9G8f+3wFIf1/CQ1KGMtgjFU4ZyLiz/nHoKc8VwHjjOD9MCSAfwLgXwL4FPSsy3cHMYZ03H0SwN8G8FcB/Pb4ePp/ZozZCE5/H/drRQxixJkhl5evtl3uzAKa6rHlTowFDxmGrQECH966DODj6JD6HWLgw4bu8PGPnn32m7bz+Qnhnb93/yfpYYwEMHLQ4q85/dvHPt+E9hf1VAkOShjLePvtd5xfst79O/DnfA7OscUwI/igjDJ0Yn4VwO8A+Cno16q5bM4Qj7uAHpX9dKMh51dWPvrdublHvvLwwzM3UqmUDPk8OlaC9gcxiNErQzKmcxud7t9uBDAS8Tdg4MOtSQD/IXRroUPTSowNNfAhAVzLZrO/OTc3e7VQeMj2ir+D52FKGCPWjCehv3xyQF/mfwEtAFd6gSU8KGEsg3Nek1LKPgMf7erM1FShcPr0IyYZwaNgCGjbRAm6owigO/C8AOA855wPqYuIW2nO+SyAwt7e3uTmJvtYrbb/x+n02Nfm5k6vx+y1IgYx4sKQ6DG0GyQAIxN/AwQ+vPUstCH5fNCNQwx8AMBqNpv5wsMPz3zO2+HDO7duVhgj1oxXoD1CvE+zeQnAHfSw3pgBQQljGYwxJwQS6ed89qGHJmceeeSUKUbwqBk1aAH4c/n8xA2l1Nb+vn0ZUPMAm9T/EnkXEU+oBBml1EvF4u6FUmnvUjo9Vshms19cW1vfRIeFwbtVgvcHMYjRjiERIrR7SABGNe07YODDW38NWvwdeqxDDnyAMfZLc3Onf+v8+XPrAebNuAYlTGV8B4DCAPt8Bdrk3nFI3JCghLEMxrzLwEQ20jQnROOR/X07k8tlJWCMETxqhlhYuLhUrdbeWV/f+KNqtfrfKaVePLh5aF1E3O3PNBriEw8e1C9//etv/WMAPw/dxi90S0dD9gcxiOFnIMx3rQUAgz4gb0VoBJ+Ebl7+I/4bhhz4cBk/9dxzz3x+aqqwERT42NmJbVDCNAYHkGGMfYpzlh5gn78Fx+TfrkwJSpjMYIw9YAyy0Yi0a4W1s7NzKpXiZy5e/Jh3iSBTjOCRMqamUJ6dPfX5er3+hT/5kzf/KyHEX5FSPS5l997y3arHYzsH8DcA/CUAnwPwi9A9j0M9DxiyP4hBjH4ZA39gvRVR4MOtM2iT+h2y8XgbwGvPPffMb+fz+W1/4CNK82ZCwxhHzZhkjL3AOUsDzPemD7XPvwHtAQwsk4IShjMqUioR5TQjwNBoNAr1en0WzhqRhhjBh8hgGBsbk9/0TZd+4733brxbKu19D3R7t4E6iYQ8thegV4d4AloA/p8Aiugwym/u/iAGMcIzIhOAEQU+3JqFNhq/4r2SsaEGPgCgmE6n35qZmf7FqanCJgU+jp8xNzc7fefO3W933/R9ms1t6NG/raAbTQtKmMwQolGSEak/b5BISlVoNKSbMDfBCD5UBqBH6h56aHI1lUptKaXuAfgIwHdCr9Ua9P7oWH0Eu9LQwbAC9HcGB/BvoTv9bPTyPEzZH8QgRj+MSARghIEPQH+ILwG4Al/HhyEHPmzLst49cSL/e2fPPrpEgY/jZywsXLAymczM1ta9Vz1b72efb0F/IRzqM2piUMJkhhCiopQKtZB3UPmDREqpaSnlLMwwgh8pY3t7pwY9Auf6bPPQC7ZPosfvmAG7uuSgVwn4G9Ddon4Xur/wGpxOInF5rYhBjDgxBhaAEQc+4GznReih/WYNO/AB4N7ExMTvzMyc/KUTJ04IgAIfx8l4/vlnuWWlMnfu3HVHgz0Vep9fg04BtzwmU4MSJjOUUn2nPt0KOpYopQpKqUcQ4fMw3GzuZ0jopPA/h15r83+B/txOduNEeGzPAfhh6BHILwH4BwCux/C1IgYxYsEYSAB2M//3aQT/TwB8D/QioEcV+KhNTOR++tFHZ794+vRp/ygRBT6Oh5G7efPWk3fu3P0WNFtR9b3P/wDaG3SIAQODEoYzyuhTAHY5lpy6d+/++UFXQUiiEXwIjKsA3gDwgwB+EsBLQf80xGP7GejvkR9hjP39vb3yr2cy42uZTNa/wTi8VsQgxrEx+haAQzKCn4L2kDTbfQ058AEASKfH/sm5c2dfn56eKrrTvgAFPo6LAed9JaWcbzQaTzukQfb5G/BM/45AUMJkRgUhezm71eVYkoP+0VmA78dCr5VUI/iQGBUAn4eeEv4BAP8ZfPt3yMd2DsDinP347dubzxWLu79XKDz0pfn5M+shn0fHStD+IAYxDlVfAjDIpB2R6fFTAJ6CPgh3NAVHEPgAY6zMOb9x7tz8r09NFdbHx8ft1ueRjKCEOYyD91WtVrNs256XUl46GBEIvc8ldADkXXi8QKYHJQxneNYB7L16CBhwaO/aGfQhAJNsBB8Sw+288xr0jy8LwGVoX3e6j8BH6HI6lZyvVmsF27anbds+p5T6o1QqtVSv18UHH3wYl9eKGMQ4UoZboQVgO5P2gIZEdwTgL8NJcw1oCu6lhGWl1nO57G+ePXvmHe+LnKSghFmMg/dVqbQ3WalUzyml5gfY5zb0l9AmABmHEAMxBmaEFoAhjiUZAI8DeCfM9pNuBB8yowQdECkDqDHGXmWMneec5YZ4bPfv80Kj0Xi5XC5fKJcfPD42Nra9v79/A3rJr1o/20/w/iDGiDO8FUoAdjFpC6Bv838OOr31SeBIAh/gnBez2ey1s2fP/JxP/CUmKGEKI+h9dffu/Qt7e3tnAJUeYJ+XoQMgMi4hBmIMzAgVAgl5LHGPQz2XCUbwI2K8lUql/lfO2Y8rhZ+EXrvPU8PuIgIopU5JKf+CEOJp6IDIF+Gs+ximDNkfxBhBBtD0FoKxEALQY/4fhhH8cQCfOaLABzjnIpMZ/41C4aGfnZ19pOK5mQIfx8M45P8Sov5yvS6eaDQG2nwRwB/ELMRAjMEYPYVA+jyW5AA8023bbpliBD9CRqVSqfw/9+7df+2jj27+dSnlD0d/bO9pn18A8M8AfA3AZ6GTyz2NBBq2P4gxQgwAuHLlsgXP8bMnAegYEl2fjv8BDjonPQe9XMBzRxH4cA4Q1wDcrFSquRs3VubGxsYq9Xq9WK3WxJ07W4kISpjCQIAQ2Nvbs2y7/ueklAN1FQBQ5py/FcRwytSghMmMnkIgfR5Leh4BNMUIftSMTGZcPPLIw6sPPTT5D69d+7OKEOKTUsq5rhvpoULuc3e92f8CwMcB/Az0OoYV/z8GPQ/AjP1BjNFgAMDi4mVX73HGtAjsKgAd878Fj/iL2JB4CcB3cs4Lww18AJ4uItNCNL6tUqk+VqvVbM65LYSo2Ha9Cu0bs6F/EQrP397rvLfVnHMxMZET1WpV2nZdWlZKZDIZO5MZF6lUCkhUGOP4GABw8+bGmWq1dkYp1XUNsQ5lZzKZ4unTj6wEMWB2UMJkhg39C1a22U4/HSXcygA472y37eMwxQh+HIxUKgXOU+VMJvPeuXNnf2F9fWO7Wq0uQn8P9L0qRZ/7fBJ6AelZ6OP4H0AvIL0K348MU/cHMcxnAM1ZF3fbUilgeflq9+bdc3OzHPqD2TzYRmhILDCGFxhjrww58AFfF5HzjYY4L4QAoOCZZvSKurJzXoP+Vei9ruK5rQygyhir2bZt37x5S4yNjVXGxsZqJ05M1CYmJmzLsgSA8traunAYMuS5ACDn58/g5MkprpSyAJbwwMdsi9fBU/L27c1nlVLTGOALgTFWzmYzW+fOnQ1KdJoelDCZ4f1sHBKAA4bHLOilqPJoM9JoihE8DozJyRNfTqX4NvQxlEP7AoPeHx0rgn0+A+A/hbYinYJeRPqG87hi8VoRgxgDMJqDd87IHxdCdB8BXFy8bCkFK+BLepDAR7MYYy9wzr6FMXZmyIGPXo3glnNy1wTruRhjUEqhWq2hWtV2kvv370MpJaRUNaVUEfpLpew5lTyXKwD2fNe51xdTKV6pVCr2/fvb4tSpmZpljXlf+8QEProwJHS3h2+HsxRQv8U530qlUquWdegtftwhBmIMzrChj0EtOzeC8Jh7oJyHng5sEYCmGMFjxrgGwO0j/DPQAqznijAwyKGXqXkKwLcB+LsA3ojZa0UMYoRlWEo1bVzSHQEsl/WyuG0F4BVtFvTfLqFN2mLQBzc7+0i6WNz9SSHEJ1pvORZT8DAZFvSIQn4QBgAUi7soFkt4770PJBxxKKUsSSmbQhGHReYuAgSl7/8qi4uXKzjmUIlj/ucAvh89tJAKKnd/pFJ8LZXib7dhRPE84hyUMJ3h2i4ywFA+589C949u+sFMMYLHlLEB4F9CdxD5Pei1GDOdGEM8ts9AH38+zRj7ew8ePPi1bDazNj5+6OGYvD+IYQYjcDR9ZWUVKyur7UcAnYO2/8FJAGJj47aIwvT47rvvf2+j0XgCLcIo+sDHUYRKjoHBAZWTUmWklJM48ET1OsUsfPeRb755zYYzygcw5wtWlaVUFaVUpV6v76H71Lj3+goO/FptQyVer8Pa2noOehpoEm38Xb2+VpZlbaXT6RXPTXEJMRBjcIbrTCCyUgAAIABJREFUwQUwlM/g42i2HzTHCB5zhg0tBP9rAH8dun1c21mYIzjuWpyzH7916/bTxWLpdwqFh66eOTO31cPz6Llivj+IkWxG2sNwtycZg3TFHxAgAB3x5x02dCsS8bewcNFKp8fS9Xr9h5RSc/oxRLsKPGMtgQ8cQajkOBiWUhLowzMTxNjd3XXEIHOn12ylZE1KZSul/EEY97I/COM/7QMQ2WzG3t0tid3dkis4bcb0/zQasgKgsrNTrJXLDyYBPIc+vX8eI3jtxIkTmzMzJzecm+IUYiDG4Az3vTdI4KNTXYQzAmWKETwBDAl9HHkN+gdgEcAnoAMaLXVEXUTgdBGZrNfFpG3bZ6Vs/OHJkydf297esb/xjfdN3x/ESC7DgtZwkrGDaV8A0t/rvOWL9uzZR71mQXjO5c5OcWDxd+nSAp+ensptbm7NSyk/AaBwBIEPEKMnhrPUj0q7jAHX4AMcy8D+vl1bXV1rjhjqUUbUlEJFCFHCwUhiBocWiO2tfEbwytiYJVOpVH5np5hB9wCOe2pbCQtKmM6wAYghdgu6kM9P5Obnz5hkBE8KowzgX0MfDywAi/CMBB5Bhyg/Y1qI+qulkrhQLpdnGw25fevW7VVor3ZfwITtD2Iki2G1Y/jFH+ATgAsLF5uXfYbEgT1/rulxd7c0d+vWxqehvRYu7TgCH8QYPoNzzjOcsxYDjVJ6hHSIz0NsbW1dunNn60eFaOw4ARyvB9IfwHFHMAMroUEJYxkAbM65GOJ79/GFhYs5g4zgSWPYAL4APSWcA/Bp4FiPiZZScr5eV3/1gw8+PA8dVnkdTko4TCV0fxAjeQzpZSwvXw1cO7XTVJsEIJaXD6vGsOUawff2ypm7d+9fqNfFT+lbjAt8ECMejFNCqE9LKT/d46bc0UB/KrvMGCu9/fY7Nc5ZhTF9AtgugHKj0SgKIUpKqTJagzXuec/dBZDMMMaxMN56609rxeKuT7BH+r46tbp684wQ4sbMzIx/YeCkGcGTyhAA3gDwHzPGfo1z9gpjbCYGx6tPAngRwG8A+BfQfY57qoTvD2IkkyGXl6+2HdywgKZ6bLkTY8FDhmHLawTf29t74v79+84SH0aEMYhhBsNd67IAHUpqTg9zzgSgpJSQgGper5f3kUIp1SlcI9C6ZqQ3MFN1r7t27Z0awGzGmM0YbMZYDWDler1elrJRsu26N2zTDNb0WgkPfBxiMMZ8U/bRv69se3+uXq9PM3aQBE6gEdwEhnzw4ME/2NjYLFUq1cvQS/TgmI8leQDfDb1o+O8B+Mfo8rk0aH8QIxkMyZjObXS6f7sRwEjEn9f0+ODBA2tv78GlWm3/VUBZFPggxiA1BCO4639tfiZaGfAxevp4SLQGZvxhGcE5t3d2ijbABGPMTWLbSqEmhKhJKf0BnH20dqipebZ/qItNNpsVe3tlWS4/AACbMc1hjNm2bZellHJnp+gK177qGEIlzvMdmvkf9bp4tNGQBaWwPgSTtilm8yNhZLPZ642G/LV79+6Lvb3yJwF1Zhj7XFdPxxILOpySh/7R6I5WbuJgBYSSc700bX8QI/YMiR5Du0ECMDLx5zU97uzszpbL5WeklE8lOChBjBgwjsEI3i/DXfcwcE0zl+FuVynZvNwhgOOKSu+IYtAoow2gZtv7tY8+uik4ZxWA2ZyzqjOVXatUqtuNRsO9rzuCEapTzaOPnpYTExO8VNqzHHEpnZMAlNjft4cRKtlnDELvhuHscynlrJSyMASTtilm8yNjZDLjeOSRh78C3cEgXalUvltKGWqh/nY14Oc8D71qwSkASwDeh7aClKHXkazNzc3auVxOFou77g8XmzEIpeCurrC9trbu/VyFLhP3OTH6ZkiECO0eEoBRTfv6jeDb2zsvPXjw4Cno9esGRQAwJihBDGKEYXQUlX4GYwyNRgONxsH23QCOZzTWnVJ1Ry46BWaaHWsYQ+Xu3Xu1YnFXpFKpSiqVKlqWVRkbGyunUqkyoO7dvHkr8lAJY+5I5/D2h7NEVSHhRnBjGOPjGXnq1MyXGWP33n//g2noKdiBKsLP+RnoVnL+qmxubhW3tu5tM8buMcY2GcMWY+yulOqeEGJdSrkGLRaL6NEz7C2T9zkx+mKAhejYZQFABKm8ZgUZwW/d2shXq9UfEqLxogEBA2IQwzSGO/09iR47sLgMKSX2970e40OMlo4zaNOJBq0dayoAypzz8rvvvi/Gx9M1y7Iq4+PpysmT06V6vV5TStkRLFPU9rVSSp1XShWKxeLAB+wYGMGNYGSz2dqJE/mvKaV+AMDvQndsCd0y8gg/gznGWA7AnLvyQQeGDf2+3wLgisJNAHecy6vOuSsWxXHvD2Ikn9HXgrvtymsE98x34/btzU/VarV5KWXXUYteKmEBA2IQY5QZbus/t2NNYCeaoHPGIG3blkIIyRiTnDO5u1sS1WrtVKMhQ/WMDf881KlbtzYKm5t3OAbwR46A2fw4GBLA33JOryBk3/aYfT7ccluGpqGnlP2L6nu9vjUAxbfeunaPMV4CsMMYKzLGipzzzXq9viml3LJtuwh67xKjQ0UmAP1GcMaARqOBarVqlcuV72s0GqcQrFp7LsZgRIiBGOHqCFf+J0b0DGeB8f4YSkk0GqrJqNX2I/T8dXoeMlOt1j4OPbXn+iTdoI2/A443gOP4vJg9OTkpLSsFmGs2Py6GhA5dfNa5vIgee63H8PPRvBsOQmi5dv/klOScV4rFUgl6qaoKgApjrAygKIQoOv3hy9B2jW209oMv+647NPUcw31OjCEwIhGAQSv/KwXYtp2+c+fuKSHEK+hxaqlTmRJiIEbvlaDABzHMYnDofrTnERy08ffAdpf1cbrdsFqjIcSdO3dloyFrcEY8PcsG9dKdpt11IpVKycceO9dx5X8DDO2dGDaAz0OLpWkAL6PL91lM3ldRMDjnLA9H9HYIjwno9+gGtOBzT/cA3PL8XcLB+9iemzttT0xMyN3dEjjnNcuy7LExS1qW5QYMTH5fjRRjYAHYbuV/xoBabb+wurp2GSGH6IMq5sZ8YhCDGOYxZtDSsShc1Wo1rK9vYH19w10PsqyUqkgpy0optwWiP2zzwHed99RcYiSXy1bS6TSUgmWwob0bw20bVwHwFDp8z8TsfXVUDHdt004+STf8tQVgBcDG1tbdze3t7TuplLU5Pp5enZp6aPPkyZOlEydO1GKwz4kRIcP/LgpVTuDD9fi01NbWXbG+vvHc9vbOL0L/iu6rYmqaJwYxiEGM42YIgAkAFcZQUgoVKWXZmf5zE91ekfkABwGcCjqIzMXFy7ZS2m/k9XM7lyPr6hIRYxLA0wCWob+LmlYjA/f5cTHKUsp7ANYBvOec33LO1wHcgB5B7PhAItznxIiA0fcIYLeV/yuV6nyptPci9IKZfVdMDbvEIAYxiHHcDFfsWEqpnJRKSimDutHIDtcFTjO/+eY1AWdRcoA504OqIqWqKaUq9Xr9ATxT3jjwQ3qv865X2bwun5+oLSxclIjO0F4BcA3A/wHgR9DsFmLkPj8uRg76u3wawAW0Lmrv7mN3enkLOr287lzeSqfTWzMz0yUAmYj2eWAlNYxxHAygTwEYtPK/35B4//72BSHEt6GH9craVSczbVJCDMQIVzE2aRODGHFkcABcSmVFGY7Z3d11RCETgLIBZislbSmlrVRg8MUbkAkKzDQvNxoNsbu7W9/dLQEHglQAsKWUNQC1nZ1iLeC+/m0K3+kPoKeC8wCmDd7nx8Hwrj/azs/vjjq7p3vOeVEpWdrft3dXV9fKAEqMsRJjKDHGikI0NpVS27ojUv+V5DDGUTPcCi0AgwIfQPPByZ2dor22ditfLpefAvBCvw/sKMy0pgQlTGEYZNImBjGSznDS2yqt1x2TnbrThKr9/X2srq4JZ2TRM4qkakI0/KOH7vp4Ng6PKu6jVYS6/1fhnE0btj+SwMg5p0Ozfo2GlLu7JbG7W9rQi2JjizG2BbCter3+vpRyEweWBf/Isntq+2CSHsY4Soa3QgnAdoEPpwTQXIH6CQB/DnqF9NAVQzMtMYhBDGIQIzqGu+4dtOBI7PMgRm8Mdzmo884i6/6ORBLan7oBvej1dQAfOpfdU2CnFBPCGEfFAJreQjAWQgB6Ah+Bnj+fIfGHoGP5oSoGRldiEIMYxCAGMYhxtAwO7S+chp7G/7RvcxI6peyePgSwYlnWtXq9XhSiXkulxvwPIZbdN46LAQBXrly24BlJ7UkAOoZE1/Pnf4D+Oel56BY9oUf/YmB0JQYxiEEMYhCDGPFicGhN4QpEN5hUXl1dq9y6dXubc7bJGLsNsJVGo7EqpVyr1+tb0LaAvsqkwMfi4mVX73HGtAjsKgAvXXqST00V3LQZB7oaEl+G3lGhwh8U+CCGwQZqYhCDGMQgxmAMN4TSZABApVIRAHPCJdhWCluNRuOeUuoegPvQYZRNHKSU3fOOwtCkwIczg+tuWyoFLC9flV0F4NzcrNuexrO2EoD2hsSPI2TXDwp8ECPm5mZiEIMYxCBGPBkWoApKoaCUmveFlWrQS9HcgF6WZg3ATefyPbSuiemuiylNCXw4jObgnTPyx4UQ3UcAFxcvW96V5j3lDXz46xRC9P40zOhKDGIQgxjEIAYx4sHIQNvS5v03AHjXOb0H4N87l994/vlnhQmBD4dhKQXuikp3BLBcLgM4/Ao268qVyxZjsJw7eL1/9s5OUXR4cL8L4EV0af8WQxMqMYhBDGIQgxjEGF2GnUrxFc75e4zxdy0r9e9PnDjxtccem9+amJgoJ6XDh8NI+6aUpVKQH364KldWVtuPADrzxf6whwQgNjZuiy7Dki3Txe0qgSZUYhCDGMQgBjGIYS7DAjAvpZoBGs9KKSvFYrF8/Xp1k3O+Vq/X34eeTr4GPbUcuDRNuzrCUEnaw3C3JxlDU/wBAQLQEX/eYUO3ehF/gdv017BNqHEIMRCjd0bMjcfEIAYxiEGM0WC4LW5z2ruoYNsN1Gr7ZejwyBZ0oGQVut3dpnPagF6epgxtkTtURxgqsaA1nHQDH44IlEtLV1u23yLWzp591GsWhOdc7uwUexF/cO/f9kYKfBDDDOMxMYhBDGIQYzQYeefk9RKWocMkN6B9hH+Cg7RxGbqzyXY+P4H5+TM4osCH1Y7hF3+ATwAuLFxsXvYZEjt5/vzV9v9iaBAlBjGIQQxiEIMYxAjLyAN40jm5tQndxeR1AP8OwBcXFi7WnDDGUYZKpJexvHw1cFSy03StBCCWlw+rxi5lwycCDTKIEoMYxCAGMYhBDGIE1axz+oTDEG+//c47nPM3xsasP8nlcl995pmnVpz/PYouInJ5+Wrb9Q4toKkeW+7EWPCQYQ91CGaQQZQYxCAGMYhBDGIQoxeGBagLUspZ266/0mjsld5889q7Sqk3lVJv1Ov169C+wr6qQ6hEMqZzG53u324EsF/xB+jFFJtQCnwQI2oGYJzxmBjEIAYxiGEmIw8gr5ScFUJiZ6c4L6V8AsC3QodJPgDwFnSIpIg2IRJ/dQiV9LpiS6AAHET8AVoASoACH8QYDiMmpmBiEIMYxCAGMcIyTkE3zHgRehmZdQBfgA6RrED7CLegQySB1aGLiESI0O4hATig+AOcVioxN28SgxjEIAYxiEEMYhwnIwPgAoD/Bnrk7z0ASwB+DcBXgrbfpYsIGGvbpe1Q+R/hwMUY+9ucs59gjJ1PmHmTGMQgBjGIQQxiECMOjNcB/Ar06OB1ADLqLiJdO3aEqeeff5aPjY2VGeO+B+AaK6MbXg1W18QgBjGIQQxiEIMYiWc8CeCvAfgMgL/LGHsJXbqIhE0Ud+3a0Wu5hkTLShXrdSXc+W6AAh/EGKwMNAUTgxjEIAYxiNGp3MWnTzGGec7Z+Y8+WlvOZrNfzefzm9lsVjjIvruIpPp9ZN7yGhI3NjbnGg35qlLy1HCMlRz6BdYvMjGIQQxiEIMYxCCGoYw052yGc/5Nu7ul07ZtVwFUx8asB+n02P7OTrF27dqf9QUaWAA+//yz/NSph5tplDt3tvJC1D+llJqN3ljpvsjeIgYxiEEMYhCDGMQwnvHo/r790t5eOW3b+ysPPzzz0R/90Vf7Vpn+Rx2qFhcvc+gUS3MqeWVltXDnztavVKu1l2JqrCQGMYhBDGIQgxjESCrDllK+BeB/AnC1X0bfIRB3BWr4fISnT8+Wx8bGSlLKtu1HwlRCzZvEIAYxiEEMYhCDGMNgWNDLx/wdoG0buK7VVwjEuwJ182E5keRsNlNhjG1Drwc43c/23epkrExKiIEY4SrBhl1iEIMYxCAGMY6CwQEUALwA4CUAb0B3EQlVoQWgfwVqt5zHKnd2ina9LjahV7HuWwBqY6VXASezawUxeq+j2OfEIAYxiEEMYhjAcGdhvwfAGoYtAN0VqOETf04JoLkC9Z1+HoxbMVytmxjEIAYxiEEMYhAjboxXAXy2V4azmDQYCyEAPYGPoLlm/wrUqwDu9bptt2JgrCQGMYhBDGIQgxjESArjBQBnALwLoNLpH69cuWwBaG6sJ+OgE/hwPX/++wStQL2JPkYAY2CsJAYxiEEMYhCDGMRIEuMJAHOd/mFx8bLlWPW4ay/sOgJ46dKTfGqqYMEj/jw96NqtQB1aAFLggxjHZKYlBjGIQQxiECPJjP8AwNcA3Ai60ZnBdbWbVApYXr4quwrAublZDi0UmyN/3sBHm/YjmwC2oX2BXRkU+CDGCBh2iUEMYhCDGMQYBiNwBNAJ7TYH7xiDBMCFEBLoIs4WFy9bSsFqitOD8gY+gqoI4D70fPRkJ0aMjZXEIAYxiEEMYhCDGHFnPAFg1nuFE9q1lGpO+Up3BLBcLgPoIAAds6D/dgkd+BAdxJ9bGwDegzYoHqoEGCuJQQxiEIMYxCAGMeLOOAXgMWgRuOkkfYNWa8HKyipWVlbbjwA688X+sIcEIDY2bos2077+uge9Nk2gAOxseoxKYRODGMQgBjGIQQxiGM+YzecnLiwsXNwCkGasZdoXACRjkK74AwIEoCP+vMOGboURf8CBADxUwzZWxiHEQIzeGTEz0xKDGMQgBjGIkTTGqbGxsSempgpfg9Zw0g18OCJQLi1dbdFvLQLw7NlHvWZBeM7lzk4xjPgDgC0AH/qvpMAHMWJupiUGMYhBDGIQI2mMWcbYx+A06vBrOL/4A3wCcGHhYvOyu9SLoyJ78fz5awvAiveKBBoriUEMYhCDGMQgBjHizjjFGLsAPYgnvRpuefmqCLpPpxSwBCCWlw+rxh6rBr0czHXG2KWEGitHjSGlVEJKKaD3v9cHaiG4BWBYhimvFTGIQQxiEIMYcWFMV6u1+ffe+6DwxBMf23ZulsvLV+1297UA4Pnnn+GFwhQ8dq/A+eI+SgKoJNxYmVSGK8BXof2YWwCKjLHdbDZrj41ZNcuyapZl2ePj6dqJE3k7nU7X7tzZsjc2NgFPuxgcCEG3I4wrBjMA8p7TCehlf6ZTqdQcgILnlI/xa0UMYhCDGMSIjiGhl4tzBxNaNgH9HdKyvnAfjIHKRIYQIre7W3pSKXwFTm6j030tAFCKNeeLnYpC/M0DeIFzPkuBj6EzpHO6DmD9/2fv/aPbuM4z4edeDEEQhCiQoiiKomhZlkRFUWSt6LiO6zqKrbSJm6Zp0qbNNtvtj5P+Snt2u7v5+n27J6dfv349PT05+bq72Z5st812+ytp2uZHnTRJXTuRVdtxvLYsK4osSzJFURRIQiAIgiAIDGbu/f54Z8DBcAYYAAMSgOc9h4ckQM6D996Zue+893neF1SCZwHAPCjwyw4OxnODg/E8Y0wLh8Mq51zjnKuKEtIURdH6+iK5O3dSWiKxUPWEwcZFaw0CIwAig4PxyOBgPAYgzjkfAhAFEFPV0s6VlZWBXC4XlxJxAEMAhkHS9aG6BsqwLiDsBhgBRoARYHQKRo4xluGcZ0MhngZYjjGWZ4wVGGOFUknNSQkVgApai0rYHPyZP5taAwVACBtrSZhzHlEUJcoYolIiCiAipYwCMqLrckAIOQBKNnjejXKyLpgPRwwpZbRYLB5hDGe9iHYVABXBn9kipMnPFWMMDzDGfpRzNr4RAXemwKCNMVRQxxUzw/ctAJdA9RdnAeTMP9y7dw8fG9sbhvOFI5aXM+qrr1714owZIKqwNZ52wygUCsriYk8km10dk1KOgCqW3wXgIIAD2MggDhhfVS/uLiHsBhgBRoARYLQjhgDd3zMA0oyxbCQSSfb1RRY45ynO+W3OWYoxnuWc5Rjj2fn5hZSUMm/8n4qNdaLmRwcQicX6I+FwOBoK8YGenp4BKRGXUsakFANSygEpZezOnaXdoMTBEGidMHegopavSE3AzpuPejAimqZNehXtbuIAupEF6zHG2BHO2bsZY+/qAmJlO2OkADwJ4EsAvgkg6/RHp07dy4eGBt2Cv1pdXTxZNYxIJFK4666JzLVr0wmHfx0FcALASQDfB+AhUGbQ0dp8PgKMACPACDA6HUMD7SCdA/D3iqJcHB8fS01M7BdmssgmEs3Pzd1udP0QAPKTk4cLg4PxvJTIumFYdiXDIFrRAdC6MQngKKgbxkG4bCsDHTsfnjGkFFEh5EGv67n9EzZtvb3hEV0XnwFwGhSdmx+tU4mV7YZhcvs+Dgr+FqphGHUdI3AW/Kjp9LJ6/vwrTTnjMwYHBYEPA3gHgFMA4m08HwFGgBFgBBjdgHEZwOcAfAO0k1QwOkpEGQM3AzKgHJypy8sZtdnkgY8YCigL+DCAtwK4H5RcGOvQ+WgEw9wV3OvleFV7AddrU1Mn+cWL3/tNAMdBE2H5cJ1LrGwTDA10UT4B4B8AXAGl6F1tauokB81DxYVlmJpIzKt11nbcCgwB4CJIvPI1AAcYw/dxzn8ctHVsSfF3/ZwHGAFGgBFgtBIjC1pL/gF0v00BSMdi/erk5GFu8PDKtYEtVHTf1g8fMTQQLek50Fr5BQDDnPMDoRD/ISlxCpBjKMcmbTkfzWIooC3yIdDc1haB+GEHD949sLqaOyalfA9oC4/7TXrsADFGqzBSoC3epwE8DwqQqk7ssWNH+eBgPAxLYGYJ0NREYqHpi7eFGBkAmcHB+NzgYHyaMcwxxufv3Em9aX29cEIIcQSQQ51O2A0wAowAI8DYJgwNtI68AODbAF4EZQABABMT4+V7u/la5b29+eDv2LHJVmBooAxYGgAOHjwQYYxd55wndV17NpvNHV5dXT2i6+KIEPJAG82HXxhmpY4JANdh0QE4mS8B4KFDB8O9vb0Hrl+f/hBoHx6tID22sRijVRgmEfdJAJ8BcAHGiV3Njh2b5GNjo2U+nnnOGN/F8nJGvXz5StMXb6sx9u7dg7GxvQUpcQXAFcbYwWw2+/D6euEda2trx4QQJt/DlfPhxbqcFBxgBBgBRoBhmgBlyS4A+ApoR+kSLAkFurfvDUu5cW+38vEymYwvwd8WYUBKZACc03XtmVRqaUxRlBOapr0tlVp6CMRBH4IH8YibtemcHwRVBKkaAIaa/WDGFuDw7duJHygWix8H0LPxrt+kR47WEyvbCmMJFPx9BBTN5+1/YLdTp+7lIyO7qwk+1p999vmmBR+txpiaOlnGoIwpEI/vXN61a+hCOBx+fnHxziKIK1jxBFmvteGcBxgBRoARYLQKYw3UoevDoLXlFiylWsz7rpQb9127GMOve/tWYzDG5Y4dsezu3btf27t3z1enp2deAtWu3Q1gsBGcNp7zF0Fb+47CUNPsR6zLzpw5zYvFYvTWrds/MzeX+CiAY9YP1kXEyu3AOAvgzwD8L68YLRJ8KNgo0RIJhUKRaLQv0tPTg1AopPb0KIXR0T2pHTtiWk9PT8FHUUmZF2L3w0IKHgLwnwC8B+XMszdr0zkPMAKMACPAaBXGeQCfB/BfQWLCCtsKwcfQ0GBEUZQRAAO6rkeklGHCkKqqqrlCoZjRdT0N2v1qyBrw4xBoDfkN0NZpTeuAOf9zAL8HCgJdreEtYJP8Pzd3++FUKv12kCQbXUqs3GqMvwERWM95PX4TYgwzaDwGYBwktNgHqrdkEmbN7h8cAC8Wi1xVS2CMCcYg1tbWNM5DOQDpUqmUArAIyljOgeoRLsDjBW2Sgq0Xr0mJZGyTH1kAnwbwOoAPAHjECwbQlnMeYAQYAUaA0SqMx0Frylk43It9FGMooGTBBKg0yxiAPaD1ZHhtbS3OGA8DUKSUBn1HQggphBCarutm95AsNmrcLoLWkqsgcWDWyYcm/EgA+CJoW/xjAB5AjQYFHTDnB+BhW7uhANAkby4sJIfT6cy7i8XiKUBGga0jPXax4ONx0FPac6hR4sW0BsQYo6AL1Az49ho/m0U246CLOA46ifiGHzCePGTZj2JRhZRClRI5EOcga3z2NKhA9aLx+1XQhZyEAzfBTgq28QqdLl4NFGgK43gZAO+Dc+awbG1E2A0wAowAI8BoJYYA8GXQmvI86IG8wpoUY5g1+Y6gcj0xEwjDMAr8c85juq5HAd3Bj02HL2BjLcmCAsEFbKwnCWwEhSkAahN+5I1jLQD4I2OMThs+bVpLOmDOAZoL/wPAY8cm+d69o2EpZfj27cT9hULxYSnFgTYgPdZtbSb4KIBOwj8GBX81xR6ANzHG7Oyc+VRmBncnALwFlPUzL9yqQZMHP8LYkJ8DVArItJzh2/MAvouNQDANYCEW69cmJsZhJwWb5oEUPA0K/hYM3yxS/0prU8JugBFgBBgBht8YeVDG7NMgTtimsmENijGs9/oRULbp+0HryUGUq4A05YfZYnTY9roArRszINXyswCmx8ZGk/39/dlcbi3f399faEBUIkBZxcdB60gOwHtB28NlXzpgzk0bhZG8weZezGWrKwCcmjrJBwfjYSllWNd1nsut/YaU8gAdx2/So1v6s2sx5gB8CsBXvR5dvyUhAAAgAElEQVS/jg4fAwAeBPBuAGdAJ7Vn82GsYqDtgKPG7ynQxftPAP7X5OTh1OBgHDAEHzYTjCHvgXuSBinaPg3go6Abkd9+1LQAI8AIMAKMNsAQoCDpd0Fij022sZ5v3HftYgyX++4QgHeB1pMHUIM35/NYcRjbyQDuA/AzABaSyTvnM5mVb8VisSdOnHjzjEc/3OwF0Bo1Dxq/SAv8cDQfMaLY2MGrEI8aHEnanfR6NIvAgK+sZMcuXXr1PaVS6ZNtRHrsZIznAfwVgP/mFcOD4CNy/vwrx0CchgdBF0xdatktGisRCoWeD4d7vj40NPjk0aNHLlvebpR4/O8AfAh0g2jXOQ8wAowAI8BoFcbjoO3Mrzm92YBQYgzUWeNDAN4PD8mj7RorztkTiqJ8YdeuobPhcPj666/faBRoCMD9jLGvcM6UDphzu30UdB7MmS88+uhphTEIc849ZQANgUEYAF9ezsQWF5NHNU37uTYjPXYqxmVQL98vez1+NcHH1auvj6+urj5QKpXeDtoOHQdlAOsulbJFY8UBebxU0sbS6eUfunDhu5fC4Z6/uOuuiSsrKyu5BmtB/R0oOB4AcKQN5zzACDACjACjVRhPAPhbUGJhk9UplDgG4DEAbwPRhUbgMW7YrrESQtxXLKoHksnUjzLGvgMKgl+s99ixWH92cvLwi9/97vf+pxDyPaAuIoa13Zw7mcm/BEDBn/mzOec1J9IQGCigYIPn8+uHMpns26UURwLBR9MYGVCE/iQsUXo1cxJ8FIuqkk6nB9bXC4/cuXPn3vX1wknQduvIFvnRLMaAlHJAVUujqroywTmPMca+k8+vm9Xpq9YycrA5xtiTnLNBKfGLjLEBJz/aiLAbYAQYAUaA4QeG2QLtGTjwyL0IJebnF8OgjN99AN4J6sd+ADWUsT770QzGkBBiSNd1U+x4GEQ3egEeiiObNjExLgYH47kDByY+Pz+/OLq+XngQkMNb6EezGLsGB+Ox5eWMuWNo8gG5sTVeuxD0vfceD0mJHsbAi8VCz9JS+h3Ly5kPSCnH/SU9moUOaQBaQ6xsO4xvAvjvoJY8eq3jm4RdGJw/TSvxQqEwuLy8cs+tW7cfWFxMfkTTtDOgJ7X+LfTDLwwFkDs1TTuxupo7UCgU+kHjogFYgXll1Da5a9fQcm9vOKdp+lEpcaCN5jzACDACjADDbwwBYB3UMeoLIP5fhXkQfBSmp2dGstnV4wAeBfCvQVUV9gLo2yI//MToBSVBTgC4CxsBUAkUBLquJ9ax2rlzZyKXy/UXi8Xdui5GAam0yZzXsmtjY6OXp6ZO3pKSYj3GKH+jaZr81rfOiaoZwDNnTitSQjGD08XFZDSTWZmUUp5oQ9JjJ2EI4+vjIEVszRp5ToKPlZXV8MLC4n2p1NJP6rr+PvjQ2q+NxuoYKIv5XlBdxN8CjVPNq8IgN4tsdnX6ypWrn8jn1x9G+Ym3q8+rACPACDDemBgFUND3+3Ao8uxR8KGAtnt/GsDDaGA9aeOxOgXgJCgL+HkAfwKXTKDTWO3aNfRFVS0NLC2lDwohPRWLrmVbMFZDAOKWGM7k/olcjlx3zQAaZEEFABij8HR2du6xbHb1nbqu16UidTLGGEIhpwHwl1jZphg3APx/oMCmZvB35sxp3tfXF4Glzd4LL5x/YH5+4fdXV3O/rOv6FBrg+PngR6sxGEjJ9P0APghqY3QHVbaEaawiUQBKb29vcd++sdlbt24PSCnGhZA7uvy8CjACjADjjYehgjhuHwYpVyuihzNnTvNIJBK1rOcWfKiZTEZ59tnnjwH4RwD/Ei7177bAj1ZjMBAn/jSAnwXtvC3DEjC7jVU0Gi2tr69fW17O3JRSvgtNJFu2YqwAIBTiK0ND8YvxePyS4YcEIG/cmJGXL18RgIsTBlmwgiDKGISmaffqun7Ajw/XIWTaVmCkQBfrZ70c3yr4KJVKPJvNjt6+vfBIobD+EU3TJ4QQA7WO4cXadKysNg5SNE8B+HsQb7LiSnHrIrJv394/m59fPLi+vm5K47fTjwAjwAgwAgw/McwWb5uKPFcTfKTTaXVpKX00nV4+A+AnQDy/msWDnayDxgqgXbQRAH8AEl9+JRbrPz85eRjVxDFSyqQQ4kVQ9vDX2sCPKhgcoOxf1OKHACCmp2fK6+amANAgCwKWJwDGgJmZ2ej6+vohKeWoHx+ulQTRNhV8ADQBFwB8BQ4cDbtZBR8rK9lINrt6LJNZeUcms/yIpokTUoqmsn5N+OErhsc5j4K2hM0ipKPYyKCKal1Edu8evpxKLX1lfR0DAB5qxpcOIYIHGAFGgPHGwEiAWoY+CVu9t2qCj9nZOZ7JrDySza6+o1AonAZtkTa0nnTQWJUPBwp0Txg/D0uJ8VKpdI4xaOYf2cUxRuA0CyrZ9l5QEFlXwLw1Y2WWk0EMQMRM4AEQTz55tiJpUhEA7t+/j0tJ/V6taWIpIW7cuDmu6/qYcdCmPlxlBNz1HT6slgR1+XAszGk1a4eP1dVcNJm8c3x5OfOj+fz6Y1KKg2+AsXIzs9L8IdDN7/LBgwfSY2N74dZFRNO0ghDiCQB3g4JIe3V5T7YV526AEWAEGAGGRxMgTtvTAK5Y33ATfOi6xnO5nDIzM3uyVCr9KynlQ6Ddle30YzsxjgMYKZXUA7dvzyt9fZHn+vr6CqGQolnEMfb+8y+A1vB3gdTS7eBHGYOxchwfBRAx/XjqqbObQCoi/snJw0a2ZiP1aRBEVV3X74OlpkxjH45jQ/FiNb8Jom2LcQ7UuqZqj99Tp+6tUPteu/b6wcXF5Mfy+fzPUPC37X5sN0YMVKLgjznnDzPGhmF0EWGVMOUq8Lnc2jSAf4ZLbaxa1sFjFWAEGAFGd2KoAD4HSiqUbWrqZDn4s67njAG5XE65cOG7w6qqflpK+T40Ffx11FhVwxgRQpxZWcl+6rXXrh9ZX18vB03MuYuIAIltZoCNjGENjC0bK8saGAXQawR/jp+zQgRy8OABMzxlACRjKD311FltenpGAvgNAG9GA+VFOoQg2mqMBQD/ERQEupZ8sQo+stnV+IULlx5YW1v7khDisBCyrw38aCeMOOf8sXw+v3ttbW1+9+7hRcvb6vJypvDss89bgWZBIpLH4LGsQReNVYARYAQY3YXxW6Aix+X7XjXBx8zMzZFXX33tMV0XnwWwDw0KGTp0rGphhADEVLX0U6nUUo4xdlsIMW9bP6y2BAr+doG4k23ih9UkX1nJfvvmzdlnhJAlp/8NAcDU1L382LE32TemdVvK8D+C6gE59Z2taqEQRb50Mm6kP/0kPXYAxn8GcBZUnNPxj6emTpoK1lAymRq/dWvuzNpa/j+QglWE2sSPdsMISYnRUqm0L5tdXdi9e/g2Y8TZuHjxe05PbuaH+f46MLplrAKMACPA6HwMFaT2/Q+gxIIG0PoRiUSiMChc1p28a9den1hcXPxgqaT9HCj4a5g/3mFjVS8G13Vx99raWiSdXk6pamm+yiHugGKiN4GybV4xWujHhhGHX7wgpfw2qEbkJlMAQMpN/2wlC5oVpA+gAYXQG1jwYZoK6vjxJRAH0DHktwo+ksnU+OJi8szKyuqPCaEfF0LyNvCjbTCAivOKSylHi0X1oeXltJiZuZmUUk5PT89sqoUFGvsFUJuknwUpgl0faDqQ3BxgBBgBRvdjpAB8FbQFKYDqgo8bN26O37lz5yfX1wuPgTjQDZcw6cCxqheDCyEO5vPrj4HGUgOVi3GyBRCl6xioYPa2+2Gur0II82cFVeK2TWliKQFb5o+DuH91E+ff4IIP00zS6AW4Bn8bgo9sdnUokZg/nc2u/piu6w8DkreJH22D4XBeccoCau+fnp55RUr5OIDrcCiICpqP8yAu4INwOa+7gNwcYAQYAUb3YRQATIO4f+Xgz0nwoWmaksvlItPTM49JKT8IEs41nPnrwLFqBuMYiGteAIkNs9hcs1eAgsOvg2oLlkuMbZcfACBlRaIljCoB4KaTwYEsGEEdSpeND9c1BNFmMRZA7XkcZ90u+Lh8+bX7stnVXxLCDP7axo9OwFCklL8FUmdVIzcLAJ8GXdj1YjT4yQOMACPACDCaxkiCkgnngJqCj8jLL188IqX8HTQd/HXkWDWLMQHg/wQFd24C2DlQMuHFBjEasmoYUm6q9OK6y6UAgIPKxWoRVCE52s3MAFFa0vrh/CU9dgjGAujk+LLTm0bNxQgAJZtdHbh69dqRQqHwF4AMG6noZt3opLHyCyMM4HdAJV8+BVt5BIt9A8APgS7sA23oR4ARYAQYAYbdvgngjwFaP6yFi61248bN+I0bN08LIT6FBos7Ax0/Vn5gcFDdv38P4HE4FNsGZWQ/xhh7iXPG28wPjloBYA3jqKN7QodVBG81xkVQe51NZu3wkU4vxxYWkifz+cJvUvAnfMz8Ne2HAKXB88Z3Mw2uGF8RzlkcYLab0LbORxiUBRSgYDDpcth/AD3lHWgAoyELMAKMACPAaNCuAng5Fuufnpw87Nrh4/XXp8PJZOpdQohfgIs4wau1wA8BWkvyoLVE5ZxzQ7VsbldGAam00XwoAD5ifP8sbOtJLNZfmJw8PP3KK5fOAvIUKuKlbT+vyl3d3N6sZQo8nkSB4KPCsqAA8EX7G1bBx9paXslkVk6urKx8QAj91DYKPnKgjGUSpFROg8jGeVAPXtX40gBgcDCuDA7GFQBRTdN25HJr0WJRjWmaNiCliGuaGDW6xgygAeW41Ro4rzhoC/gRADdBCmynOkgXAbwM4AHO+ViXk5sDjAAjwOhsjOcGB+MX9u7dk3cTfCQSC1oqtfSu9fX1HwYVOd4OwYeZNJjBxnqSAa2JywAKg4NxdXAwLgiGw/icipRS0XWtb25uPiIlBkDB1BCIq30AFIvU5ZMP88FB4pkfNnz4S1j4gBMT42JwMK729UW+VCyq40KIAUDyOjFa6UdTAaCZqarx4bpDYOAjxjSA78GWMrYKPgAgk8kcyGRW3lksqu+SUka30A8NdDJnjK9Z0BPmDRCvIWG85kR+xd69e8rcxfX1grK8vBxbW8sPqWppWNf1kWTyziEAh0GB2DDoQh5BjScSuzVxXoVBN4yPgLZ7Z0BBrtWS0WjfRVVVLwAYa+V51Ubk5gAjwAgwOg8jG4v1P713757rToIP47u4dWvuwPp64SeklA+giexfA35o2Aj00tjgKprriZlcSAEQ5vph90NKgVKpJG7dSkSklMOglp/joHv5vwCtIeZ6MoQayQUf5yMM4H7Dz0sgYWeFAGd4eOjJZHLp3cVicUxKxDrhvPIaAFb9OyIkuqUm/SQ9dhTGN0EZpvLsnDp1Lx8aGiwHfwCQSqV/NJtdPSOlGN1iP7Kg7OQ/geoTbspUupndj76+iNbXt9cMJK8CKBhlhDhIQHQSwNsBfBgeLto6/ahmUQBHQEXMf9/4bGWbmjrJ8/n8pdnZuX8qFtXHGsSoaR147gYYAUaA0V4YlycnD18cHIynTcEHUBn8MYb86mruV0DVDUYaBWrQjwxozXsK1JnkClyEj1NTJ/ngYDzs5AfARW9vb17X9RwoWLRzuA+BArFHAfwgqoj9WjAfA6AOVL8J4AN2P+6552Ail8t/R1WL41LKE51wXnkJAAVcJrLNyZvbiZEB8cvK9YOsgg/zteeee+GDpZL6U0KII1vkRw5UHuX3QCoy17qEbubkh8XUdHpZPX/+FfOYAvT0NweqW/V/AXgYwAdAHL2DDfpRz0cGgJ83PsPnAVy2+BEdHIyn+vv7X3jllUvnpJQPt/l5FWAEGAHGGxCDc/4JUEDk9PCsZjKZ2EsvXTgN4NcaxWjAjySopNbnAPw1KDtW1dlqwhWQH2oNUep14+uzoDXovQB+GsADMKqVtHg+hgG8nzH2i6CAt4IPGI1G/3ptLb8nn88fRxOqa8A3P1zjN8B7ALhpCxDoaDJtqzG+BluFdhiCDymBQqEQXlhYjJdKpY/quhjzM03s4kdGCPkcqF7R86Ct3QzqDP7sfrBKKDWRmLc2zXYyDXTDmAPwFVA3jl+ErSBzi+b8gwCWYrH+xOTk4ayUiDJm+sFS4XDPF4rF4sNtfl4FGAFGgPHGwlABZN785qPn+/ujOWBju9R8P5GY57Ozc0dBmamGrQ4/0qAH+qdA27xJeAj+pqZOugpX4G39sJsGSmRcAfEd3wHgvZyzsdbPOf/1RGIhJaV8fmhoMGf6MT6+d0HXtZfy+fx5ULawCQxfzivX+A3wHgDauVPbTqZtM8GH3b4CelqrEHyYe/aqqg6nUkuP6bp+TErZMEnXtBp+vCClPAeqWH4BxIWr2+x+WLknANREYsHrxWtuFSdAgeAqaHv4JICxFp5XBwG8Q1GUmZ07B55gbOMmFIn0ZvbvHz939er1BSGk5y3qarbd10eAEWAEGJ2PwRjLhkKh53btGkyHQrRUVN5359X5+cXjudzaDwE41SiORz9yIBrNF0CJhMugREdNq9apBI0Ff6alAKQGB+PJHTt2JNbX129mMis/JqU8CmCghXN+NJvNvntgIJbduXPghVAoBFD/eXVtLX8RFJg2HAD6eF6Z4k1H8xJ8mGIBy4fraDJt2VogKtFAF8kzsVh/dmJivELwwRiwvl6IrqxkD62t5T8khGg60KDj2v2AkBI5QM4KIT6HjfpFTkrYmmYXrpjnpfFdLC9n1MuXr9Q7YDkQmXY6FuufEUKki0X1IcYwgXJJGV/nPAzgPiFEemVl5WI8Ppg2/ejt7S3s2zd2/cqVq+dBWwlDzQB1y/URYAQYAcb2YoRCoXQkEvnHUKhnk+Ajk8mos7NzsVxu7QEAj6FB0YcHPwQo0LoEKmv230AqX09OunUqsfrRYPBXtr1796R37x5+cWUle4UxpuZyuXeXSqXjQmAYRkkZP2xjrKAUi+qZ1dXczVwud3VgYGfa4sd1AN8GZUrrXkt8Pq80OHfEAgCEPBwgDGAnqHeq8eHaqlp3O2FkQVm2Tx0/fkyMjOyuEHwAwMLC4j03b86e0TTtJxsFsZqLH0UA35MS/7eU8s9A0vuGroBTp+7lTn4YpgFYf/bZ55u5ukpvecubX+3r67u6uporCiHvr8Tydc4HdF3vzWSy0/v377tmeUswhvz09EwPSGlWd9tDC0annrsBRoARYLQXhtbb2/va8PDQJ3ftGsrbBR/PPvu8UNXSWwD8OIhT3QiGFz+KIPrQfwaVQCnBTEnVsKmpk3xkZLdjpxKrH418djsG56Fwf39U37Nn5Pzqau56sajGhBCHhJC9zRzfNIexiq+vF/KqWkrs2bP7exY/CqDk2jGQaKUZDMMaPq+eA/A0qJQbAOJh3n33AXbPPQeYHcXJIiBF0U0zLckq/q2zyLQtxrgC4HfPnDn9WTgIJe7cSYVv357/5VRq6d+giSADqOYHUlLK/yml/LQQYqYZjDoFH81gRAHw1dVc9Nq11w+srq5+QUo5LIQMt2DOC4wh+aY3Tb41Ht+phsPhwvJymXgcBm1vPII6n6a74NwNMAKMAKONMDjnV+Lx+Jfvvff47wHlwEm13K8UAH8KCv7qWk/q8CMJ4hZ+Ax63e00zBR8bXGsDYbMfDVs1jJs3Z2M3btx8UNf134eL4NCL1RirnBDiLEiIYt0pjYO2gP/JB4xmzqv/F9QMQQWARx89rTAGYY5VTZVKT0+Punv37hTnvMCYPYtkEhJbLmLoBAyNc57s6+s7B6NYpZ1CmEzeeWBlJfsv4N5X0LM5+4EkgE9IKf9KCFHXxWo3i+Bjkx8wOBvNBn9WUrCUQF9fX+Hw4XtmYrHYxxjjLxqq5abNNlZhKTFy69bce4pFNZZIzFtvQhqIK3nV6Th1YBjWMedugBFgBBhthsF56LqihP431ccDYNx3Lferx0AFij136rJjVFqFH2Zdv18HqV3T9RzfTfDh4kdDVgtDCJHWdf05AB8F8c1dt0KrWY2xioKCy5+y/UEOVFpt1gtui84rFUAxFuvXAAr+zDfMsaoZAB44MIF9+/ZqjLEFgKkUYUtsRKb+kmnp+KwCwy/BR4sxkpFI79W77tqfhk0oAQCzs3M8k8m+vVQqHUcTIgNnP8rtdf6HEOJrUsqraPBkB9wFH4bVI/ioiWEVYyhKSOzYEcvv2zf2ZDjc82cgonHDfgCOc84BGVldXfuxW7duj8zPL1qvAQFKmdcVAFY7r7bi+ggwAowAo+sw8jt2xKZ37Rq6bGydqvPzFUIJBcCHQK0sG+qMUcUPDRS4/AmAJ0GCPVchgd1MwQdj4Lasn5MfDZkXjOnpmQIoa/kMgE+DuHme/QA8jZVZ6/YngIryNhpI7HjW+N4MRqOWHRyM53O5NXHmzGluGavyul7zxLnrrv1cSiiMsWlAxgFEOpFM2+ouIoyx2b6+vu+Oj4+VAxrLdzEzMztRKpXuB3CgSRwnP0zu4R8JIZKo8yS3WosEH64Y9nIyUkL09oZTjLEvGp9hGKQQrtuqnVe6rj+cSMwfBd3oUpZ/uwjays/CQ6a2W8jmAUaAEWC0DwZjSAwMxG4MD+9KOAglIqAOGT+IOneTPPqxAApcPo06M39bIfioE8OsYvInAHaD1pRD8JD8qmPOBwA8BMrGXkVl1ZSvgNTZI06YLT6v0oOD8fzU1ElFysosqaZpePrpZ0TVQThz5rRCwR/AObsMyjKhCULiJusWwm5PT89Mb2/4osNbGoC8qqrvlVKOo4nsn4sfApDXAfmfdF2fQxPB36lT95bbuzm8rQHIN5u2t2PYWKiCMcLI5dZSAL4M4I/RgHrZw5wPgMrPHLH9QQbANXjIAnbLuRtgBBgBRnthMMYvhkLKdCiklO+Jlj8fAm3/DqGO7J9HPwRoy/fTqLNk2NTUyXJgZmTiNgk+/Nj2bRAjCeBTAJ6Ah/Wkzjk3ufI/gc0dWJ6ApSZwExiNWBpA3ojhuGWsRC5HMarryWPsF5ffVxTln1W19IgQ/hQu7i7CLs/t2bP76v79+y7Y3lbT6WXt/PlXwqB2ZA1x/2r48YQQ4jOgrcuGbQsFH64YDqTgOVAJmwiAT3rBqHPOPwjgdVBfR+sFeh705OZYx6m7zt0AI8AIMNoNo7c3/FRPj3Ihk8nYAxoO2vb9WLMYLn78OUhY4rk1KOBLh4+twJgG8BlQIuv/cPqDJuf8VwF8C7RumYmYLEgIMgSjTuNWnFcAEAqFFjjnm7afp6dnMD09IwCXNKgR/FWkDOPxnRdCIZ4RPn26biLsMsYuh8Phm729vdaDqonEvHr16vUBAKdBRN2Gij5X8WNaCPEtUNHJhm2rBB9OGB5IwSkAfwfamq0pCqlzzmMA3oTNW8yz1fC66dwNMAKMAKPdMDC3f/++q8WimnS4J46DAonR5jAc/bgK4O9B9f48WzsIPurAuA4KyJ53erPJOY+C+hTbS788b+D6geHJjP7BC4whYxkrAUCYwR/gEAAaZEGY5HyABnt0dE+ip6dnFnVyAtw+XCvJtLRlvXWiklAodDkUCs1xXi6rWBZK5HJrQwB+GBT81dUbsIYfQkr5BIjgmqx2nGq2lYIPJwzGalaBL4CeqP4KNfxs4LxSQLyNB2yv50FBoD2j241k8wAjwAgw2gpDvJjJrCy8/voNJwHcIQBvA+2K+O3HX4MefD2v8e0i+KgDIwfqYPIXsG3L+jDnCqi9qZ1WdAUUAGa35rxiRpYxNM8Yz5jbvoxBPPXU2YpxqghI9u/fx6UENwmDptHeOssD7LsgRVBTH24jAqYBoOjUv9RnpVBiM4YP8Z8VQ0Qiva/29PQkjJPTKpRQQE9qZ1rgx5yU+DroZG7Itlrw4Y5R8+IVAP4G5GvW6Q+aOK8OAngrKm+oAnQT/KZPGJ4twAgwAow3PMbTicSCk3JUAQUXnlqM1eGHCnq4/hzqqPVnFWOYa6qVj+fx3r4dGCkAXwRxHAuAr3N+EjRH1jqyyb6+vtc557NbcV4xaqQlIpHeRE+PkjbH6sknz24CqQj0JicPm1E1LIMtGINKxPzcedA+eoMfrisJu+rQ0ODVHTv6E9gslIiDAoyjTWJYrOzHV0FPFlUl5m62HYKPJjFmQPyKTeKMJud8BDQ/Y7bX07AU8ezSczfACDACjPbDeAbO9/U4gMPwsJ7U6UcGVO7lCspCz+rW5oKPWqaCAt0vAkj6POejAO4BbdWX/RgfH5tRFOXCVpxXRnJFHRyMJ2Kx/oyUEE89ddZR+FKNkyYAaLaU4TlQ+vld8JiCBjYyWd1I2OWcndu1a2ghFovlHYQSxwG8s1kMsrIfAjQ3v4fK8iWerR0EHw1i/CWAfaCnLMXHOR8B8GEA/4/ltSyAZxhjc5yzEcZYuNvO3QAjwAgw2gpDBd3T3QQYj4DWlGYwnP5tBtQtwpN1iOCjpoXD4U8KIe4HPfxb1qmm5/wEaNfvqumHqqrX+/uj31pdzX3YJ4yyVc55+bUXhod3pXfs2KE++eRZ18ogHACmpu7ljz56mpukSoMsqDmkDAsAXkWdCqFuJuwyxl8EkHIRShxAjQvWC4bND7O4ZEP1/rZT8OEDRgbA90A8FT/nPA7gB+wvTk2d5KFQ6DnG7Eqq7jh3A4wAI8BoK4wsqldzeAtIAdwMht3mQFzn2WrHNa3DBB9VMU6ceLO6Y0fsPGPWXU1f5nwiEonce889d5f9GByM58bG9s4BuLo1cQkuAsgkEvNVS95wAJCSlbd+ja9NZEHDBChN7LnkSLcJPuwYUspvJxILGQceQgyUBj7gsx9pAP8ACv7qOoO2W/DhA4YK4Apj7EWfz6soKFAfgPEkaBKPw+Hws4yxbCvOXWC7yeYBRoARYLQRRhbAt10OEQFt/bqqfxv0Y9rArLn124GCj6oY8fhOEYlEvhMKhaZ9nvMhQB7UdX3M9CMcDmt9fZE05/yFVp5XG0k8+WwiMZ+uNVYVXSsA+mcnsk2ItqAAACAASURBVKDFZgB8Bx62H7tQ8GHFEFLKgq7rFxKJeadyIaMA9sNjn0aPfmigzN/Zen1oH8FHcxjx+M7ZWKz/Zc6Z6uN5FQbN10Qs1h+xEo/j8YEXFEVJA1J0Idk8wAgwAoz2wcjCfXdtDJRQcFxPGvRDgNSp52v50MGCj6oYO3bELkUikWkpUfBxziO6ro8sL2eOWf0AkGEMT7fyvAIoLhFCvJBILDgKJiuOYX/BjSxosQwoC1i19lybkGlbiaEKIReM7htOcv0j8FirqQ4/8iAVtlPHEVfrQMGHo01NneQnT74ldffdd00zxmylCnyZ81OTk4djph+MAffcc/eVvr5ICkChi87dACPACDDaC0OA1la3YOwkXBoJNOFHHlQIv2oliQ4XfFTFGBsbTQwNDd4AkPJzzgHEVFU9afUDQEbXxVm/MNziEinlnBByGs5xSYUpANDAwM4A+DiA98EWRLYJmXYrMDKwlQmx2QnU4Gs04McVAP+MOrZ+O1jw4YQRBcDD4XCKc/41XRc/7/OcvwNUBLW8HdLb2ytCIf4dKTGu6+KEDxjtcO4GGAFGgNFeGHOge49bsfu3wxYA+uDHc6DgzzXp0y2CDzeMUEgRAC7ruv4MgJ9qBsM6H1Iiruv6DwD478bbqpQyp2laCsS5PASiiTWM4TLnC6BOLp6srsLEFiuAgsCvwVY0sk3ItFuBkQPwcpVD3IXNfQHrxbBbAhQEerIOF3xUYJgXLz1NsVwoFHrZ/znnxwBErWl7KQEh5AUhhCeSdG2Mtjh3A4wAI8BoL4wFAK9VOeRRVNaW88OPq6hS17ebBB/VMEACmFebwQA2zUdESnnUxY/n4FLPtk4Mw8pzLkAUsa95PV5DrclAGag8qJr2GCiSDZuERLLynrRvZFpK27pj+CX48IiRg/tWbBg0Lo58jSb8WIDHOoxuYgwDsqWCD38xJssYAEyxTK6vr+9ioVD0m0x7YH29EItGi7y3t1eYfgghLkspZ0HnfaMPTWj19RFgBBgBRsdiJGBpF2Y/JGzFhX3y4xpcCj/b77uA/d7unxhjuzGWlzPmutrw/d1hPiJSYnR29pai63rB2n4NwLMAHsHm2rP1YgComPMkKIvsdh5tskYDQNO+AeBtjLEoY+wA5yyyEZ1KI8JuleBjWzE0UATvlo2LAxiG7YmtTgy7mTWianZi6RbBh5Wwa8Xo6VEKQ0OD15eW0gUDv+GgDLCSaTG8spKN9/X1RXp7e/NSQmQyGbVUKs0BuA0K+h15ON4xWnfuBhgBRoDRkRhm5sbp4d6k15Rr1fnkhwbKfG1q++Z037Xy8TIZf8UYbYCRAa2reTSwLesyHxyQsRs3bsZ1XbcrrM+Dxt1zwOlxzk2KmBuNYPNxvf6hi2U553/IOf8bznnCOTXZlYTdPOiCdetNOw5nMUQzfqQB3EENuX43CT6sYgyrUj0Siah33bV/AQ3WQrSabT54Nrs6tL6+HgM2iMe53JrZj9hT9rUGhsW69voIMAKMAMM7hgBl4mYc3jMrFIQJwjc/cqCEQkWw0M2CjyoYZkKn7vt7rfnQNG1cSmlvmnEFtHZ56rricc41ELfwiXo+f1MZQIOYn1DV0h8sLy9/7vXXb5wplUr/Xko5KoSMdDlht5py6hBs2T8f/JhBjdI73Sj4cMJYXi6Tgq+Antg8d6UxzW0+SqXSXl3Xo8vLGftNaBpUouFksxhvAEJ7gBFgBBjeMa4CuAnnh9kogEMt8OMybMFftws+amDkQeuJJ6FfHfNxCA7tSwG8BGoT64pX55w/DuAf4WGH0GoNB4AW8j9XlJAYHIyn3vzmNz2Rz+ev3Lx569jaWn4K1LT6SDM41UmPfj251Y2RAl2wbjYCW3bMBz/SqJLatc6HheNgmi98iq3CkBJRxjYXkmZsE0YCDWYA3eajVCoN3Lo1F8nn1+1+1CJpe8bY5nM3wAgwAoz2wpiB+8N9GMBIC/youHe6CSUM8/Xe3qYYKuoInuqYj02xgGFXDDzXALAOjCSAL8FDPUe7NRSYWYmVUlKKsqcnrIbD4YW+vsjc7dvz16WUF0Fkx3sAHAOVRBkDMATP+95tI/iwWwrO6XrT4jDG1kfhSgYuAWA3Cz4s350u3oa2gKuTaUUsn193yiiaHB0VLtv73jG6ntAeYAQYAYZ3jBm40InGxvaGk8k7I+ZxffQjCaP8S7uIMbYZQwWw6AWnzjnfBec46ypcBDh1YggAfw3andrE56xldQeAJrESLuT/tbV8IZNZmQGd1M+AtugeAkW6bwYFgnHjKwbKKG1aULeCsNuEqCQF2gZ2s0GUA0Df/MjCobBjtws+gKqk4CVUqWHlZB7OK7ct5Szogk2COJ7NYDRtAUaAEWB0DcYNOGQAjx2b5NFoNLy0lN6l63qzGHbLxGL92sTEeDuJMbYTQ4OHAKqBOS8ng2w2C8oAFmBbb+rAMBtD/CkoHqlrLYTLB3O1qamTZoTtRv4v2PbWNVDm6qvGlwJKiZ4E8E7ju9kxoxy1E+nRLf3pJ2G3YYwUqjfPHkCZsOubHwXYsl2nTt3Lh4YG65mPum0rMKznFbMPFaqSgrOo46T3OB+ODySG5UAye9cAsAPO3QAjwAgw2gtjFrYMoHlPzGRWothUecAXP1YnJw+LwcF4WSgBtEaM0SEYphDE1Rqc83J/eZtlAMyDYonyelInRgLAH4LEH57N4EiCsToCQAv5vxYxv5ppoA+dwEaxwjAoKDzOGPv+UCh0HBQUTqAsyW4rwm4CNHGubVYYYxHOGfeZeJyHJQB8Awo+nCwPD11R6pzzMNyviwxIZv+uJjEasgAjwAgwug7D3E0qBx82EQMHZLhJjE3GGMuD7nVOD7vdLvhwMgEXVW6Tc+4WMwEU+F8EMN4AxjOgOsz/oxq43R599LQCy5rpKQA0yP/m3rrdmWb377VYLJaanDz0IoBZxlgMQHR9vRCbn18YzufX7ymVSqNCiFEQh3AUtoxhPeYDmXYOVVLFU1Mn+SuvXIoA0vb5miYeC+PrjSr4cDJP2b8659zpHDctD5fi3x1CNg8wAowAo70wrsKSTLCLGIzvit9+9PT0cJNj1mZijO3CEHBZT5qccwXu60m59mOdGN8A8HnUWfLFCP4AbIxVzQDQIP8roECAbyb/Nz2RYmJinzo4GM/BkuGKRvsUznlUVdXzt27NDeTz63GQgCQOYDc2eIRxUJp12Pg+AKM1mRXERzHGAigTtMlMoYTRC9Aw34QrfHAwzvfuHe0SwcfRegUfTlbzIcBnIngOpN6qKODZQWTzACPACDDaC+M6jMyTk4gBgJASwm8/OOecMcYB39fzThB8uNmm9cSHOS8nbuzGGEsyhhsA84IhQPHRlwH8PYDnUYdq2dhp48ZxuLE1XjsAHBsb5VJCYYyCP/rg9IGI/O8PeRO2VHQ4HNb27NmdWV7OJBxKckRA28ajlu/7QUHgCCgojBpfYcZY2NiWDQPM3NIMG9W6eZ0pdccA0CqUYIxpFOz5SjxWBgfjSvcIPgjDnl2skxRc9fxtkKStwX1bWQVlgPMwtsY7jGweYAQYAUZ7Ybwei/UX3MQYACCEUP33g3DaUIyxXRhGptXygj9z7rpLNTgYT+u6mFtby2kAUxwwcqCkQw5EEUgC+BSIh+6pl7AxVpxinY2x0jQNTz/9jKi6gJ45c1oxgj8np3wl/zu8LeDeUaIA2j93E2KEQdnCg4xhLBQKTXDO9wEYlVJOAHJYSgwDiAth36qtaZsCQLtQgjGoKAcRvj25hUFBR0cLPhzGymr1koI3ZXpNa4KkrcH9ohWgc28awEHOeazDyOYBRoARYLQXxszk5OGCu4hBag6txBoymx99QHlHr53EGNuFYVKe6Bf/5twSC2yY4Uchk1nJXLjw3SwoXrFiCNBu00UAr4CEHhfhsvvoZAaGYu7cgrLJYAwil6OKcq4BoLFfbH9fgIj5mh/kTTRO/q9lKoCFM2dOJ6VEhDEo1kyTlEA+n1eTySRef30mDlLhmNnDYdAW86jx8xA2tp6HQQWgyxxAZ6EESwPQ/CQeK4oyFAqFnPoUdprgwxWjgTkfsh/LB5J2BjVa9DDGznPORoiv2hBGTetQQnuAEWAEGHVYKBQy+8k7ijEA5KSUS81gOPkhpYxLKRW0nxhjuzAUAEMtEvlUVO+w+ZHhnD0nJYYZwyUh8LIQ4oJRR9lzT1+7GRiO1Symp2cwPT0jAJcA0Aj+KlKGjBFJMpGY1/wUGDi87buIAdiUaVLT6WX19u0FYKPDhpmVUmw/K7afrxr/U00osSyl0PxM2zNW5jZW+NFJgg8nDOPnRjH2wCFt3yRJO48qCu+pqZP8u9+9fEMIUTC5Gg1g1LQOJbQHGAFGgFGHjY6OJMPhsApUbvvCuO/Ozs6pqCPr42ROfgghhgGINhRjbBdGGMCeFsx5BpYMoN2PWKx/9sSJ479j4KcTiYVsIjGfhcc+wU5mYJj8SGEZKwFAmMEf4BAAGlkawBKcGYu1L8GfC9HVNJ8IohsCA4fta3V+fkF97bVrJoaKBrpJVBNKCKEvCCEbalFmNatwRUo5BMhYpws+7BhNBH/ARpN0AL6RtF0zgOa529OjTKtqqWByNRrAqGodTGgPMAKMAMM7hhgd3ZMLh8MCcBUxqHDpEuIRw82P4URinicSC+0oxthyjLGx0cji4p2xjXjBtzm/AyO+cPIjFFLy8fjOKzD8SCTm/RirCuWxJYEnnnzybMXxKwLA/fv3mWTBisDJIFb6Evw5CT4M81FUMloDo7VCCU3TE1L6EQBWkFCHpMRAJws+3DEanvMxGFXUfSRp34FD6t1KPO7r65vRdb2gaVonkc0DjAAjwGgzjHg8rtYQMTQcAFbzQ9fFaCKxULOlZTXrYMHHJoxoNBpNJlMTG6/6NucLsVi/uoUdVxQLhjD4f0JKiKeeOrvp+BUB4OTk4fLPNmJl05y/JgQfns0UGLgQRDXG/BMxWDEspgEoSCnnUGUb0YvZSahSYhRU4qZjBR8twDgAIOIzSTsFm8LK3qlkaGhwplAoFDRNaxTD0bqA0B5gBBgBRh0Y9kDAQcRgVh5oGKPSyn4cgHPLS0/W4YKPTRiZzMoAY2y8slSbL3M+Nzl5WN2GsSoLPozgz1HYWE0FLABoTlFjvdZiwUcZQ8pqAgN/RAzVMCxCiavY6FJRl8q4Cgl1eGZmdtfMzGxY07SmVGHtIPhoEiMMIuyO+UzY1UDK8nJfTqdzd2JiPLu0lF7I59ezQoiBzYepz7qF0B5gBBgBRiMYANxFDGbFC7P0VNX1pA4/BkDdtobgoQeu1bpA8FGBsbKSjSSTd4aklEfoHf/mvLe394qxBb9dHVfEU0+ddd2NVABgaupeHo8PWkmVjvvFjVg7CD62AaMAKheTBamHPVs1EqqUGAFwEMD5uh0wrEu6iMQYYydaQNidgaW9XLVOJVLKp4QQGZBy3BQKmbWkTA6G9TX7++W/45wrtv9r1o9N1i2k+QAjwOgmDON+UuueKEAFow+i3B7VO0YVPw6BeNSeA8AuEXxUYOTz68MrK9kDhOfbnKsAMm95yzEtFusXwJaPVVm0W+3/FQCQktkXaV+Cv3YRfLQaw0EoIUBPbWl4DACtgg/jFVhJqFJKSIkxUJ/khgLA7RZ8+IUxNjY6kEzeuW/jlcqxauLiNTO3m85dG3dRlVKeBXAZdEM2Aztu+1Lcfh4cjJtk3TDnvMd8TwjBVbWEVOqOUFXJQS0FnY5hfx1Of8cYUxQlpDDGLa9LLiWg6wJGHUxr+zs3DNcvxiiINTAqjieE5B4wPFkXkf8DjACDfvIugrsKCtZcA8AG/Jg0jnnZiw/dIviwY2haabRYVO/ZyPw1P+eMsQLnfCYe31n+rFs4Vp4rtij0YTdekBLwY9u3WwUfdWDcAJF3D3rBsQk+4EJCHQPwpno+v2ntI/hoDuPo0SO8ry8Sv3Mn9baNpynfCLuXY7H+nBNht4xkEHaXlzOXmgHau3ePI4au61hfL4ilpSWTPmAN6BSHn62vlV+PxfqVnp6eMOc8rCihCGOMS2n+LQWAyeQdLxjW7z3W300MxpjCqctORfAppcTSUhpOn8/2O7BxE9v0PRQK8VCIG62raKCklFxKCSF065xbg0m34zm+Z1x/FRj0PoOUwgmj2vFcMADGOLdc55x8AVDZkcjpOG44m6zbhBLdjFHHOvhdAPe5vdmgH0dANXA53LsfAeguwYcVwxDEjOm6fpTuJ/7MOWMszzm/Yk+CbMFYiXpEu5v4WW5kwXqsmwUfdWBcB20D17Q6iMcTAI7DwwXr5Ac6W/CBqamTvK+vL5xKLY1IiQcq3/Xlye3lycnDeavgw2a+EnadMEKhkIjF+vPr64WmMCYnD9e8BpvN8vuMYQ9mFQDhUCikRKORSG9vJApAkVKGhRBcSsk1TePr6+ua5e/tQaanYBmAEgqFwqFQqI8x+l1KCmClFFzXJTxg1HzNyJIqjDGjt7os/52RJbVnRq3Hg8trFdaNQoluxqjjXnIBLoWBm/DjGGhNUVClFFq3CT6sGJqmcyHEuBDimJ9zHgrxvKIor3gQ+dRtNcYK9cQ+CoB6TsKa9kYRfHjAOA/ilLlaA8TjGIi38QiAJ2v5AHSF4MOKEZ2bSxyanZ27H9SVBX4SdsPhnrOMsQJcCLt+nbvYguujAzE2teDbwntJBc8TKN9I2x2jnBHcsSMWHhoajCqKEhFCcCEk13Vd0TSN5/N5sbaW16QUQO2A0p75Lb/GOQ+Hw+FIKMQrAlwhJDRNE7peElI6ZnYdj2d7LQRAYYwpoVAoTMHyRjAsJRRd14Wul4fJWuvMKXi2B9Lm33HCoECcymQwgB4uuOVewh0w7Nly++sWWgQzaBEbmV76LhUDo66HeADnQJSisrDQB+FKFMBbADwI4KzTH3Sb4MOOce3a60dSqaU367o+2szxgcr54DyU6e+PnrW83ZZjVU0FXLe9QQUfbpYFtY2bA6XZN1mDxOMhAD8CDwFglwg+KsQYuq4f0jTtbfSOb4TdPIDZEyeO52OxfmF9mgLq4ulUtWqikgBj+zBguc47jNBuipUQCoUURVE0xljesv3HpYQ6N3dby2ZXrRhetpXLv8di/Xxy8jAHEOWcO/29evv2vJZIzDv+fxXM8s+xWD9MDNqG34yRSMwLS+Hiasf3gAFuu/dyA0NLJBbsr9ut1lgBxj2RsU33dzWRWBAGRj3zngPxAI+AeHt+CVeOAngADgFgF1wfNTGKxeJ9pZJ2qJnjm2aZj2w02jd36NDdcx5FPp6sFWPlWwD4RhF81IGhgoQgV2ELAL0IPqrYECgDGAfdFBy37LtF8GE9r9Lp5YHV1dxRIcRxnwm7uVAo9KKVsEuvA2gRYdcuKgkwthcD6HhCO2BUb7Bj3Lp1uymMiYlxE6O8TWjHaLaDgQWjnH3fjNFc14oOx9AAfA/ASQCjPgpXxgFMgaoZlAtOd+H1sQljZmY2vLaWf6sQ4kAzGAAqBDiMsaSiKFdjsVgBbT5WTsFaQx/uDS74cLMZEHejwioFH3TxSgmYJNTq8R+iIO7GSbgowrpF8GElukoJ3LmzdCibXX2zlHLcT8JuKMQzvb3hb9vHXUo/z90NPwKM9sOw8nQCjACjHTEYYxcZYzOVgo/N60edNoSNLOCW+NEuGDdu3Dyyvl44DiOj2qjZ54MxPhsK8Vc6YayazgAGgo+qNg3gJesLPhGPOYB/DRKZVDQK7ybBh10oUSgUHlVV9TgpJv0j7CqKkt2xY8c5W8a35YKPAKM9MKw3004mtAcY3Y0RCoUuMIYZKaUAmC1509RuyCiAnwPweLeMlRcMXdc/BKqs0XAizGk9VxRluqen53wnjFVTAWAt8v8bSPDhZhlQjaVnGGMP+Vxp/mcBPGtgLADdJ/iA5cJ88cWXT+bz+fcIIY77W5Wfz8ZisRePH3/TrOXtdhVKBBgtxGhHknaAEWBYMNTZ2dlXZ2ZmX5QS99M7vojghgG8j3N+GkRZclIbd9pYVcPgL7104RCAX0aDMVCVri7TY2OjL+3cOXCl2SoLWzFWDQeAgeDDs6UYY1/inD3kA2HXbj8JIB2Lxb48OXkI6DLBh5SAEDqKxaKyvr7+67quj/tZmwtg4JxfVZTQs2ZqvRNFDAFGcxhoY5J2gBFgWDE4D11VFOX5Ukm730cRHACAMfYba2v5T/T1RS5HIhGt08fKBUObnZ07BOA30ET8U2UX79zt24kr169Pt/1YAc7BW02zEhKte9J+fjgrhsN2ULsJPlztrrv2Z0dHR84xxnKMQdsg7Eovgo9adhLAO3p6lJNOYgzTj1YKPvzFoDlnbOOkLxbV+Nxc4kFN0x7yo+8usEHYZQz5WCx6NR6PX2TMv2DDyQ/ze4DRfhjz8/5i2LdqAowAwy+MHTtic7t2Db0MIN2CTiUPLi2lH15dXZvohrFywpifXxzL5dYeBPCDjeJY1g/Y1vO8EOLb6+uF6632w4/gD2ggALQLPqw3U/gq+KglKmk7wYcjxt1336Xu2zc2zRi7CrBCnYKPWjYM4EFd1x/LZldHgO4RfABAsViMLC9nDs7PL35I18WolI5zVZdZCbuMsdlYLPba0NDgbCsJu6YFGG8cDCtPJ8AIMPzC2LEjlt61a+iqlPKC/51KMJzJrLw7nV6+P59fG+j0sbJjzM7ORZeXM6dAZdQONIJTQ4BzHcAleGwA0agffgV/QJ0p0BqCD9/J/+ZrlgFoZ8GHIwaAcDy+UwuFlC/ouv4LUspYk4TdCuOcnywUCsqrr7528fu+776zlrc6WvABAHfupEZv3rz1kKZp/7KZ45tmJ+xyHjoXiUQuRaN9GnwQK3WzUCLAqI7hci8JMAIMXzFCoRAURUkKIT4HKgfWlNnviVLKhxYXk8lSqTR9/PibvtnJY+WAcQDADwN4TyM4HgScXwCQgEtpNh/9aMoMbiFlFOv5JxD536x2brWWkrSND+ubwEBKRBiDYg5CKzBgE0rcunU7dvv2/Gfy+fzDQohoM8cHNpFQNQD5nTsH3nno0MHZHTtimU4WfADAa69dm0illn5pfb3w88b7DZsLYTe5b9/en9uzZ+ScrutNX1jtIGIIMLYeQ3ZuF5EAo7MxFADXQPX7IvVi1OgiogohXgTwbwC82GI/tmo+DgH4QwAPoc71xEPHFQ3UTOBuUAOIugPArRgrAHj00dMKYxu1Qj1lAA3yv1mEcFPw1woxxlZg2LICLRVK7N49nF9cTH5dCBEH7H1s6zfbk4gCIJrLrf3ua69d+yTn/IV0ernQzPG3Q/BhPOng2rXr4+n08keLRfUMGri52c3pqS0UCn02Ht85ncmsFK5evd7RIoYAY/sw0EUCgwCjozA0AJ8BlW85UC9OjS4iCqg24CcAfATUzaqu9aRdxmp2dk4B1Tr8AxBnvu71xEPHlSSAx0HBX90+bZXg49FHT5fjPROjZgBokP+N5uVESrQEBC2rcm2xjhF8VOuMEYn0FhhjZwEcBhVybkjQwBjg0kVEKZVKD5RK6k9LKSMAngGQ8tsPtEBUYvpVLBbDqdTS8J07S79ULBbPCCEm4HxOeLbNFfOhAcj09ob/Np1eXrh163ZD6foNP7qzM0aA4R0D2Jp7YoARYFgwBCjo+H4QF9yxKYCTeegiwkGdpu4H8OsAPg8qZ5bZdLDm/WjIvGDMzy9Gc7m1IwB+DJT5i6HO9cTDWKmghg+fRwOZv60YK6C8I8Jh9JI2tpRrB4BjY6NcSijMokgxvgeCjyoYTmNVKmmXAfxv0IV1fyM4lV1EAGz0/YQQIgbgfdjI1j4DS3sfv/zwc6zMk71QKMbS6eWJmzfn7l9fX/8Z0MXaVJ3KSsIuYIxVFsALjLEXmm37ZCXsApVZUikhMhl/yc0BRntiWHk6AUaAsYUYFwE8D2rndswLjss9EWZGy/qnoB2gnwcFDf8A6mpVNanQLmM1Ozs3kMutHQPwblC9v3i9OB7HKgHaJn++FX74NFZcysrsoqZpePrpZ0TVBfbMmdOKEfzZrWWCD4sJdFgXEdQWSggAz4Eqr9cdAHrsIhID8H5spPD/0uvxt6OLiDknyeSdAzdvzn5AVUu/Cl+2fV3Hak5K/JeVlWxTmb9uEzEEGN4xXO4lAUaAsdUYAsDfwmMA2GAXqhiAXwNwELTl/HgL/PBsdWCcBG1fvw8NcMjrGKsXAHwJDWyRb9FYKebOLTb6hItcjmp9uwaAxn6x/X0BIlBrHUTSbnkXEdQnlLgO4KsA3grgx71geCCh2v9FAXACwF+AnoD+C+hp0fUk3a4uIteuvT6cSi39SqFQfEzXdU9PsdWsxlhdEkL8LYAnmsHoJhFDgOEdw8rTsWN0UZeEAKOzMC6BApARuKhbG1g/7KYAeC+AB0EJjF8CkAZtf/rlR03zgCFeeunCAIBPAngMDfT4rXOsngfw9wDO1oOxhWPlWDZtenoG09MzAnAJAI3gryJlyBgEAC2RmNcCwcdmDMu+vReMORAp9Qw8bHV6IKFWszMAJkAn6T+CTtqK7NdWCT5MjGJR5dns6vDCwsL9q6trv6Cq6kEhxEgzxzetyljlhJDnAHyxmeN3m4ghwPCOgfYg/wcYAYbdXgQJHe4HBYIV1uT6YbU4KAj8CwBfAfDNWKz/yuTkYbGdY7WwsKCl05mDq6urD4Fq/N0HGo+6rY6xygP4HCgg9sUP+DtWJg1MWDAEAGEGf4BD4GE8TQOW4MwICHwJ/moJPvwhiG6v4AO1hRI5UEbui6jypMKYq+Cjni4iI6ALdwikFrsPxA2cHhyMZ/fuHRVbJfhYWclG1tbWDq6vF46ureXfkslkTmia/qAQwu18qMtqEHbPAngKwHSjx+9WEUOA4R0D2Hbyf4ARYNgtBQoC/wa0XVs2DyKGekwBCU4eBiUu3qTr4uXV1dXLAK7EYjGtVyXHJwAAIABJREFUp0cRWzFWmqYhn19XUqmlI8vLmWNra2v3qmrpFGjr17Mgxmp1jtXjoODPc9HnLTyvygk8C4YAIOz9iSsCwP3795lkwYrAySAk+hL81RZ8+IGx/YKPGhgCFAR+BsTfiMJBFVxD8FHPRw6DOCKHQBnBuwB8p68vMhON9mWy2dV8X18kGwqFBAWcnv2oapxzPja2N9rfHx3KZFZGksk748vLmbcWi8UHhRAnpZRx/6vZO47VHGib5AXUydUwrZtFDAGGd4wWkbQDjACjGQwNwCyAPwVt1Y4AiNQh+KjXwqBSZidUtXj65s1bzwwP7/r6rl2lZG9vbxpAljGW1XXd17HStBIvFtWorusDxaIaz2Qyw7Ozc28HFcQ+hAYrawB1iWNU0Pb3Z0B0Lk/ryRaeV4oFQxj8PyElxFNPnd10/IoAcHLycPlnGyGxac5ftwk+rBgWq1co8RxIXWVK7svWIGG3loVB2cZ/C6CwuHjn0tJS+plwOPzP99xz9zMDAwNqOMxFA344Wl9fJLyysnJwaSn9gK7rbxdCvBdABJAKtc5p2I8K8zBWfwfgHGjrvW7rNhFDgOEdYwtI2gFGgOEHRg7AeZDo78Oc84kWrB8VxjmPMsaO6ro4urh458PJZOq5UCj0dCjEn+OcP7e6mvN1rFZXc8rc3O2jq6u5+0ol7Qd0XX8IDah7HfyoZ61NA/gGgCe9Hn+bzquy4MMI/hxFjxUeW2rFmNuBmj1l2IhtpeCDtbjDhxOGYY1iKAB+FlR1/bgPhN2a5oJRAHBZSnlJ1/VXQU83V0FlZDKo/qQTBz11joG2mQ8zxh7gnB9njA2h4kGj5X5YMTKgrfZH0WB7nm4SMQQY3jHsvEJg414SYAQY7Yqxf/8+ZWlp+ROqqr4XpNw1bEvvu2YS4TlQ/cDXQNSbOVCmslq3DAVANBQKHejpUQ4yxg4KIe4RQh6VUj4AyIgQkm+RH/Z/SYCCv4/CY+ZvG88rYSbvnnzyrOr2vwoATE3dy+PxQSsZ0XG/uBHrRsGHzxgCwDdB6tiPc85GfCLsuprL005YCHlESjkGKppZABFdVRgZQePLPJk4KKMYNb6bXxEAUc7ZgPGeLfhruR8mRg5Ut+q30URvRvuFZV4jrANFDAGGdwx0Bvk/wAgwKjB6e8ORUEj5fDqdjuTz6z8OYHiL77sA+aiA+HhHQOuIdf1QLb8L40vBxvoRBhDRdT0CICqpkkeUgj/Bt9APq+VAwd8fw6J+rmbbfF4JGLqNav+vAICUzB7Q+BL8daPgwwmjSaGEGByMz0Wj0XPpdPqzpVLpVwEoAOMNCD6qGmOoJirhUoqYlI4EWvMiNYNBYOMir5jfzRiA334ANQm7KogU/TkQ769u61YRQ4DhHQNoe/J/gBFgbMIYGRm+LqX4uqbpMVVV3y+EjPpJt/EolOCgnSGnLVozQ2h+AbSWKAAUzrnRcUzWwtgKPwBa974GKvlyCR7avW3zeVUO/mphKMAmAjWcyIKNfLhuFHy0AmPv3j1aPL5zlnP2p4uLdx4UQhwF5IBPhN2yNSEqMakBNTtz+Chccf8w1Qm7AsAVUJmCx0FPn3VZN4sYAgzvGFaeToARYHQKxsDADlXTtBdVtYRk8s64EOIhNNlVCahLKFHzUNjYMWoVhjt4/RgXsFHyJVfr+Nt8XglZh2h300nhRhasx7pZ8NEqDABicvLwzMpK9rcLheJvC6GfBKSyhUKJbsEoAPg0qNi2Z4m+ad0mYggwvGO4XOcBRoDRcRhDQ4M5xtgLyeSdj4HKX9noOPVZm9zbtwNDA/Bx0I5Sutbx2+C8Qj1xyeZbapPW7YIPvzHg0H3j8uUrp1Kp9C+oqvpBOAfRnm0bRSVbjWFuUf8I6GL11Ljcat0kYggwvGPYeYVA55H/A4wAowrGg6C2oPehzvWkTe7t24EhQNu9vwXgy14w2mzOPVnTaWGrBYKPxjCsEwkAd901cYkx9qe3b8+nAfwimuiN62MV+HbG0EDbvn8ECv5qpunt1m0ihgDDOwa6gPwfYAQYVTAugQLAfwXgXaijN24b3Nu3A0MDCTP/CtQ0oaa14Zx7Mt8CwDeK4GMruoisrGRz+fz6edCJGAbwM6Ag0HO3DMZQTfCxFaKSrRJ8FEBBn8n5qzvz160ihgDDOwbQ+eT/ACPAcMHIgvhrCmiX5DF4KJrscxeRTsEogGr8fQEUBKZqHb9N59yT+RIABoKPxjFsi5sVIwMKbJKgek4nQG14PM3ZVogx2kDwkQfV+ftbUJp+tt7jd7OIIcDwjmHl6QQYAUYXYiRBAU0W1CrtNNx369pVjNFKDJNC9Byoo8pz8MAhb/M5r2lNB4CB4KN+DDiPlVP3jTxoa/NXAPweqOXNcC2cNiXTtgJjBsDvgtL0dWf+uk3EEGA0hmG9mfqJ4XIvCTACjO3CSAM4CyrO/BVQ+7RNZb/a5N6+1RgqqNDzR0GJhJrVIzpkzqva5ttsHeYmYjAsEHzYMFBlrDxgRAH8OICPgAo1b7I2JdO2AiMFupH9HOhCrRu0m0QMAUZzGOZ13o4k7QAjwGgRRhTAvwPwE6DdpXa5t28HxlVQ1YjfgcdEQofO+SZrOAMYCD4aw7BOZJ0YBQBPgJ5SfgTAr2KjPh+AtiTT+o2hCSFfABXk/CoaDP66TcQQYDSHgTYmaQcYAUaLMAoA/hzU8vNHALyfcxbp8vXDjqGBCjx/BZRQ8CQe7OA532QNBYBWQqL1ZmoENr6THh22g7pG8FFHFxEB4iTkQTwODuBhAAcZQ+wNIPhICCHP4f9v7w5+48jyOoB/X7vWsTOOtx1lJomDZ2dHm7G0QhtEBALtxchGHECIE0hwgz+CMzcEF/gH4LBaicMKTgxC2GBLQUKz0ijsjkYrZrfHk2ScmRA5xtOJM075PQ6vqvOquqrL1V3dfu9X3ydFayXb/vS07aqf632/XfY9re7Bbo3XXlJLDDT8MoBwguA0WmloAA9WVrqnly9fPj48fHb46tWrP4C9p/u8B2WMaRqnsFf6/hHAv8Fm7c+VHw/8az60ag+A+cJH7mDaYOGjqlQiqvBRZx3D3t7saRRFXwL4La31d5N7CCffMFIKH9DG4CVgvtBab8PW8n+CMfJ+gOwSAw2/DDenQ4OGr8bNm9efdLvde3Nznf2vvnq+cHJy8qtxHL9jDLqA6QgrfGjYc8cD2PPI3+KceT9AztfcXbUGwIrCR1GJofYqMpwXQHLho+7qXbly5S+11vdOTk7+RGv9x8i8v5OIwG4MYF9r8/cA/gav7xtZe0kuMdC4eKPkWEKDRggG3nvvO4+eP3/x55988ovfOz7+6o/Ozs42tDbnfr/AUcujwkcMe7XvhwD+AfZK4LmWlK85MMgW2l29Og/C6/eiy+f+ZhLSblHho5bx/Pnz+c8+e3jt6dPDv9D6bENr81bogV2l8O+A+oHW+v2zs7MnkxjSSww0Ls7I5wqB8ILgNGi4xoMHD6NPP/3svTiO/wzAn6LG+8+6y7PCx49gbxH6IWruIF3016MpAwA2NzciZe8XDKXOeQUwKTGke9JDw980yhizMHJXBXwqfNQyFhYW4m996+2nq6s3//qTT37xT8fHX30fNh/4vUmcCwjsHiuFjxYWFn+4tnbr/tHR//UODh6Ptd2brosuGNCQbSDwIDgNGnnj7Ozs5dnZ2cewdw/ZA/C7AH4DwDt1HA8KH49gr/j9C2xu/AA17xLlw9ejqczf5ubGYN5LjcoBMCkxRLDDRsfdk27qyVXdRaSFhY9aRqczp9944/IpgI/m5ub2jTH7AH4K4A7sD+67sO/8fq7f5JQCZlgqiQG1H0XR/ywuLvzs2rWrP/3GN+a3T0+/fnpw8PjlJIbUggENvwwgzCA4DRpFRq+3r2G3R49h3zvwCwA/hj2ffBf2wkKEEeeTiyl8AABirc3HWpuPAfw3bNbvPuzwV2v58vVoYvhLdkQ6sDnITrKlXD0Arq7e6BiDSKnXg1Pyvyx8jDCKX6vpG4eHz57C3r7mPoAbAP4QwK/B/vZ2DcBVVNwGaNqFD6VwqlSnPzfXOZqfn3906dLChwsL8/+5vLx8/9at1S+Ojo5eNPNaySwY0PDLcHM6NGgIM57C3hrtA9gLCRuwW6hvwZ5PlpF7M+kLKHy8xOth9YnW+l9h39blZ8nf1V4efz3GMTrGZK8uxnGMvb17euQAuLW1ESXDX35NrfDhLI3A7iKCKZZjxjBewt4p469gf0B/BcDvANiCvSpYuGYU2H0yNzd3f24u+o/r19/60c2bN/qLiwsxGvqaSysY0PDLKDmW0KAh2TiGvahwH8Dfwd6V6rdhb0owiBpdUOHjUafT+S+lsAPg/TjGRJnxQL4e5zWidOcWGGT/dL9vd8KHD5XJ2rRhwbQo4Wb/Tp89O4oDCmmLKnw0ZLwNOwT+JoBfB/A9pdTSlAK7p7D3ofyJUuqfv/nN5ftra7ceXL/+1nH+/xdS+J9G+4x8rhAILwhOg0bDxjyAa0qp35+bm/s+7IWGdzF4R4qmCx+dl0qpB0qpj6Jo7sdXrlx5/9133/liaemN4wBeq1kb8+5VRdgBUH/66b5OtvmLt4A3bVgwc8lQKWgA8cHB45iFj2HD/UIGYDyBvUT+YRRFP1hevrL89ddf/7LWek1rvWqMuWGMuWoMVrU2S1rrsuEzXS9gw7WHsFsGTwD0ADwE8GhpaenJ+vp3jgG8iKKof+nS/KB+n37Thxb+p9E+A4EHwWnQaNpYWnojXl+/fQhgWyn1QRzHy/3+86tffvm/N05PT2/H8asbWutrsNvFaQQpfTeRopXmDw+RPZ8cXL68+Nmbb775aHl56XB+fr6vlDqem5s7XFxc6IfwWs3YSHOF2jE0gMHwBxSc1JPfpgHnC5QMHY0Mf1WFj2aClXILHw0ZL5M/T7797bejxcXF+Vev4kda66vG6KvGmC6AJWOw9PnnB/MnJy8XAFyC/W0v/Z5Jt2xPATxPPl8/+XME+0N7uLLSPbx588aLpEg0n//vaOokLbVgQMMvAwgzCE6DxjSMt9/+JaysdAF7vH9ydnbWWVxcjObn57txHH/w8OHn3ZOTk2W8zgouAVjE63NJursYO39OkJxLVla6xysr3T6A40uXLj1dXr5ytLi4cDo3F+nQXqsZGpmCjnMBT29v72Y+f2YAXFu7lYYFM4OTsYHERoa/6sJHE0Y7Ch8NFSUi2O+DJ8mfdOlnz45e/PznPZ38ewT7m1v6usaww1/6p3DdvHn9HP8dYYb/abTPcHM6NGjQyBrpO1Jcvnz5i6Ojo97JyUmREcGeD9wh8BTZcwqA9Pwh87WakhE5hjY2/6eNgd7Z2R36/JkBcH399uBj98kphYkzf9IKH67hrIsqfEzbSH8zq/W2LLP475BWMKDhl1FyLKFBg8b4Rno+GXkLtgD+O3w2BoWPZPgrvIvWqFyXBhAXTY111ywLHygpSjx71txdRMoMTwsf0g0RBQMafhluTidvHB3RoEGDRhCG3tnZLd2hiwDg7t07nW53xQ0jFu4Xj7MkFj5mYTjZABolhhFUMKDhlwEZQXAaNGi009BIehujHh8BgDEqf5JuZPiTWPgoMjwvfAg0ZBYMaPhlAEEHwWnQoNFOYzD8VRkRMBSgRhPbvlILH7Mwcic3GkOGzIIBDb8MN6dDgwYNGgEY2tQo7Q7ls8rCgnWW5MLHtAz4U/jw1pBWMKDhl1Hyc06DBg0aoRioM5dEADDpE3JXWwofTRmQU8Zg4YNGkIaRHwSnQYMGjaE18l7AdRcLH+MZTjaARolhBBUMaPhlQG4QnAYNGjRKV2MDYFsKH7yLyKwNmQUDGn4ZgLggOA0aNGiMXI0MgCx8jG/kTm40hgyZBQMafhluTocGDRo02mBMPACy8FHfQOBlDBY+aEgy3INpk0bJsYQGDRo0vDAmGgCrwv8sfGQNyCljsPBBQ5zhY0ibBg0aNKZljD0AsvAxnuHs29MoMYygggEN/w14HNKmQYMGjWkYwJgDoBtIdA+makqhx4LtIBY+RBoyCwY02mcA4QTBadCg0S4jXbUHwHzhI3cwbbDwUVUqYeFDniGzYECjfYab06FBgwYNXwx31RoAKwofjYf/079zXgAWPgQakgsGNNphlBxLaNCgQcMbAxhkC6FUjQHQCf9fYBCchQ+hhviCAQ2ZhhEQBKdBg4Z8AwA2Nzci2HdnAXDOATAJ/6d70vknOJUyxiyM3FWBoIoSUgwjvGBAQ7aBwIPgNGjQkG8Ag+EPrlE5ACbh/wh2EOi4e9JNPbmqu4iw8CHbAOSE/2m0zwDCDILToEFDvgEMdkQ6sFf/OsmWcvUAuLp6o2MMIqVeD04qE/5n4aPIKH6taOSN/NXFpoKukgsGNPwy3JwODRo0aHhmdIzJXl2M4xh7e/f0yAFwa2sjSoa//Jpa4cNZGoHdRQSBlzEuwsh9bwUX/qfRPqPkWEKDBg0avhlRunMLQCeG7vf7AEZcAdy0+8X5f9ewAeo4oJA2Cx+BGCGF/2m0zzACguA0aNBojVF0IQe93j56vX0NlAyAyfCXuWSoFDSA+ODgcczCx7CR38qkcT4j+Ti48D+N9hkIPAhOgwaN1hhprlA7hgag0+EPKBgAk9+mAWc4S07WjQx/VYWPZoKVLHyEYjR1kpZaMKDhlwGEGQSnQYNGa4zBBTzH0AD09vZu5vNnBsC1tVtpWDAzOBkbSGxk+KsufDRhsPARlhFm+J9G+ww3p0ODBg0anhmRY2hj83/aGOidnd2hz58ZANfXbw8+dp+cUpg48yet8OEazgq2jBGqIa1gQMMvo+RYQoMGDRo+G4PCRzL8xUWPG9UC1gDioqmx7pJU+BhlSCljBGaIKBjQ8MswcoLgNGjQaK+hd3Z2T8seGwHA3bt3Ot3uihtGLNwvHmdJLHzMwnCyATRKDCOoYEDDLwMyguA0aNBop6GR9DZGPT4CAGNU/iTdyPAnsfBRZEgoY4RlyCwY0PDLAIIOgtOgQaOdxmD4qzIiYChAjSa2faUWPmZh5E5uNIYMmQUDGn4Zbk6HBg0aNAIwtKlR2h3KZ5WFBessyYWPaRkIvIzBwgeN0I2Sn3MaNGjQCMVAnbkkAoBJn5C72lL44F1ELsQQUTCg4Zdh5AfBadCgQWNojbwXcN3Fwsd4hpMNoFFiGEEFAxp+GZAbBKdBgwaN0tXYANiWwgfvIjJrQ2bBgIZfBiAuCE6DBg0aI1cjAyALH+MbuZMbjSFDZsGAhl+Gm9OhQYMGjTYYEw+ALHzUNxB4GYOFDxqSDPdg2qRRciyhQYMGDS+MiQbAqvA/Cx9ZA3LKGCx80BBn+BjSpkGDBo1pGWMPgCx8jGc4+/Y0SgwjqGBAw38DHoe0adCgQWMaBjDmAOgGEt2DqZpS6LFgO4iFD5GGzIIBjfYZQDhBcBo0aLTLSFftATBf+MgdTBssfFSVSlj4kGfILBjQaJ/h5nRo0KBBwxfDXbUGwIrCR+Ph//TvnBeAhQ+BhuSCAY12GCXHEho0aNDwxgAG2UIoVWMAdML/FxgEZ+FDqCG+YEBDpmEEBMFp0KAh3wCAzc2NCPbdWQCccwBMwv/pnnT+CU6ljDELI3dVIKiihBTDCC8Y0JBtIPAgOA0aNOQbwGD4g2tUDoBJ+D+CHQQ67p50U0+u6i4iLHzINgA54X8a7TOAMIPgNGjQkG8Agx2RDuzVv06ypVw9AK6u3ugYg0ip14OTyoT/WfgoMopfKxp5I391samgq+SCAQ2/DDenQ4MGDRqeGR1jslcX4zjG3t49PXIA3NraiJLhL7+mVvhwlkZgdxFB4GWMizBy31vBhf9ptM8oOZbQoEGDhm9GlO7cAtCJofv9PoARVwA37X5x/t81bIA6DiikzcJHIEZI4X8a7TOMgCA4DRo0WmMUXchBr7ePXm9fAyUDYDL8ZS4ZKgUNID44eByz8DFs5LcyaZzPSD4OLvxPo30GAg+C06BBozVGmivUjqEB6HT4AwoGwOS3acAZzpKTdSPDX1Xho5lgJQsfoRhNnaSlFgxo+GUAYQbBadCg0RpjcAHPMTQAvb29m/n8mQFwbe1WGhbMDE7GBhIbGf6qCx9NGCx8hGWEGf6n0T7DzenQoEGDhmdG5Bja2PyfNgZ6Z2d36PNnBsD19duDj90npxQmzvxJK3y4hrOCLWOEakgrGNDwyyg5ltCgQYOGz8ag8JEMf3HR40a1gDWAuGhqrLskFT5GGVLKGIEZIgoGNPwyjJwgOA0aNNpr6J2d3dOyx0YAcPfunU63u+KGEQv3i8dZEgsfszCcbACNEsMIKhjQ8MuAjCA4DRo02mloJL2NUY+PAMAYlT9JNzL8SSx8FBkSyhhhGTILBjT8MoCgg+A0aNBopzEY/qqMCBgKUKOJbV+phY9ZGLmTG40hQ2bBgIZfhpvToUGDBo0ADG1qlHaH8lllYcE6S3LhY1oGAi9jsPBBI3Sj5OecBg0aNEIxUGcuiQBg0ifkrrYUPngXkQsxRBQMaPhlGPlBcBo0aNAYWiPvBVx3sfAxnuFkA2iUGEZQwYCGXwbkBsFp0KBBo3Q1NgC2pfDBu4jM2pBZMKDhlwGIC4LToEGDxsjVyADIwsf4Ru7kRmPIkFkwoOGX4eZ0aNCgQaMNxsQDIAsf9Q0EXsZg4YOGJMM9mDZplBxLaNCgQcMLY6IBsCr8z8JH1oCcMgYLHzTEGT6GtGnQoEFjWsbYAyALH+MZzr49jRLDCCoY0PDfgMchbRo0aNCYhgGMOQC6gUT3YKqmFHos2A5i4UOkIbNgQKN9BhBOEJwGDRrtMtJVewDMFz5yB9MGCx9VpRIWPuQZMgsGNNpnuDkdGjRo0PDFcFetAbCi8NF4+D/9O+cFYOFDoCG5YECjHUbJsYQGDRo0vDGAQbYQStUYAJ3w/wUGwVn4EGqILxjQkGkYAUFwGjRoyDcAYHNzI4J9dxYA5xwAk/B/uiedf4JTKWPMwshdFQiqKCHFMMILBjRkGwg8CE6DBg35BjAY/uAalQNgEv6PYAeBjrsn3dSTq7qLCAsfsg1ATvifRvsMIMwgOA0aNOQbwGBHpAN79a+TbClXD4Crqzc6xiBS6vXgpDLhfxY+iozi14pG3shfXWwq6Cq5YEDDL8PN6dCgQYOGZ0bHmOzVxTiOsbd3T48cALe2NqJk+MuvqRU+nKUR2F1EEHgZ4yKM3PdWcOF/Gu0zSo4lNGjQoOGbEaU7twB0Yuh+vw9gxBXATbtfnP93DRugjgMKabPwEYgRUvifRvsMIyAIToMGjdYYRRdy0Ovto9fb10DJAJgMf5lLhkpBA4gPDh7HLHwMG/mtTBrnM5KPgwv/02ifgcCD4DRo0GiNkeYKtWNoADod/oCCATD5bRpwhrPkZN3I8FdV+GgmWMnCRyhGUydpqQUDGn4ZQJhBcBo0aLTGGFzAcwwNQG9v72Y+f2YAXFu7lYYFM4OTsYHERoa/6sJHEwYLH2EZYYb/abTPcHM6NGjQoOGZETmGNjb/p42B3tnZHfr8mQFwff324GP3ySmFiTN/0gofruGsYMsYoRrSCgY0/DJKjiU0aNCg4bMxKHwkw19c9LhRLWANIC6aGusuSYWPUYaUMkZghoiCAQ2/DCMnCE6DBo32GnpnZ/e07LERANy9e6fT7a64YcTC/eJxlsTCxywMJxtAo8QwggoGNPwyICMIToMGjXYaGklvY9TjIwAwRuVP0o0MfxILH0WGhDJGWIbMggENvwwg6CA4DRo02mkMhr8qIwKGAtRoYttXauFjFkbu5EZjyJBZMKDhl+HmdGjQoEEjAEObGqXdoXxWWViwzpJc+JiWgcDLGCx80AjdKPk5p0GDBo1QDNSZSyIAmPQJuasthQ/eReRCDBEFAxp+GUZ+EJwGDRo0htbIewHXXSx8jGc42QAaJYYRVDCg4ZcBuUFwGjRo0ChdjQ2AbSl88C4iszZkFgxo+GUA4oLgNGjQoDFyNTIAsvAxvpE7udEYMmQWDGj4Zbg5HRo0aNBogzHxAMjCR30DgZcxWPigIclwD6ZNGiXHEho0aNDwwphoAKwK/7PwkTUgp4zBwgcNcYaPIW0aNGjQmJYx9gDIwsd4hrNvT6PEMIIKBjT8N+BxSJsGDRo0pmEAYw6AbiDRPZiqKYUeC7aDWPgQacgsGNBonwGEEwSnQYNGu4x01R4A84WP3MG0wcJHVamEhQ95hsyCAY32GW5OhwYNGjR8MdxVawCsKHw0Hv5P/855AVj4EGhILhjQaIdRciyhQYMGDW8MYJAthFI1BkAn/H+BQXAWPoQa4gsGNGQaRkAQnAYNGvINANjc3Ihg350FwDkHwCT8n+5J55/gVMoYszByVwWCKkpIMYzwggEN2QYCD4LToEFDvgEMhj+4RuUAmIT/I9hBoOPuSTf15KruIsLCh2wDkBP+p9E+AwgzCE6DBg35BjDYEenAXv3rJFvK1QPg6uqNjjGIlHo9OKlM+J+FjyKj+LWikTfyVxebCrpKLhjQ8Mtwczo0aNCg4ZnRMSZ7dTGOY+zt3dMjB8CtrY0oGf7ya2qFD2dpBHYXEQRexrgII/e9FVz4n0b7jJJjCQ0aNGj4ZkTpzi0AnRi63+8DGHEFcNPuF+f/XcMGqOOAQtosfARihBT+p9E+wwgIgtOgQaM1RtGFHPR6++j19jVQMgAmw1/mkqFS0ADig4PHMQsfw0Z+K5PG+Yzk4+DC/zTaZyDwIDgNGjRaY6S5Qu0YGoBOhz+gYABMfpsGnOEsOVk3MvxVFT6aCVay8BGK0dRJWmrBgIZfBhBmEJwGDRqtMQYX8BxDA9Db27uZz58ZANfWbqVhwczgZGwgsZHhr7rw0YTBwkdYRpjhfxrtM9ycDg0aNGh4ZkSOoY3N/2ljoHd2doc+f2YAXF+/PfjYfXJKYeLMn7TCh2s4K9gyRqiGtIIBDb/cKfDVAAACIElEQVSMkmMJDRo0aPhsDAofyfAXFz1uVAtYA4iLpsa6S1LhY5QhpYwRmCGiYEDDL8PICYLToEGjvYbe2dk9LXtsBAB3797pdLsrbhixcL94nCWx8DELw8kG0CgxjKCCAQ2/DMgIgtOgQaOdhkbS2xj1+AgAjFH5k3Qjw5/EwkeRIaGMEZYhs2BAwy8DCDoIToMGjXYag+GvyoiAoQA1mtj2lVr4mIWRO7nRGDJkFgxo+GW4OR0aNGjQCMDQpkZpdyifVRYWrLMkFz6mZSDwMgYLHzRCN0p+zmnQoEEjFAN15pIIACZ9Qu5qS+GDdxG5EENEwYCGX4aRHwSnQYMGjaE18l7AdRcLH+MZTjaARolhBBUMaPhlQG4QnAYNGjRKV2MDYFsKH7yLyKwNmQUDGn4ZgLggOA0aNGiMXI0MgCx8jG/kTm40hgyZBQMafhluTocGDRo02mBMPACy8FHfQOBlDBY+aEgy3INpk0bJsYQGDRo0vDAmGgCrwv8sfGQNyCljsPBBQ5zhY0ibBg0aNKZljD0AsvAxnuHs29MoMYygggEN/w14HNKmQYMGjWkYwJgDoBtIdA+makqhx4LtIBY+RBoyCwY02mcA4QTBadCg0S4jXbUHwHzhI3cwbbDwUVUqYeFDniGzYECjfYab06FBgwYNXwx31RoAKwofjYf/079zXgAWPgQakgsGNNphlBxLaNCgQcMbAxhkC6EU8P+w8iblIJtZzAAAAABJRU5ErkJggg==;" vertex="1" parent="1">
          <mxGeometry x="468.33" y="260" width="113.33" height="85" as="geometry" />
        </mxCell>
        <mxCell id="FPCLYELC2QN7BIS0ovdc-14" style="edgeStyle=orthogonalEdgeStyle;rounded=0;orthogonalLoop=1;jettySize=auto;html=1;exitX=0;exitY=0.25;exitDx=0;exitDy=0;entryX=0.5;entryY=1;entryDx=0;entryDy=0;entryPerimeter=0;" edge="1" parent="1" source="FPCLYELC2QN7BIS0ovdc-7" target="FPCLYELC2QN7BIS0ovdc-1">
          <mxGeometry relative="1" as="geometry" />
        </mxCell>
        <mxCell id="FPCLYELC2QN7BIS0ovdc-15" style="edgeStyle=orthogonalEdgeStyle;rounded=0;orthogonalLoop=1;jettySize=auto;html=1;exitX=1;exitY=0.75;exitDx=0;exitDy=0;entryX=0.017;entryY=0.643;entryDx=0;entryDy=0;entryPerimeter=0;" edge="1" parent="1" source="FPCLYELC2QN7BIS0ovdc-7" target="FPCLYELC2QN7BIS0ovdc-6">
          <mxGeometry relative="1" as="geometry" />
        </mxCell>
        <mxCell id="FPCLYELC2QN7BIS0ovdc-17" style="edgeStyle=orthogonalEdgeStyle;rounded=0;orthogonalLoop=1;jettySize=auto;html=1;exitX=1;exitY=0.25;exitDx=0;exitDy=0;entryX=0.005;entryY=0.351;entryDx=0;entryDy=0;entryPerimeter=0;startArrow=classic;startFill=1;endArrow=none;endFill=0;" edge="1" parent="1" source="FPCLYELC2QN7BIS0ovdc-7" target="FPCLYELC2QN7BIS0ovdc-6">
          <mxGeometry relative="1" as="geometry" />
        </mxCell>
        <mxCell id="FPCLYELC2QN7BIS0ovdc-7" value="" style="shape=image;verticalLabelPosition=bottom;labelBackgroundColor=default;verticalAlign=top;aspect=fixed;imageAspect=0;image=data:image/png,iVBORw0KGgoAAAANSUhEUgAAAgAAAAIACAYAAAD0eNT6AAAABHNCSVQICAgIfAhkiAAAAAlwSFlzAAAOxAAADsQBlSsOGwAAABl0RVh0U29mdHdhcmUAd3d3Lmlua3NjYXBlLm9yZ5vuPBoAACAASURBVHic7d15vF9lfeDxT24ICUnYQkJYZHFh0YDI5gYuKO6iji21WnTGqrR1d9pKa+vUzrQz1L5mrMWt2NYZrWOHVruAAoIGBbQVWVSiIkYuoAQhhBCSAEnuzfzxvTE3l3tvfss553uWz/v1+r5yk9x7z/M8v7M855zn+zwgSZIkSZIkSZIkSZIkSZIkSZIkSZIkSZIkSZIkSZIkSZIkSZIkSZIkSZIkSZJ2Y052ASQVYj9gKbA/sO/Ev+0JLJr4ei9gwcTXewN7TPn5bcCDE18/DDw08fUmYMvE1w8A64C1E19LajA7AFI9LQCOmIjDgOXAAcCSGf6cW3H5xoD7iA7BdH/+HLgTuH0iHq64fJJ2ww6AlGMRcCTwWHZe6HfE4cDBaSUrxxp2dgYmxyhwG7A5rWRSR9kBkMq1B3FBXwGcDDxp4utjgZHEctXNGmAV8H3g+omvV+GTA6k0dgCk4hwOnEhc4J888ecxwLzMQjXYVuCHREfge8DNwE3AHZmFktrCDoA0mD2AE4DTiTv704nH+SrfGuIpwfXANRPhkwKpT3YApN4cDJwCnMbOi/6CWX9CVdkGfAe4lugUXE2MK5A0CzsA0vSWAS8AXgScQYzEV3PcAawELgeuBO7NLY5UP3YApDAXeApwJnAW8AwcpNcm3wcuJjoDX2fn3AZSZ9kBUJc9jrjgnwm8kJ0T6KjdNgHfJDoDFxOdA6lz7ACoa04Bfhn4JeAJyWVRPdwKfB74R2IMgdQJdgDUBSuAs4HXAkcnl0X1dgfwz8A/EIMKt+cWRyqPHQC11Y6L/q/hnb4GcyfwT9gZUEvZAVCbnAycQzzed9S+inQH8Zrg74AbkssiSSJWwTuXeHe73TAqiFXAecTqi5KkCo0Qk/H8FTGiO/uCYHQzHgYuItJGq16NURqarwDUJIcSj/jPJVL4pLr4KfBZolN6W3JZJKkVRoBXAZcRa9Bn3/UZxmwxBlxK7LNOJCVJA1hM3On/gPyTumEMEquJsQL7IUnarYOBDwD3kX8CN4wi4gHgw8Ry0ZKkKU4CPk3M0Z59wjaMMmKMmHr4mUhSx80lcvavIf/kbBhVxtXAqzF7QFLHjBCz9P2Q/BOxYWTGT4ixLnYEJLXajgu/A/sMY9f4PvAG7AhIapk5xGQpN5J/ojWMOscq7AhIaoEdF/4byD+xGkaT4maiI+BcApIaZQ4xwOk75J9IDaPJcRMxqZCztkqqvVOIEc7ZJ07DaFN8CzgNSaqhQ4l50J2u1zDKiXFi8aEjkQrgQBMNayHwn4kT0zPwUaVUljnACiJtcB/g34mJs6SBeLLWoEaIQUp/ChySXBaFB4C1xDTKG4CtwMaJ/3uIWL4W4EFg25Sf3QPYe+LrBcBeE18vBuYRF5wDgKXAviWUXf37GfA+4O+IpwNSX+wAaBDPBj5ETN+rcj0I3A6MTsQdwL3ERX7dlD/HKirTXKIzcACwZNKfBxLz3R9BPKY+gp2dCpXn28B7iBk1pZ7ZAVA/DiYWNTk7uyAtcweR/30LcZG/fVKsyytWIZYQHYEd8VjgGOJR9mGJ5Wqb7cD/IzoCdyeXRQ1hB0C9mAO8HvhfxN2eBrOeuNCvImZ+W0WkSt6bWahE+wJPIDoDJwNPAo4HlmcWquHWE6tpXoCvBbQbdgC0O08kRvc/K7sgDbOBGKT1TeDfiAv9Xaklao5DgBOApxMr5z0NXyX06+vEYMFbsgsiqXnmAecRA8ey05+aEHcRmRDvIu5mncGtOHOJpwRvIDqjq4i72+zPvO6xBTgfmN9/k0vqqtOIk2z2CazO8QPgL4CX42uRDEuJaab/EleV3F3cTDxJkaQZ7UsM8nMyn0fHg8DFxGPVIwZtYJXmIOIJwUXEwMns/aVuMQ58mhiUKUm7eCHwU/JPVHWJMeL9/QeICY6cNKs59iCeYv0xMf7CDu3OuBM4c/CmldQmC4j3hJ4kow2uId7jO7lReywlng5cTEyOlL2fZcc4MZZi4TCNKqnZVgA3kn9C8qKvqtgZ2BmrgKcM15ySmmYE+G26O8J/DLgS+A1i9jp103Lgt4Cv0N0nYA8B78aUcKkTDgK+RP6JJyPuJF53PHboVlTbHEqkva4mfz/NiCsn2kBSS/0SsVhM9smmyniYGBl+Fg7k0+6NAKcT78g3kb//Vhn3A68dvgkl1cki4H+Tf4KpMm4E3oFpTxrcEuCdwE3k789Vxt/gAEGpFY4Cvkf+SaWKeITIdT6lkJaTdjoV+Ayxj2Xv51XEd4h1GiQ11MuJx3rZJ5OyYz0xgZGry6lsy4m5IbrwKu0B4NWFtJqkyswhBjS1fWTzrUT63qJimk3q2XwinbDtU2aPEwNnHT8jNcABwOXknzjKjGuAs/GkpHxziJn1LqbdCxR9FVNmpVo7BRgl/2RRRowD/wKcVFRjSQU7hegIZB8rZcVtePxJtfQGYDP5J4ky4gpiEJbUBE8mUk/b+ETgYeAtxTWVpGHMI3KWs08MZcQX8cKv5noacCn5x1EZ8XFi0SVJSRYTF8nsk0HRcQVx8pTa4Om089XAFcQS4pIqdjjty++/hlh6V2qj04BvkH+cFRnfwfRbqVJPJua1zz74i4o7iTEMLkiiLjgL+An5x11RcRdwcqEtJGlaLwI2kH/QFxEbiUlVFhTZQFID7EnMYfEA+cdhUcfyWYW2kKRdnEs71jAfI6bsPajY5pEa52BiEO828o/LYWMbsf6GpALNIe6Usw/wIuKrwFMKbR2p+U4CriL/+CwiPkysqihpSHsB/0z+QT1s3A28puC2kdrmdcDPyT9eh40vEOcuSQNaBFxJ/sE8TIwTj/uXFtw2UlvtR7wWaPpEQl8D9i64bVSgQUZdLwOOAx5DvL/aBtwLrAGuIwa1aHj7AV+i2Wlxq4HfJDoxqsZ+RGfrAGI9+8UT/76IGHgGsA+PXkdhjBhcCrHk7eaJrzcC9wHriBXw1pdSak3n2URH4Njsggzh28CLiX1Iw9sXeCoxfupA4ji+C/gpsTDVvf38sl47APsCbwReD5w4y89tBa4m5mz/G2BTP4XRLxxILOjT1Hfl24CPAe/DfaAoy4AjpsSRxMV+CTsv+GUvkDRGdAYmdwpGgdunRF8nIs1oAfB7wO+zswPXNDcBL8R9YlCLgDcBrwJOJ2Z/nc524Abg74BPUcDN+J7AHxC9/n4f/9xNpLnMH7YQHXMQzZ7g5wZcMGRQ84kO9uuBPwMuIXr1m8j/XPuNTRNlv3iiLudM1M3zwWCOB75J/uc6aPyAeGqs3i0A3sNgY0LuZ8hO4xHELE/DfvD/jjNF9eqxxGPz7IN1kHgY+B0c/durg4ge/X8hFo75Ae1I8dxdbJ2o60UTdX8lpoP2ai7wu8QrmuzPcZD4MfHUSrt3OPFKfdg2v2nid/XlacQdfFEf/M+JaTA1s2No7ux+3yfu7jS9ucAKYh6HTxN3xk0f4FV03EV0Ct5FPOZs6uPuKhxHMTdnWZ/ziuKbpFWeBdxDcW2+hj4WVXsyMfCn6A9+HfDEfluiI54E/Iz8g7PfGCcGKS0svkkabR4xgOu/EbndZRxPbY+NwErgvxInRFee29UC4HxiTEb2Z9Vv/Bw4ofgmaYUnMdgr993Fg0THcVZLiMc0ZX3wqzEdbKoTiQFV2Qdlv3EXMS2xwuOIO/yLiPdv2Z9P22IjsfrceXgjMdmLiTu87M+n37iP5g5yLsuBlLtGxI+ILKEZ/UOJG98RFw3WNq10JMW+aqkqvoAduXnEyfejwK3kfyZdix8BHyE6oTONiu6KZTRzsrA1xFgzhc9Tfpt/bqaNn0J17yWfM2gLtcgeNG9U70YiHaWr5hLvpz9MO2Zra0usI8ZWnEW3xw6cS/MyRq6l/NTVJjiDatp7nBnGa32xogJsx4lhAN5C/sHXT9xKpCJ1zXzgTOKiX+TAHKOcuJ+dnYEuphyeQLmvccuIN5bSEs1S5Yyvl0zd+CFUPyr5ycO0VsMtAO4g/8DrZ4fZv5SWqK9TgY9TzoAco5q4n5iQqmtr1e9DvKbLbv9e43a62Vnb4Tiqvf6OE9f8X8i4G71wuDZrtN8i/6DrJbYRE0ENMmV0E+1HPEa9gfy2N4qNVcQAwmV0wwgxz0JTsgTOLacZGuGTVN/evz65AFUMPpgam4isgy5qwgI/a+nGKP8R4r3+X9G896dG//EwMRD5LLrx7vkMmjFe5dKyGqDmlpBz3tllMH7WpBLvHablGmof6j+T1w3ErIRttpi46/g++e1t5MSPiYmHFtFuhxEzsma392zxMDsXruqS88hp7xsmFyKrh3g73Zvg4/nkH2yzxd8SYxTa6iDgAzRz7gWjnHiAGOTZ95SpDbIX8H/Ib+vZ4rllVb6m5lJu3v9s8bPJBcmcg/w/DN5+jfQG8g+06WKcuDC21UnE6PAt5Le1Uc/YRixe1OQluHfnXdR3XMBrS6x3Hf0H8tr6kckFyXxH9NXB26+R3kv+gTY1HgZeV2alEz0P+Br5bWw0K64i3p+30S8Dm8lv46nxn8usdA2tJK+t75pckOxRz11KCfw98g+0yXEv7Vyo6XSaMdjSqHdcQ7y2a5tnEQN9s9t3cnRpTFjVqX9T4zrYuXTr7SVWtBdvT95+le7OLsAkq4kL5bXZBSnQM4nHuFfTzhO3qnUa0ZG8hnia1BZXE6u+3pJdkEnu2v23tMY7yU2v3uWa/x5ye35dSgl8Efk97e3ECeCAkutapWfiHb9RfnyZdo0RWErcAGS363bgBSXXtS6yUv8mxzsnF+hI8tcn78rjn2XEYKPMtv4c7Zl56zBicF/2/mt0Ky4mVoBsgwXA/yO3PbfRrhuS2WSl/u2IcaZJ8/5KcqFG6cbEHJDb4/44O1/9NNliImvhIXL3W6O78QiRPrgvzTcH+Avy2vLr5VexFuYS17rM/fYr0xUsMyVhR3QlJTCrB3h+FZUr2QiRStnEZZSNdsZaIr2u6Tcwc4APktOGXXkC/Gry99dXTVewzEkJdkRXUgL3o/qJaNpw8T8T+C75B5BhTBc30Y7UwapvUO6nO2PAVpK7j44yS0e1DjnqXUkJ/H2qac9xmp9fu4SYqz973zSMXuIimr/o0NuoblzNeRXVKVt26t924HdnK+D+wMbkAnZllcCFwK2U25ZjNH+VrbOJuQoy90nD6DfWEcdek1fS/A3KnzXwR8S5sAsyVv2bHJvoYaDlhcmF3NxLIVviZMpLB9kKnFNdVQr3OCLlKnNfNIxh4yrgGJrrHMqbKn4TMUV3F9Th5vqveinoCvIfU3RlQAjAyyl+dcCHicEmTbQHMaAq+2AxjKJiM5GxsifN9GrinFJkmzwCvKzKSiTLTv3bTh+v17+aXNCurRJ4JjEQpoi2u4/mDkR6InA9+QeKYZQR3waOpZmeR7zWKKId7qdbs3TWYYD9tKl/MzElsHpHMvxMdpfTzCVN5xDvS73rN9oeDxFPuJo4NuAI4AqGq/8VE7+nS2qb+jfTTjiXGKD2qNmCKrSSds293avTgf8x8WevvgW8jz57eTVxEPC3wEuyC9Ii64nc9HXEE6GNxGPoHUuAbiAGd002F9hn4uv5xMCsxcR4nCXElLH7lVrqbvki8CZiJdamOR3478SCQr26DvhvxAyKXbMSeG7i9m8HHs+jj/lZe6HvBf6srBL16AQi77uLjiPekb0IOAo4kHiHuAW4hxg9ezlwCfD9pDIO6xXAX9P8lKmqbAfWALcRB/XkuIPIlljHNAd6QeYSnYFlxF3c1DgSOJhm3t1muIfoBFySXZABrSDGMM12jvoy0dm5OamM2Y4jrmGZx8R7gT/v94fqMGqxKymBvWrLHdhCzOvfXdxNvBL6EPBm4KnEHXnd7U2sMvdmYmrZK4m73Oz2rGuME9NztyUVri3nqKI0IvVvJqYEqmhPwNn8pjtIryJe/bwCWD5o49bYcqJu5wNfI381tLrFTcRjWrVHHW6ie0r9m4kpgSrSWRSX7dDkuB/4R+DtxFwQXcp42WEP4BTgHcDniXEL2Z9LdqwjHqmrHRqV+jcTUwI1rDnEwVD2rGJ1jTEiBex8IuWzqfngZZpLdIbOI0aKlzX5TN1jnNhPmr6wUNc1LvVvJqYEahgHAJeRvw9VHZuJO9vX0p2FTop0APBrwD8RbZn9eVYdl+J+02S1Tf3rVx16Ml1ZJbBtTiZ/7esqYxPwD8BraMaAvaZYDPwq0aHqUmfgNuDEAtpP1VtJ7r4zSoFPkVwlUP16Fd0Y6LUN+BJx0W/LSO46W0R0Bi6jG6+UNgKvLKTlVJXar/rXrzqMZjQlsDneRftPzncS72ozJ8vqukOJMQOryd8fyoxxYi0BNUOjU/9mYkqgdmcucAH5J8yyYgvwOWIe85GC2kzDGyEGV/498Rll7ydlxYdxcGDd1eFmeajUv5mYEqjZLAL+lfyTZBmxnjj5HlZYa6ksBxF3y2vJ32/KiMuIyZZUT61I/ZuJKYGazsFEmlv2jl90/Jh4nbGouKZSRRYAbyCmyc7ej4qO7wCPKa6pVJA6DJgvdT0YUwI11VFExyx7vygyvkVMWuRj/uYbIQbRta2Dehsxq6bqozWpfzOpQw/HlMD6eCLwM/J3+qLiO8DZuJhNW51JrEqXvZ8VFXcDxxfaQhrGSnL3h1EqGCNiSqAATiJWn8veF4qI7+KFv0vOpD1PBNYRC0UpV+tS/2ZSh1GOpgTmOo12zN3+I+KxnRf+7plDdPp+TP5+OGzcDzyz2OZRn1qZ+jcTUwK76znABvJPesOeMM8D5hfcNmqeecRAz6Z3aDcCLyi4bdSbOtwUl5L6NxNTArvpZcBD5J/sBo2twEeBpUU3jBrvQOATxMyO2fvpoPEQcYyqWq1O/ZuJKYHdcgbwMPk7+qBxBfCkwltFbXM8+ee2YeJh4LlFN4pmVIeB8aWm/s3ElMDuOAy4j/zPe5BYB5yL7/nVn7Np7iDXdcARxTeJptH61L+Z1KHnY0pgNS4nfycfJD4DLCuhPdQNBwKfJX8/HiS+VEJ76NFWkvs5j5I4PbQpge33bPI/437jJ8CLymgMddJLiIl3svfrfuOMMhpDv9CZ1L+Z1GH0oymB5fom+SeyXmMc+DhO3aviLSJGWmfv4/3EtaW0hHboVOrfTEwJbK8nkX8S6zXuAV5RTjNIv/Bi4C7y9/de4+hymqHz6nDzW2nq30xMCWyvOrzi6SUuBw4pqQ2kqQ4ELiZ/v+8l3lNSG3RdJ1P/ZpKdNmNKYDmuJH8nny02AW/FEf6q3hzg7cQTyOzjYLa4rKwG6LA6DIBPSf2biSmB7XQb+Z/rTHErNeoBq7NOoN7TCd9aXtU7q7OpfzOpQ4/IlMDi1fXu5hLiHZxUB/sAXyD/uJguNpZY765aSe5nOkpi6t9M6vC+2DvC4uxF/uc5NcaA9+Mjf9XPCPBHxD6afZxMDde8KE6rUv+KPJHuD9xJbgrWJ4lZ31SMTcDC7EJMWAf8Gr7T7NV+xJoHBwBLJv7c8VnuS1ywJhsHHpj4ejMx8+N9RLvfO+n/NLuXAH9HtHkdPEg8oVAxPgm8OXH7m4HDiWNzaEXfSV0IvKXg39mPh9g5ba2Gtxp4XHYhgFuIRU5WZxekRhYSaZorgCMn4gji5HAYsGfB29tCdPBvB+4gHkPeBnx/IjYXvL0mewIxE99R2QUhxgCYCliM/YGfkntTdCHwG4nbn5Upge3yZfIfX36N+txNZVlCdID+mHjXfCv1etQ8NlGmz0+U8aX4mR0AXE3+Z3Np2RXtEFP/emBKYHu8h9zP8iJgQem1rJ/HEo8ZPwX8gPxO9SAxTjwZ+FvgTcQTiq6ZT7wOyPwc3ll6LbuhDgPda5X6NxNTAtvj8eR9hh/m0e+p22ohcCZwPvBt8o+fsmI1MXvZ2XTnvfQc4APktfkTSq9hN5j616M69JRMCSzO16n2s9tG3DG23ULgLODT5E8pmhEPE7PpvYEYlNh2byH27Srb+KoqKtYRK8k9XkapYerfTEwJbI/Tqe4z2wqcU021UuxF1O9i4gKYfYzUJR4G/oXI8thr4Natv9cQgymratfnVFOt1mtV6l8V6rBQgqsEFqeKec8fIu6I22gF8Xh/LbnHRBNiPfGa4PSBWrr+XkE1nb9/qapCHeCqfwNwlcD2OJTIBS/rs9pIvANvk4XAbwI3kXscNDluJFKe6jIXRVFeQLk3SPfg4lhF2Z+4AGceB7VY9a9fpgS2y9Mo56S1HjitwnqU7SBi0Jd3+8XuIx8m5jdoi9OJehXdVptp79OTDKb+DcGUwHY5E9hAcZ/PGuCkSmtQnhVEyleV73i7Fo8Qgyaf2ONnUncnAXdTXPs8ADy/0hq0Wx0GtDci9W8mpgS2z3HAKob/XK4lZq1ruicSF6WqR3h3OcaIOSKO7eHzqbsjgG8wfJvcTHRCVRxT/4ZUhx6UKYHF25NYc2EN/X8ed0z8bNOfzBxN3PF74c+LbUTnq+m57iPE3Air6b8N1hKPqbs4YVbZVpK7f4/SoNS/mZgS2F57A+8mHlPN9uh7M7GE75spfo76qu1PjOg3ja8+sYUYKLV0ls+tCeYT8wV8kdmX4t5CHHPvBhanlLT9OpH6V8Wyqq4S2A37AE8hMgaWEwfPGuAuYjR30xeLmQe8EfgTYFlyWTS9dcAHgQ8RF8kmW0iMETgEOJg4V99DLEZzEzEWR+Vp1ap/2UwJVJOdAfyQ/Dtdo7f4Pk6Co8GZ+lcwUwLVRPsRB2L2vmv0H+PE+AA7/uqXqX8lMCVQTXIW8bg1+0RgDBd3E+sNSL2ow8D1Rqf+zcSUQDXBMuCfyN9XjWLj8/g0QLtn6l9J6tCzMiVQs3kB8DPyTwBGOXE38DKkma0kdx8dpQWpfzMxJVB1tIBI7Rsjf/80yo1xYlxH29YX0PA6kfqXyVUCVTdPAL5L/oXJqDZuAh6PtJOr/lXAlEDVxcuI3PHsi5GREw/guCAFU/8qYkqgss0hUn185G+ME69/WvveVT0x9a9CpgQqy97Al8g/2I16xSU4rW5X1WGAeitT/2ZiSqAyHAJcT/6+Z9QzvgschrrG1L+K1aHHZUpgtxxPrESYfaAb9Y6fEXPwqztWkrvPjdLBV1CmBKoqLwYeJH9/M5oRG4AXoi4w9S+JKYGqwitw6V6j/3gE+GXUdqb+JTIlUGV6HbCV/IuJ0czYBvwn1FadT/2bk7lxIiXwe8nlOI9YQ1zt8pvAR4GR7IIk2kq8076HWFd8HXHCe4B47DnZCLAvsAhYQnSMlxMDJ+dVVN46GgfeSkdytDvmPCIFNNMJxODTFNkdAIjBeGckbv8OYkawbYllULHeCnyEeuzfVVgD3EycSFYBtxIDi+7i0Rf6fs0FDgaOBI4mOu3HT8RBQ/7uptgOvA34eHZBVJi5xHHy2MQyfBV4fuL2a8GUQBXplbR7gp8x4DrgQ8CvAI8pptkGchjwmomyfJv2t/vLi2k21YCpfzVhSqCKcgjxqDv7wC467gU+BfwqsLSw1ireMuC1wP8G1pLfbkXHWuJpiJpvJbn70igdTP2biSmBKsJfkb8fFRX3Ap8AzqSZs1buQaTSXUi7OgMfK7KRlMLUv5oxJVDDOgrYQv4FYpgYA64A3gDsVWzzpNoTOAu4iOZnZWzBVQSbztS/GjIlUMP4GPkXh0FjHTEa+fDCW6V+jiCybu4nv90HjQsKbxVVpfOpf3XlKoEa1BzgTvIvDP3GbcTo8kXFN0ntLQbeQbwLzf4c+o3RwltDVXHVvxpzlUAN4iTyD+p+97N3AfPLaIyGmUe88lhN/ufiSbzd6jDgvFOr/vXLlEAN4k3k7ze9xFrg7cQ7ce1qPtEpakoWxxvLaQaVyNS/mqtDD82UwOZ5P/kH9myxhXjvV+cUvrrYnxgPUff1G36/rAZQaVaSu8+MYurfbpkSqH5dQP4+M1N8DTi2vKq31pOAa8j//GaKvyyv6iqBqX8NYUqg+vU/yb8gTI31xCPtLq9FMKw5xPiAOr4W+PMS663imfrXIKYEqh91eGo0Ob4MHFpqjbvlMcCV5H+uk+N3Sq2ximTqX8OYEqh+nEP+BWE78BDwbrqzCFGVRoDfpj5jA15bbnVVIFP/GsiUQPXqCPIP8FvxIK/CieSnDI6TuwiTeleHgeWm/g3AlED147vk7SeXEI8ZVY19gC+Q93nfUH4VVRBT/xqqDj03UwKb4wNUv3+MA3+Ej/wzjAD/lZxXhe+voH4qxkpyryGjmPo3sDoM7vKxbjPsR8ypX9V+8Qgx9kC5foUYe1HV534/sKSSmmlYpv41nCmB6scfUM0+cR/w7IrqpN17LtV1/n6vmiqpAKb+tYApgerVQmAV5e4Pa4Djq6qQevZk4G7K/exvpl3LNLeZqX8tYUqg+rGCmISnjP3gDuDo6qqiPh1DeatC3k/MTqhmMPWvRUwJVD+eBWyg2H3gVuDICuugwRxJfFZFfvYbiH1KzVCHAeSm/hXIlED162Si41bEZ381cGC1xdcQDgSupZjPfpSYe0DNYepfy9ShR2dKYPPsTwwE2spgn/l6YtCXT3+aZw/gfQz+Omgr8Q7X+R2aZyW514pRTP0rnCmBGtTRwOfoPV3sPuCDmO7VBgcQC/f0miXwEPB/caxHU5n614cmTWCyPzHAZ1FiGT4JnJu4fQ1nEfCCiTgCOATYF/g5cA/wA+BS4vHxWFIZVY49gNOAFwNPJF4TLCeeEKwhXhd9mVh0aFNSGTW8TwJvTtz+ZuBw4iZCBTMlUJI0HVP/Ws6UQEnSdEz96wBTAiVJk9VhoHjjUv+aeCG7ADgjcfuHA2cB/5RYBqkfC4DHAQcR4x72JlbUm2wD8CBwFzGj3k+AhyssozSMVwKPTS7DBcnb74Q69PRMCVRdLQSeD/whcDGwmhjQ2O8+Pjbxs/868bueN/G7pTpaSe41YRRT/ypjSqC00/7A2cCnKX4GxMmx9gLtwQAAFXlJREFUmehUnEuMoJfqwNS/jnGVQHXdHsBriLS1QSc6Gia2AlcQy/E28VWi2sNV/zrIlEB10T7Au4hHjpn7/+S4C/gATpyk6pn611GmBKpLFgN/SgzUy77gzxQPTpRxcUltIE1l6l+HmRKothsB3kDcZWef6HqNe4mnFA6KUpnqMCC8cal/beIqgWqzE4Ebyd/HB40bgKcU3ipScNW/jqtDD9CUQBVtLvFo8xHyT3DDxlZifIBPA1S0leTu26O4X6czJVBtcgTwDfL36aLjWmISLakIpv4JMCVQ7XE6MQtf9sW6rLiX3Fk81R6m/ukXTAlU0/0msIX8i3TZ8QjwloLaTN1k6p92YUqgmqwOqUxVx/mFtJy6qA7Hi699a8aUQDXRn5N/MsuKDxbQfuqWOgz8NvWvhkwJVNO8n/x9Njv+cOhWVJeY+qdp1aFnaEqgevVi8l9b1SHGgZcP2ZbqjpXk7q+jmPpXW6YEqgkWAHeSv6/WJW6faBNpNqb+aVamBKoJfpv8i27d4t1Dtai6wNQ/7ZYpgaqzhUQ+fPYFt25xD7DXEO2qdjP1Tz0xJVB19iryL7Z1jbOGaFe1m6l/6pkpgaqr7MeYdY5PDNGuaq86DPA29a9BTAlUXWWfyOocPx6iXdVepv6pL3XoMZoSqKnm0I3pfgeNRybaSJpsJbn75SgtTf0byS5AScbIf5x4Br4z0q6WAvOyC1FjewJLsguhWjkOeE5yGT5KXFPUIKYEqm6OJP8uu+5x5IBtq3bKHjNj6l+DmRKoOtmL/Ats3cNUQO1g6l/J2voKYIcPEx9ilr2ANyVuX/XyELAhuxA1tp5oIwngXGLejEwfTd6+hmRKoOrkm+TfZdc1rh2iXdUudRjI3frUv7Y/AQC4IHn7h+MEJ9rpi9kFqLFLsgug2ngl8NjkMmRfO1SAOvQkTQnUDk8h/067rmHWjHZYSe6+OEpLU/8m68Kj6R0pgX+WWIYdKYHfTSyD6uEm4Brg9KTtrwVuJDrF6yf+bX/gccCJ5A1a/ToeHwqm/qlQpgSqTp5FtfveBmJA7FOZfaKdOcDTgb8EHqy4jKf10X5qN1P/VDhTAlUn/0z5+9w4cTIdZHKdA4C/ppqFtb4wQPnUTqb+qRSuEqg6ORD4GeXta3cSTxqG9eyJ31VWOX8KLCugnGoHV/1TaUwJVJ08hXgPX/R+dhNwaIHlPHTidxZdzvXACQWWU81WhwHbrU/96zJXCVTdnATcTbEnsH1KKOc+FNuBXjNRd2kHV/1TqerQwzQlUFMdyvAX163A/6DcxYbmEdk024Ys65XAISWWU820ktxz8ygdSP3ruveS38v0HZOmcyaRotfPvjQOXEy1+9SxwEX0P6ZmFXA2LvmrRzuO/DFav1t6LZXOlEDV2QjwEuBjxJiR6fafMeBbwH8hTpxZjgf+CLiOmU/eo0RdXkw3Zh7VYEz9S9DVnviFwFsSt/8QcBhwX2IZ1AzLgOXAQcAjwM+J7IFNmYWaxiLiVcZyYD4xruFuYuIhaTb7E9kgmQv/XAj8RuL2VSFTAiWpHkz9U+VMCZSkXHUYmG3qXwfVISXw1aXXUpLq65fIPw+b+tdBdeh5riy9lpJUX1eRew4exdS/zjIlUJJymPqnVKYESlIOU/+UzlUCJalarvqnWjAlUJKqZeqfasOUQEmqRh0GYJv6p18wJVCSqmHqn2qlDj3SlaXXUpLyXUXuuXYUU/80hSmBklQuU/9US6YESlK5TP1TbZkSKEnlMPVPtWZKoCSVw9Q/1Z4pgZJUrDoMtDb1T7tlSqAkFcvUPzVCHXqqK0uvpSRV5ypyz6mjmPqnHpkSKEnFMPVPjWJKoCQVw9Q/NY4pgZI0HFP/1EimBErScEz9U2OZEihJg6nDgGpT/zQwUwIlaTCm/qnR6tCDXVl6LSWpeFeRe+4cxdQ/DcmUQEnqj6l/agVTAiWpP6b+qTVMCZSk3pj6p1YxJVCSemPqn1rHlEBJml0dBk6b+qfCmRIoSbMz9U+tVIee7crSaylJg7uK3HPkKKb+qSSmBErS9Ez9U6uZEihJ0zP1T61nSqAk7crUP3WCKYGStCtT/9QZpgRKUqjDAGlT/1QZUwIlKZj6p06pQ493Zem1lKTdu4rcc+Eopv6pYqYESuo6U//USaYESuo6U//UWaYESuoqU//UaaYESuoqU//UeaYESuqaOgyENvVP6UwJlNQ1pv5J1KMnvLL0WkrSTleRe84bxdQ/1YQpgZK6wtQ/aRJTAiV1hal/0hSmBEpqO1P/pGmYEiip7Uz9a5E6p4/NBY6YiKXAImDxxJ91tRZYlrj9dwBzErcvqd3enrz9e4GXTEQdbSJeB28irgejRKr2eGKZZlSXi8UewCnA84CTgGOAo4D5mYWSJGlIjwA/mojriaytbwPbMgsFuR2AZcBrgBcBzwH2TiyLJElV2QB8HbgMuIh4slG5qjsA84EXAq8nJnGYV/H2JUmqkzHiqcBngH8kBnRXoqoOwL7Eu6N3kfuOXJKkuroX+AvgI8RTglKV3QFYCrybuPjvW/K2JElqg/VEJ+AvgPvK2khZHYAR4Bzgf2FuuiRJg1gPfIDoDIwV/cvL6ACcBHwMeFoJv1uSpK65EXgr8G9F/tIiF1OYB5wPfAo4rMDfK0lSlx0M/DoxD85VFDSvQFFPAA4DPgecVtDvkyRJj3YdkUJ/27C/aGT4svBy4Ca8+EuSVLZTiU7AS4f9RcO+Angj8FnqPT2vJEltshD4VeAeYlbBgQzTATgPuIBiniJIkqTejRBP4PcCrhzkFwzSAZhDpCS8b5ANSpKkwpxOzLlzWb8/OEgH4IPE5D6SJCnfUxngSUC/HYC3A3/S589IkqRynUYsRfzNXn+gnw7A64ELqc8SwpIkaacXAKuB7/byzb1ezE8gZiBaMGChJElS+R4BngncsLtv7KUDsDeRZnD0kIWSJEnlWw2cDDww2zf1ksL3Cbz4S5LUFI8HPrm7b9rdGIA3AX9QSHEkSVJVVgB3EDP1Tmu2VwAHAD8k8gslSVKzrAOOAdZO95+zPQH4CM7vL0lSU+0F7AdcMt1/zvQE4DTg6ln+X5Ik1d84MVvgo+YHmOkC/w3gGWWWSJIkVeIa4FlT/3G6LIDn4cVfkqS2OB14ztR/nK4D4Kh/SZLa5VHX9qmvAJ5GzPgnSZLa5TTiFT/w6CcA76y2LJIkqSK/Nfkvk58A7AOsARZWWhxJklSFTcDBwIMAe0z6j1+ivhf/+4FvAT8mljuUJKluFgNHAacC+yeXZTqLgFcD/2fqf6wEttcoNgB/CTyfXTsqkiTV2R7EtesC4m47+3o6Oa6cWthlwFgNCrYd2DLRaAf22tKSJNXUcuCjxLUt+/q6nbjWHzC5gGfXoFDbiYULTuy3dSVJqrlTgDvJv85uJ14D/MLHa1CgbwIHDdCokiQ1wcFEqn329fYjkwt1S3JhfkAsWCBJUpvtDdxM7jV31Y7CLE8uyFrg8YO3pSRJjXIUcB95191xYuwfz00sxHbgdcO1oyRJjXMOudfeZ48Ax5RezZndBPx94vYlScrwf4HrE7d/dHYH4PeIRxGSJHXJOPD+xO0fC/BFch4/rGH61QglSeqCucDPybkGXzxCXurdv+LdvySpu8aAi5O2vXyEmLs4w6VJ25UkqS6+lLTdvTM7AKt2/y2SJLVa1rVwnxFiGeAMa5K2K0lSXWRdC/eeQ7yDyBiMNxfHAEiSum2EuA5XbXwOMRoww5yk7UqSVCcp12HT8CRJ6iA7AJIkdZAdAEmSOsgOgCRJHWQHQJKkDrIDIElSB9kBkCSpg+wASJLUQXYAJEnqIDsAkiR1kB0ASZI6yA6AJEkdZAdAkqQO2iO7AJJUoiXAqcATgMUT/7YR+DHwLeD+pHKVxfq2u76F254UklSGvYF3AF8BtjLzOWgrcOXE9+6dUtJiWN/m1zftOmwHQFIbzAPOBe6m//PRWuA8YH7lpR6c9W1Pfe0ASNKADgduZPjz0vXAYRWXfRDWt131tQMgSQN4JoPdFc4Ua4BnVFqD/ljf9tXXDoAk9emJwHqKPz9tAI6rsB69sr7trK8dAEnqwxLgVso7R/0EWFpZbXbP+ra3vnYAJKkPf0/556nPVlab3bO+7a1v2nU4bcOSNKBTgHHKP0+NAydXVKfZWN921zftOpy2YUka0OVUd666tKI6zcb6tru+adfhtA1L0gCWA2NUd64aAw6qpGbTs77tri9UV9ddwrUAJDXNK6l2HZMR4GUVbm8q61uu7PqmsQMgqWlekrDNlyZscwfrW77M+qaxAyCpaVZ0ZJuZ27a+HWAHQFLTHNyRbWZu2/p2wBzyBuTNSdqupGYbo/qbl3FgbsXb3MH6li+zvpB0HbYDIKlpunbOsr7VyLwmpdTZVwCSJHWQHQBJkjrIDoAkSR1kB0CSpA6yAyBJUgfZAZAkqYPsAEiS1EF2ACRJ6iA7AJIkdZAdAEmSOsgOgCRJHWQHQJKkDrIDIElSB9kBkCSpg+wASJLUQXYAJEnqIDsAkiR1kB0ASZI6yA6AJEkdZAdAkqQOsgMgSVIH2QGQJKmD7ABIktRBdgAkSeogOwCSJHWQHQBJkjrIDoAkSR1kB0CSpA6yAyCpacY7ss3MbVvfDrADIKlpNidsc2PCNnewvuXLrG8aOwCSmubuhG2uSdjmDta3fJn1TWMHQFLTfC9hmzcnbHMH61u+zPqmsQMgqWkuTdjmlxK2uYP1LV9mfVNtTwpJGsSBwBjVnavGgOWV1Gx61rfd9YXq6rpL+ARAUtPcA1xR4fYuB35e4famsr7lyq5vqpSeRyU1k9RWJ1DNXeIYcFJFdZqN9W13fdOuw2kblqQhfJbyz1Ofqaw2u2d921vftOtw2oYlaQhLgFsp7xz1E2BpZbXZPevb3vraAZCkPh0LrKf489MGYEWF9eiV9W1nfe0ASNIAnkFM5FLUueku4OmV1qA/1rd99bUDIEkDOgy4nuHPS9cBj6m47IOwvu2qrx0ASRrCPOBcBrtbvBc4D9iz8lIPzvq2p752ACSpAIuBtxG55FuY+Ry0ZeJ73jbxM01lfZtf35Tr8BzyLsZzkrYrqTv2A04FHg/sO/FvDwCricfB65PKVRbr28z6plyH7QBIkpQr5TrsVMCSJHWQHQBJkjrIDoAkSR1kB0CSpA6yAyBJUgfZAZAkqYPsAEiS1EF2ACRJ6iA7AJIkdZAdAEmSOsgOgCRJHWQHQJKkDrIDIElSB40A44nbliSpy7KuheMjwOakjS9M2q4kSXWxOGm7m0aAB5M2fnDSdiVJqotDkra7IbMDcFzSdiVJqosVSdt9cATYmLTxlyZtV5KkunhZ0nYfHAHWJG38LBwIKEnqrrnkdQDuHgFuSdr4cuCFSduWJCnbi4ADk7Z9ywjwo6SNA5yPTwEkSd0zAvxJ4vZvyXwCAHAC8LrE7UuSlOEc4MTE7f8I4lH89sRYBxxVckUlSaqLY4D7ybvujgPLdhTmh4kF2T6x/f0Gb0tJkhphH2AVudfcVbDz/ftXy6trT44BLsPJgSRJ7XUIcCXwpORyrJz8l18mtzeyI+4ETimlupIk5Xkq8DPyr7PbgVdPLthSYKwGhdoObAE+RoxNkCSpyQ4CPgFsJf/6uh3YBiyZWsiv1qBgk+NB4CPAmcC8XltakqRk84AXAB8lZtvNvp5Ojit2FHLOpAL/J+BTxdW/UOuB64DVwAPE6ElJkupif2Bf4PHAqdR3YPt/BD4Nu3YAFhPTAmctTShJksqziXglsRF2nYVvI/AvGSWSJEml+wKTFgCcOg3vBdWWRZIkVeQTk/8ytQPw78BXqiuLJEmqwJeBb0z+h+kW4vnTasoiSZIq8qhr+5zpvgu4FnhmuWWRJEkVuBp49tR/nKkDcCrwb7hUryRJTTYOnEZc03cx0wX+Ouo7J4AkSerNJ5nm4g8zPwGAmCrwFmKaYEmS1Cz3AccCa6f7z7mz/OBDEz/8yhIKJUmSyvU2poz8n2y2DgDAjcDRwPFFlkiSJJXqIuAPZ/uG2V4B7LAY+DZwTBElkiRJpfoxcDKwYbZv6mWU/0bgV4hXApIkqb4eAV7Dbi7+0Hua33eBtxBLCUqSpPoZB34duKGXb97dGIDJvkeMJHzpAIWSJEnl+h3gwl6/uZ8OAMT8AHsBp/f5c5IkqTznA3/Szw/02wGAWCzoAOCpA/ysJEkq1keIu/++DNIBALgUeBg4c8CflyRJw/sz4LcH+cFBOwAQCwbdDrwc1wyQJKlKY8BbiQ7AQHqZB2B3Xgp8mngtIEmSyrUWeD1w2TC/pIgOAMBjgM/h4EBJksr0LSLPf3TYXzTMK4DJNgCfAeYDz8BXApIkFWkM+CBwDrCuiF9Y1BOAyU4EPgY8vYTfLUlS19xAvO//9yJ/aRl36jcCzwT+IzMsQShJknZrPfBuIu2+0Is/FPcKYDrfAf6WSBd8MjGBkCRJmt39xOP+XwOuoqRp+Mt4BTCdfYh1id8DLKtom5IkNck9wIeI1+i7XcxnWFV1AHaYD7yQSF94JbBnxduXJKlOxoCVxED6fwQ2V7XhqjsAky0FzgZeDDwH2DexLJIkVWU98DXgcuAi4L6MQmR2ACabC5wMnDHx59HAMcCCzEJJkjSkh4AfTcT1wFeJUf1jmYWC+nQApjMCHA4cScwyuHhS7D/k7z5vyJ8f1MBTNkpSRzT1/Hw/sHEiHiRy9UeBO4DxIX93KercAShTKSMqe9DV9pakXnl+rogz9kmS1EF2ACRJ6iA7AJIkdZAdAEmSOsgOgCRJHWQHQJKkDrIDIElSB9kBkCSpg+wASJLUQXYAJEnqIDsAkiR1kB0ASZI6yA6AJEkdZAdAkqQO6moHIGNt5lquBy1JNeP5uSJd7QBsTtjmxoRtSlLTeH6uSFc7AHcnbHNNwjYlqWk8P1ekqx2A7yVs8+aEbUpS03h+rkhXOwCXJmzzSwnblKSm8fysUh0IjAHbK4oxYHklNZOkZvP8rNJdRnU7mL1LSeqd52eV6gSq6WWOASdVVCdJagPPzyrdZyl/B/tMZbWRpPbw/KxSLQFupbyd6yfA0spqI0nt4flZpTsWWE/xO9cGYEWF9ZCktvH8rNI9g5gIoqid6y7g6ZXWQJLayfOzSncYcD3D71zXAY+puOyS1Gaen1W6ecC5DNbbvBc4D9iz8lJLUvt5flYlFgNvA64AtjDzTrVl4nveNvEzkqRyeX4uyJzsAjTAfsCpwOOBfSf+7QFgNfE4aX1SuSSp6zw/S5IkSZIkSZIkSZIkSZIkSZIkSZIkSZIkSZIkSZIkSZIkSZIkSZIkSZIkSZKkMv1/SfWbSTkSf9oAAAAASUVORK5CYII=;" vertex="1" parent="1">
          <mxGeometry x="310" y="276.5" width="52" height="52" as="geometry" />
        </mxCell>
        <mxCell id="FPCLYELC2QN7BIS0ovdc-12" value="control signal" style="text;html=1;align=center;verticalAlign=middle;resizable=0;points=[];autosize=1;strokeColor=none;fillColor=none;fontSize=10;" vertex="1" parent="1">
          <mxGeometry x="373.5" y="320" width="80" height="30" as="geometry" />
        </mxCell>
        <mxCell id="FPCLYELC2QN7BIS0ovdc-18" value="image signal" style="text;html=1;align=center;verticalAlign=middle;resizable=0;points=[];autosize=1;strokeColor=none;fillColor=none;fontSize=10;" vertex="1" parent="1">
          <mxGeometry x="374" y="260" width="80" height="30" as="geometry" />
        </mxCell>
        <mxCell id="FPCLYELC2QN7BIS0ovdc-19" value="FPV image" style="text;html=1;align=center;verticalAlign=middle;resizable=0;points=[];autosize=1;strokeColor=none;fillColor=none;" vertex="1" parent="1">
          <mxGeometry x="145" y="180" width="80" height="30" as="geometry" />
        </mxCell>
        <mxCell id="FPCLYELC2QN7BIS0ovdc-20" value="remote control" style="text;whiteSpace=wrap;align=center;verticalAlign=middle;" vertex="1" parent="1">
          <mxGeometry x="140" y="410" width="90" height="30" as="geometry" />
        </mxCell>
        <mxCell id="FPCLYELC2QN7BIS0ovdc-21" value="receiver" style="text;html=1;align=center;verticalAlign=middle;resizable=0;points=[];autosize=1;strokeColor=none;fillColor=none;" vertex="1" parent="1">
          <mxGeometry x="299" y="328.5" width="70" height="30" as="geometry" />
        </mxCell>
        <mxCell id="FPCLYELC2QN7BIS0ovdc-23" value="main car" style="text;html=1;align=center;verticalAlign=middle;resizable=0;points=[];autosize=1;strokeColor=none;fillColor=none;" vertex="1" parent="1">
          <mxGeometry x="490" y="328.5" width="70" height="30" as="geometry" />
        </mxCell>
      </root>
    </mxGraphModel>
  </diagram>
</mxfile>
